{"glyphs":{"0":{"ha":772,"x_min":39,"x_max":731,"o":"m 386 -15 q 232 9 297 -15 q 124 88 167 33 q 60 232 82 143 q 39 450 39 321 q 60 676 39 583 q 125 826 82 769 q 233 907 168 882 q 385 932 297 932 q 540 907 475 932 q 648 826 606 882 q 710 677 690 769 q 731 450 731 585 q 694 177 731 279 q 581 30 657 75 q 386 -15 504 -15 m 386 146 q 453 159 425 146 q 501 206 482 172 q 530 299 521 239 q 539 450 539 358 q 530 610 539 547 q 503 708 521 672 q 456 758 485 743 q 386 772 426 772 q 317 758 346 772 q 269 708 288 743 q 240 610 250 674 q 231 449 231 547 q 241 297 231 357 q 271 205 251 238 q 319 159 290 172 q 386 146 347 146 z "},"1":{"ha":772,"x_min":113,"x_max":582,"o":"m 393 0 l 393 711 l 176 586 l 113 724 l 417 917 l 582 917 l 582 0 l 393 0 z "},"2":{"ha":772,"x_min":82,"x_max":688,"o":"m 82 0 l 82 150 l 292 365 q 394 473 351 426 q 460 561 438 519 q 483 650 483 603 q 444 744 483 719 q 319 768 406 768 q 243 764 285 768 q 163 754 201 760 q 97 743 125 749 l 88 890 q 163 908 118 899 q 262 926 208 918 q 367 933 315 933 q 596 870 517 933 q 675 675 675 807 q 655 547 675 603 q 592 441 635 492 q 481 331 550 390 l 297 156 l 688 156 l 688 0 l 82 0 z "},"3":{"ha":772,"x_min":72,"x_max":697,"o":"m 371 -15 q 263 -10 319 -15 q 156 5 207 -4 q 72 21 106 14 l 81 169 q 160 160 114 165 q 256 151 207 154 q 347 147 306 147 q 465 176 426 147 q 504 271 504 206 q 487 341 504 315 q 437 379 469 367 q 361 393 404 392 l 172 393 l 172 546 l 357 546 q 419 560 389 546 q 467 600 449 574 q 486 664 486 626 q 451 747 486 722 q 336 771 415 771 q 249 767 294 771 q 161 758 203 763 q 92 747 119 753 l 83 893 q 158 910 114 901 q 253 926 203 919 q 347 932 303 932 q 538 908 465 932 q 644 828 611 883 q 678 685 678 774 q 666 603 678 636 q 635 546 654 569 q 597 508 617 522 q 561 482 578 493 q 633 439 603 463 q 681 376 664 415 q 697 272 697 338 q 661 105 697 168 q 553 13 625 42 q 371 -15 481 -15 z "},"4":{"ha":772,"x_min":44,"x_max":735,"o":"m 461 0 l 461 153 l 44 153 l 44 292 l 253 917 l 467 917 l 235 313 l 461 313 l 472 549 l 650 551 l 650 313 l 735 313 l 735 153 l 650 153 l 650 0 l 461 0 z "},"5":{"ha":772,"x_min":63,"x_max":714,"o":"m 392 -15 q 278 -8 339 -15 q 160 11 217 0 q 63 31 103 22 l 79 172 q 168 159 117 167 q 274 147 219 151 q 372 143 328 143 q 485 180 443 143 q 526 288 526 217 q 509 364 526 336 q 459 403 492 392 q 383 415 426 415 q 317 409 350 415 q 254 394 283 403 q 207 375 225 385 l 82 394 l 104 917 l 678 917 l 678 749 l 254 749 l 236 544 q 285 562 256 553 q 348 578 314 571 q 414 585 382 585 q 576 558 510 585 q 678 471 643 532 q 714 304 714 410 q 674 124 714 194 q 563 19 635 54 q 392 -15 492 -15 z "},"6":{"ha":772,"x_min":50,"x_max":728,"o":"m 396 -15 q 133 108 217 -15 q 50 457 50 232 q 77 681 50 590 q 153 827 104 772 q 271 907 203 882 q 421 932 339 932 q 515 926 464 932 q 614 913 565 921 q 696 899 663 906 l 681 756 q 608 763 651 758 q 517 770 564 767 q 426 774 469 774 q 285 715 332 774 q 235 546 238 656 q 270 556 249 550 q 317 570 292 563 q 369 583 343 578 q 419 588 396 588 q 651 516 574 588 q 728 292 728 444 q 688 121 728 189 q 574 19 647 53 q 396 -15 500 -15 m 396 140 q 510 180 472 140 q 549 292 549 219 q 510 398 549 364 q 400 432 471 432 q 339 426 371 432 q 279 412 307 421 q 233 394 251 403 q 250 263 235 321 q 301 173 265 206 q 396 140 336 140 z "},"7":{"ha":772,"x_min":92,"x_max":685,"o":"m 374 -15 l 190 29 l 490 707 l 490 743 l 92 743 l 92 917 l 685 917 l 685 710 l 374 -15 z "},"8":{"ha":772,"x_min":33,"x_max":738,"o":"m 383 -15 q 210 7 290 -15 q 82 85 131 29 q 33 238 33 140 q 51 349 33 307 q 100 419 68 390 q 176 475 132 449 q 79 558 110 511 q 49 692 49 606 q 91 829 49 776 q 209 907 133 882 q 383 932 285 932 q 559 908 482 932 q 680 831 636 885 q 724 690 724 778 q 693 556 724 601 q 590 474 663 511 q 672 423 639 451 q 721 353 704 394 q 738 246 738 311 q 689 88 738 144 q 560 8 640 31 q 383 -15 481 -15 m 383 136 q 469 148 432 136 q 526 188 506 160 q 546 267 546 217 q 531 331 546 306 q 491 374 517 357 q 435 400 465 390 l 331 400 q 253 352 282 385 q 225 263 225 319 q 245 189 225 217 q 301 149 265 161 q 383 136 338 136 m 331 540 l 435 540 q 507 588 481 558 q 533 664 533 617 q 495 754 533 726 q 385 782 457 782 q 276 754 314 782 q 239 665 239 726 q 263 588 239 617 q 331 540 286 558 z "},"9":{"ha":772,"x_min":43,"x_max":721,"o":"m 347 -15 q 255 -10 306 -15 q 156 3 204 -4 q 74 18 108 11 l 89 163 q 162 153 118 158 q 253 146 206 149 q 342 143 300 143 q 487 200 440 143 q 536 372 533 257 q 473 351 507 361 q 406 336 439 342 q 347 331 374 331 q 120 401 197 331 q 43 624 43 472 q 84 792 43 724 q 199 897 125 861 q 374 932 274 932 q 572 876 494 932 q 685 714 649 819 q 721 460 721 608 q 694 231 721 322 q 618 85 667 139 q 501 8 569 31 q 347 -15 432 -15 m 367 485 q 428 491 396 485 q 489 506 460 497 q 538 522 518 515 q 521 656 536 599 q 470 744 506 713 q 374 776 435 776 q 262 735 301 776 q 222 624 222 693 q 259 518 222 551 q 367 485 296 485 z "},"A":{"ha":850,"x_min":17,"x_max":833,"o":"m 17 0 l 258 949 l 593 949 l 833 0 l 642 0 l 589 192 l 257 192 l 207 0 l 17 0 m 288 346 l 561 346 l 454 793 l 396 793 l 288 346 z "},"Á":{"ha":850,"x_min":17,"x_max":833,"o":"m 17 0 l 258 949 l 593 949 l 833 0 l 642 0 l 589 192 l 257 192 l 207 0 l 17 0 m 288 346 l 561 346 l 454 793 l 396 793 l 288 346 m 368 1044 l 258 1093 l 468 1250 l 617 1190 l 368 1044 z "},"Ă":{"ha":850,"x_min":17,"x_max":833,"o":"m 17 0 l 258 949 l 593 949 l 833 0 l 642 0 l 589 192 l 257 192 l 207 0 l 17 0 m 288 346 l 561 346 l 454 793 l 396 793 l 288 346 m 425 1051 q 303 1078 351 1051 q 230 1148 254 1104 q 204 1246 206 1192 l 328 1250 q 357 1188 331 1211 q 425 1164 383 1164 q 494 1188 468 1164 q 522 1250 521 1211 l 646 1246 q 619 1148 644 1192 q 547 1078 594 1104 q 425 1051 499 1051 z "},"Â":{"ha":850,"x_min":17,"x_max":833,"o":"m 17 0 l 258 949 l 593 949 l 833 0 l 642 0 l 589 192 l 257 192 l 207 0 l 17 0 m 288 346 l 561 346 l 454 793 l 396 793 l 288 346 m 185 1057 l 353 1244 l 492 1244 l 667 1057 l 501 1057 l 425 1157 l 350 1057 l 185 1057 z "},"Ä":{"ha":850,"x_min":17,"x_max":833,"o":"m 17 0 l 258 949 l 593 949 l 833 0 l 642 0 l 589 192 l 257 192 l 207 0 l 17 0 m 288 346 l 561 346 l 454 793 l 396 793 l 288 346 m 493 1071 l 493 1225 l 643 1225 l 643 1071 l 493 1071 m 208 1071 l 208 1225 l 358 1225 l 358 1071 l 208 1071 z "},"À":{"ha":850,"x_min":17,"x_max":833,"o":"m 17 0 l 258 949 l 593 949 l 833 0 l 642 0 l 589 192 l 257 192 l 207 0 l 17 0 m 288 346 l 561 346 l 454 793 l 396 793 l 288 346 m 463 1044 l 218 1192 l 368 1250 l 574 1093 l 463 1044 z "},"Ā":{"ha":850,"x_min":17,"x_max":833,"o":"m 17 0 l 258 949 l 593 949 l 833 0 l 642 0 l 589 192 l 257 192 l 207 0 l 17 0 m 288 346 l 561 346 l 454 793 l 396 793 l 288 346 m 204 1074 l 204 1199 l 643 1199 l 643 1074 l 204 1074 z "},"Ą":{"ha":850,"x_min":17,"x_max":850,"o":"m 17 0 l 258 949 l 593 949 l 833 0 l 642 0 l 589 192 l 257 192 l 207 0 l 17 0 m 288 346 l 561 346 l 454 793 l 396 793 l 288 346 m 711 -294 q 624 -278 661 -294 q 567 -232 586 -261 q 547 -161 547 -203 q 568 -85 547 -121 q 620 -22 589 -50 q 682 24 651 6 l 822 8 q 773 -41 796 -15 q 736 -92 750 -67 q 722 -136 722 -117 q 733 -167 722 -156 q 768 -179 744 -179 q 801 -176 782 -179 q 835 -172 821 -174 l 850 -279 q 787 -289 825 -283 q 711 -294 749 -294 z "},"Å":{"ha":850,"x_min":17,"x_max":833,"o":"m 17 0 l 258 949 l 593 949 l 833 0 l 642 0 l 589 192 l 257 192 l 207 0 l 17 0 m 288 346 l 561 346 l 454 793 l 396 793 l 288 346 m 426 878 q 300 914 350 878 q 250 1021 250 950 q 300 1127 250 1092 q 426 1163 350 1163 q 550 1127 500 1163 q 600 1021 600 1092 q 551 915 600 951 q 426 878 501 878 m 426 963 q 476 978 457 963 q 494 1021 494 993 q 476 1063 494 1049 q 426 1076 457 1076 q 376 1063 394 1076 q 357 1021 357 1049 q 376 978 357 993 q 426 963 394 963 z "},"Ǻ":{"ha":850,"x_min":17,"x_max":833,"o":"m 17 0 l 258 949 l 593 949 l 833 0 l 642 0 l 589 192 l 257 192 l 207 0 l 17 0 m 288 346 l 561 346 l 454 793 l 396 793 l 288 346 m 426 879 q 300 915 350 879 q 250 1022 250 951 q 300 1128 250 1093 q 426 1164 350 1164 q 550 1128 500 1164 q 600 1022 600 1093 q 551 916 600 953 q 426 879 501 879 m 426 964 q 476 979 457 964 q 494 1022 494 994 q 476 1064 494 1050 q 426 1078 457 1078 q 376 1064 394 1078 q 357 1022 357 1050 q 376 979 357 994 q 426 964 394 964 m 361 1197 l 251 1246 l 461 1403 l 610 1343 l 361 1197 z "},"Ã":{"ha":850,"x_min":17,"x_max":833,"o":"m 17 0 l 258 949 l 593 949 l 833 0 l 642 0 l 589 192 l 257 192 l 207 0 l 17 0 m 288 346 l 561 346 l 454 793 l 396 793 l 288 346 m 533 1065 q 478 1075 508 1065 q 415 1098 447 1085 q 356 1120 383 1111 q 314 1129 329 1129 q 264 1111 296 1129 q 210 1075 232 1093 l 179 1181 q 240 1235 201 1207 q 313 1263 278 1263 q 372 1253 340 1263 q 434 1231 404 1243 q 490 1210 464 1219 q 531 1200 515 1200 q 578 1217 547 1200 q 633 1250 610 1235 l 664 1144 q 606 1092 643 1118 q 533 1065 568 1065 z "},"Æ":{"ha":1219,"x_min":14,"x_max":1171,"o":"m 14 0 l 283 953 l 1171 953 l 1171 789 l 731 789 l 731 564 l 1088 564 l 1088 404 l 731 404 l 731 164 l 1171 164 l 1171 0 l 543 0 l 543 189 l 264 189 l 206 0 l 14 0 m 297 350 l 543 350 l 544 789 l 419 789 l 297 350 z "},"Ǽ":{"ha":1219,"x_min":14,"x_max":1171,"o":"m 14 0 l 283 953 l 1171 953 l 1171 789 l 731 789 l 731 564 l 1088 564 l 1088 404 l 731 404 l 731 164 l 1171 164 l 1171 0 l 543 0 l 543 189 l 264 189 l 206 0 l 14 0 m 297 350 l 543 350 l 544 789 l 419 789 l 297 350 m 649 1044 l 539 1093 l 749 1250 l 897 1190 l 649 1044 z "},"B":{"ha":850,"x_min":88,"x_max":799,"o":"m 88 0 l 88 949 l 465 949 q 628 925 560 949 q 734 849 696 901 q 772 710 772 797 q 760 609 772 650 q 724 540 749 568 q 661 488 700 511 q 734 447 703 472 q 782 378 765 421 q 799 267 799 336 q 775 139 799 190 q 708 57 751 88 q 606 13 664 26 q 478 0 547 0 l 88 0 m 279 142 l 464 142 q 545 153 513 142 q 595 196 578 165 q 613 281 613 226 q 599 349 613 322 q 563 388 585 375 q 513 407 540 401 q 460 413 486 413 l 279 413 l 279 142 m 279 549 l 458 549 q 560 582 529 549 q 592 683 592 615 q 558 778 592 749 q 451 807 524 807 l 279 807 l 279 549 z "},"C":{"ha":750,"x_min":60,"x_max":707,"o":"m 429 -15 q 247 13 318 -15 q 133 101 175 42 q 76 253 92 161 q 60 474 60 346 q 76 695 60 603 q 133 847 92 788 q 248 936 175 907 q 435 965 321 965 q 531 960 481 965 q 627 947 581 954 q 707 931 674 939 l 701 778 q 632 788 674 783 q 547 796 590 793 q 467 799 504 799 q 358 782 400 799 q 294 726 317 765 q 263 626 271 688 q 254 474 254 564 q 263 323 254 385 q 293 223 271 261 q 358 167 315 185 q 468 150 400 150 q 591 156 524 150 q 703 168 658 163 l 707 17 q 628 2 674 10 q 531 -10 582 -6 q 429 -15 479 -15 z "},"Ć":{"ha":750,"x_min":60,"x_max":707,"o":"m 429 -15 q 247 13 318 -15 q 133 101 175 42 q 76 253 92 161 q 60 474 60 346 q 76 695 60 603 q 133 847 92 788 q 248 936 175 907 q 435 965 321 965 q 531 960 481 965 q 627 947 581 954 q 707 931 674 939 l 701 778 q 632 788 674 783 q 547 796 590 793 q 467 799 504 799 q 358 782 400 799 q 294 726 317 765 q 263 626 271 688 q 254 474 254 564 q 263 323 254 385 q 293 223 271 261 q 358 167 315 185 q 468 150 400 150 q 591 156 524 150 q 703 168 658 163 l 707 17 q 628 2 674 10 q 531 -10 582 -6 q 429 -15 479 -15 m 360 1044 l 250 1093 l 460 1250 l 608 1190 l 360 1044 z "},"Č":{"ha":750,"x_min":60,"x_max":707,"o":"m 429 -15 q 247 13 318 -15 q 133 101 175 42 q 76 253 92 161 q 60 474 60 346 q 76 695 60 603 q 133 847 92 788 q 248 936 175 907 q 435 965 321 965 q 531 960 481 965 q 627 947 581 954 q 707 931 674 939 l 701 778 q 632 788 674 783 q 547 796 590 793 q 467 799 504 799 q 358 782 400 799 q 294 726 317 765 q 263 626 271 688 q 254 474 254 564 q 263 323 254 385 q 293 223 271 261 q 358 167 315 185 q 468 150 400 150 q 591 156 524 150 q 703 168 658 163 l 707 17 q 628 2 674 10 q 531 -10 582 -6 q 429 -15 479 -15 m 335 1056 l 167 1244 l 331 1244 l 408 1144 l 483 1244 l 647 1244 l 474 1056 l 335 1056 z "},"Ç":{"ha":750,"x_min":60,"x_max":707,"o":"m 429 -15 q 247 13 318 -15 q 133 101 175 42 q 76 253 92 161 q 60 474 60 346 q 76 695 60 603 q 133 847 92 788 q 248 936 175 907 q 435 965 321 965 q 531 960 481 965 q 627 947 581 954 q 707 931 674 939 l 701 778 q 632 788 674 783 q 547 796 590 793 q 467 799 504 799 q 358 782 400 799 q 294 726 317 765 q 263 626 271 688 q 254 474 254 564 q 263 323 254 385 q 293 223 271 261 q 358 167 315 185 q 468 150 400 150 q 591 156 524 150 q 703 168 658 163 l 707 17 q 628 2 674 10 q 531 -10 582 -6 q 429 -15 479 -15 m 472 -304 q 392 -301 432 -304 q 331 -292 353 -297 l 335 -208 q 372 -210 343 -210 q 417 -211 400 -211 q 460 -201 446 -211 q 474 -168 474 -190 q 460 -137 474 -144 q 417 -129 446 -129 l 376 -129 l 376 13 l 451 13 l 451 -53 q 580 -76 539 -54 q 621 -168 621 -97 q 581 -272 621 -240 q 472 -304 542 -304 z "},"Ĉ":{"ha":750,"x_min":60,"x_max":707,"o":"m 429 -15 q 247 13 318 -15 q 133 101 175 42 q 76 253 92 161 q 60 474 60 346 q 76 695 60 603 q 133 847 92 788 q 248 936 175 907 q 435 965 321 965 q 531 960 481 965 q 627 947 581 954 q 707 931 674 939 l 701 778 q 632 788 674 783 q 547 796 590 793 q 467 799 504 799 q 358 782 400 799 q 294 726 317 765 q 263 626 271 688 q 254 474 254 564 q 263 323 254 385 q 293 223 271 261 q 358 167 315 185 q 468 150 400 150 q 591 156 524 150 q 703 168 658 163 l 707 17 q 628 2 674 10 q 531 -10 582 -6 q 429 -15 479 -15 m 179 1057 l 347 1244 l 486 1244 l 661 1057 l 496 1057 l 419 1157 l 344 1057 l 179 1057 z "},"Ċ":{"ha":750,"x_min":60,"x_max":707,"o":"m 429 -15 q 247 13 318 -15 q 133 101 175 42 q 76 253 92 161 q 60 474 60 346 q 76 695 60 603 q 133 847 92 788 q 248 936 175 907 q 435 965 321 965 q 531 960 481 965 q 627 947 581 954 q 707 931 674 939 l 701 778 q 632 788 674 783 q 547 796 590 793 q 467 799 504 799 q 358 782 400 799 q 294 726 317 765 q 263 626 271 688 q 254 474 254 564 q 263 323 254 385 q 293 223 271 261 q 358 167 315 185 q 468 150 400 150 q 591 156 524 150 q 703 168 658 163 l 707 17 q 628 2 674 10 q 531 -10 582 -6 q 429 -15 479 -15 m 317 1061 l 317 1214 l 479 1214 l 479 1061 l 317 1061 z "},"D":{"ha":900,"x_min":88,"x_max":844,"o":"m 88 0 l 88 949 l 450 949 q 637 917 561 949 q 758 826 713 886 q 824 682 804 767 q 844 489 844 597 q 826 290 844 379 q 763 136 807 201 q 643 35 718 71 q 456 0 568 0 l 88 0 m 279 161 l 444 161 q 550 186 510 161 q 612 256 590 211 q 641 360 633 301 q 649 489 649 419 q 640 610 649 556 q 610 705 632 665 q 549 766 589 744 q 444 788 510 788 l 279 788 l 279 161 z "},"Ð":{"ha":906,"x_min":17,"x_max":850,"o":"m 17 408 l 17 547 l 449 547 l 449 408 l 17 408 m 94 0 l 94 949 l 457 949 q 644 917 568 949 q 765 826 719 886 q 831 682 811 767 q 850 489 850 597 q 831 290 850 379 q 768 136 813 201 q 649 35 724 71 q 461 0 574 0 l 94 0 m 286 161 l 451 161 q 557 186 517 161 q 618 256 597 211 q 647 360 639 301 q 656 489 656 419 q 647 610 656 556 q 617 705 639 665 q 556 766 596 744 q 451 788 515 788 l 286 788 l 286 161 z "},"Ď":{"ha":900,"x_min":88,"x_max":844,"o":"m 88 0 l 88 949 l 450 949 q 637 917 561 949 q 758 826 713 886 q 824 682 804 767 q 844 489 844 597 q 826 290 844 379 q 763 136 807 201 q 643 35 718 71 q 456 0 568 0 l 88 0 m 279 161 l 444 161 q 550 186 510 161 q 612 256 590 211 q 641 360 633 301 q 649 489 649 419 q 640 610 649 556 q 610 705 632 665 q 549 766 589 744 q 444 788 510 788 l 279 788 l 279 161 m 338 1056 l 169 1244 l 333 1244 l 411 1144 l 486 1244 l 650 1244 l 476 1056 l 338 1056 z "},"Đ":{"ha":906,"x_min":17,"x_max":850,"o":"m 17 408 l 17 547 l 449 547 l 449 408 l 17 408 m 94 0 l 94 949 l 457 949 q 644 917 568 949 q 765 826 719 886 q 831 682 811 767 q 850 489 850 597 q 831 290 850 379 q 768 136 813 201 q 649 35 724 71 q 461 0 574 0 l 94 0 m 286 161 l 451 161 q 557 186 517 161 q 618 256 597 211 q 647 360 639 301 q 656 489 656 419 q 647 610 656 556 q 617 705 639 665 q 556 766 596 744 q 451 788 515 788 l 286 788 l 286 161 z "},"E":{"ha":765,"x_min":88,"x_max":718,"o":"m 88 0 l 88 949 l 718 949 l 718 789 l 279 789 l 279 558 l 635 558 l 635 401 l 279 401 l 279 160 l 718 160 l 718 0 l 88 0 z "},"É":{"ha":765,"x_min":88,"x_max":718,"o":"m 88 0 l 88 949 l 718 949 l 718 789 l 279 789 l 279 558 l 635 558 l 635 401 l 279 401 l 279 160 l 718 160 l 718 0 l 88 0 m 339 1044 l 229 1093 l 439 1250 l 588 1190 l 339 1044 z "},"Ĕ":{"ha":765,"x_min":88,"x_max":718,"o":"m 88 0 l 88 949 l 718 949 l 718 789 l 279 789 l 279 558 l 635 558 l 635 401 l 279 401 l 279 160 l 718 160 l 718 0 l 88 0 m 406 1051 q 283 1078 332 1051 q 210 1148 235 1104 q 185 1246 186 1192 l 308 1250 q 338 1188 311 1211 q 406 1164 364 1164 q 475 1188 449 1164 q 503 1250 501 1211 l 626 1246 q 600 1148 625 1192 q 527 1078 575 1104 q 406 1051 479 1051 z "},"Ě":{"ha":765,"x_min":88,"x_max":718,"o":"m 88 0 l 88 949 l 718 949 l 718 789 l 279 789 l 279 558 l 635 558 l 635 401 l 279 401 l 279 160 l 718 160 l 718 0 l 88 0 m 319 1056 l 151 1244 l 315 1244 l 393 1144 l 468 1244 l 632 1244 l 458 1056 l 319 1056 z "},"Ê":{"ha":765,"x_min":88,"x_max":718,"o":"m 88 0 l 88 949 l 718 949 l 718 789 l 279 789 l 279 558 l 635 558 l 635 401 l 279 401 l 279 160 l 718 160 l 718 0 l 88 0 m 158 1057 l 326 1244 l 465 1244 l 640 1057 l 475 1057 l 399 1157 l 324 1057 l 158 1057 z "},"Ë":{"ha":765,"x_min":88,"x_max":718,"o":"m 88 0 l 88 949 l 718 949 l 718 789 l 279 789 l 279 558 l 635 558 l 635 401 l 279 401 l 279 160 l 718 160 l 718 0 l 88 0 m 469 1071 l 469 1225 l 619 1225 l 619 1071 l 469 1071 m 185 1071 l 185 1225 l 335 1225 l 335 1071 l 185 1071 z "},"Ė":{"ha":765,"x_min":88,"x_max":718,"o":"m 88 0 l 88 949 l 718 949 l 718 789 l 279 789 l 279 558 l 635 558 l 635 401 l 279 401 l 279 160 l 718 160 l 718 0 l 88 0 m 322 1064 l 322 1217 l 485 1217 l 485 1064 l 322 1064 z "},"È":{"ha":765,"x_min":88,"x_max":718,"o":"m 88 0 l 88 949 l 718 949 l 718 789 l 279 789 l 279 558 l 635 558 l 635 401 l 279 401 l 279 160 l 718 160 l 718 0 l 88 0 m 449 1044 l 204 1192 l 354 1250 l 560 1093 l 449 1044 z "},"Ē":{"ha":765,"x_min":88,"x_max":718,"o":"m 88 0 l 88 949 l 718 949 l 718 789 l 279 789 l 279 558 l 635 558 l 635 401 l 279 401 l 279 160 l 718 160 l 718 0 l 88 0 m 181 1074 l 181 1199 l 619 1199 l 619 1074 l 181 1074 z "},"Ę":{"ha":765,"x_min":88,"x_max":718,"o":"m 88 0 l 88 949 l 718 949 l 718 789 l 279 789 l 279 558 l 635 558 l 635 401 l 279 401 l 279 160 l 718 160 l 718 0 l 88 0 m 579 -294 q 492 -278 529 -294 q 435 -232 454 -261 q 415 -161 415 -203 q 436 -85 415 -121 q 488 -22 457 -50 q 550 24 519 6 l 690 8 q 641 -41 664 -15 q 604 -92 618 -67 q 590 -136 590 -117 q 601 -167 590 -156 q 636 -179 613 -179 q 669 -176 650 -179 q 703 -172 689 -174 l 718 -279 q 655 -289 693 -283 q 579 -294 617 -294 z "},"F":{"ha":728,"x_min":88,"x_max":700,"o":"m 88 0 l 88 949 l 700 949 l 700 788 l 279 788 l 279 501 l 624 501 l 624 340 l 279 340 l 279 0 l 88 0 z "},"G":{"ha":857,"x_min":57,"x_max":786,"o":"m 456 -14 q 258 17 336 -14 q 137 110 181 49 q 75 263 93 172 q 57 474 57 354 q 77 692 57 600 q 144 845 97 785 q 266 935 190 906 q 453 965 342 965 q 572 959 510 965 q 690 943 633 953 q 783 924 746 933 l 781 774 q 687 786 742 781 q 575 795 632 792 q 472 799 518 799 q 359 781 403 799 q 292 723 315 763 q 261 622 269 683 q 253 474 253 560 q 269 291 253 364 q 331 183 285 218 q 465 149 378 149 q 513 150 488 149 q 563 154 539 151 q 604 160 588 157 l 604 367 l 492 367 l 492 513 l 786 513 l 786 22 q 713 12 756 18 q 623 0 669 6 q 533 -10 576 -6 q 456 -14 489 -14 z "},"Ğ":{"ha":857,"x_min":57,"x_max":786,"o":"m 456 -14 q 258 17 336 -14 q 137 110 181 49 q 75 263 93 172 q 57 474 57 354 q 77 692 57 600 q 144 845 97 785 q 266 935 190 906 q 453 965 342 965 q 572 959 510 965 q 690 943 633 953 q 783 924 746 933 l 781 774 q 687 786 742 781 q 575 795 632 792 q 472 799 518 799 q 359 781 403 799 q 292 723 315 763 q 261 622 269 683 q 253 474 253 560 q 269 291 253 364 q 331 183 285 218 q 465 149 378 149 q 513 150 488 149 q 563 154 539 151 q 604 160 588 157 l 604 367 l 492 367 l 492 513 l 786 513 l 786 22 q 713 12 756 18 q 623 0 669 6 q 533 -10 576 -6 q 456 -14 489 -14 m 454 1051 q 332 1078 381 1051 q 259 1148 283 1104 q 233 1246 235 1192 l 357 1250 q 386 1188 360 1211 q 454 1164 413 1164 q 524 1188 497 1164 q 551 1250 550 1211 l 675 1246 q 649 1148 674 1192 q 576 1078 624 1104 q 454 1051 528 1051 z "},"Ĝ":{"ha":857,"x_min":57,"x_max":786,"o":"m 456 -14 q 258 17 336 -14 q 137 110 181 49 q 75 263 93 172 q 57 474 57 354 q 77 692 57 600 q 144 845 97 785 q 266 935 190 906 q 453 965 342 965 q 572 959 510 965 q 690 943 633 953 q 783 924 746 933 l 781 774 q 687 786 742 781 q 575 795 632 792 q 472 799 518 799 q 359 781 403 799 q 292 723 315 763 q 261 622 269 683 q 253 474 253 560 q 269 291 253 364 q 331 183 285 218 q 465 149 378 149 q 513 150 488 149 q 563 154 539 151 q 604 160 588 157 l 604 367 l 492 367 l 492 513 l 786 513 l 786 22 q 713 12 756 18 q 623 0 669 6 q 533 -10 576 -6 q 456 -14 489 -14 m 208 1054 l 376 1242 l 515 1242 l 690 1054 l 525 1054 l 449 1154 l 374 1054 l 208 1054 z "},"Ģ":{"ha":856,"x_min":57,"x_max":786,"o":"m 456 -14 q 258 17 336 -14 q 137 110 181 49 q 75 263 93 172 q 57 474 57 354 q 77 692 57 600 q 144 845 97 785 q 266 935 190 906 q 453 965 342 965 q 572 959 510 965 q 690 943 633 953 q 783 924 746 933 l 781 774 q 687 786 742 781 q 575 795 632 792 q 472 799 518 799 q 359 781 403 799 q 292 723 315 763 q 261 622 269 683 q 253 474 253 560 q 269 291 253 364 q 331 183 285 218 q 465 149 378 149 q 513 150 488 149 q 563 154 539 151 q 604 160 588 157 l 604 367 l 492 367 l 492 513 l 786 513 l 786 22 q 713 12 756 18 q 623 0 669 6 q 533 -10 576 -6 q 456 -14 489 -14 m 333 -451 l 381 -115 l 575 -115 l 490 -451 l 333 -451 z "},"Ġ":{"ha":857,"x_min":57,"x_max":786,"o":"m 347 1072 l 347 1229 l 514 1229 l 514 1072 l 347 1072 m 456 -14 q 258 17 336 -14 q 137 110 181 49 q 75 263 93 172 q 57 474 57 354 q 77 692 57 600 q 144 845 97 785 q 266 935 190 906 q 453 965 342 965 q 572 959 510 965 q 690 943 633 953 q 783 924 746 933 l 781 774 q 687 786 742 781 q 575 795 632 792 q 472 799 518 799 q 359 781 403 799 q 292 723 315 763 q 261 622 269 683 q 253 474 253 560 q 269 291 253 364 q 331 183 285 218 q 465 149 378 149 q 513 150 488 149 q 563 154 539 151 q 604 160 588 157 l 604 367 l 492 367 l 492 513 l 786 513 l 786 22 q 713 12 756 18 q 623 0 669 6 q 533 -10 576 -6 q 456 -14 489 -14 z "},"H":{"ha":926,"x_min":88,"x_max":839,"o":"m 88 0 l 88 949 l 279 949 l 279 553 l 647 553 l 647 949 l 839 949 l 839 0 l 647 0 l 647 392 l 279 392 l 279 0 l 88 0 z "},"Ħ":{"ha":939,"x_min":15,"x_max":928,"o":"m 15 685 l 15 814 l 928 814 l 928 685 l 15 685 m 93 0 l 93 949 l 285 949 l 285 553 l 651 553 l 651 949 l 843 949 l 843 0 l 651 0 l 651 392 l 285 392 l 285 0 l 93 0 z "},"Ĥ":{"ha":926,"x_min":88,"x_max":839,"o":"m 88 0 l 88 949 l 279 949 l 279 553 l 647 553 l 647 949 l 839 949 l 839 0 l 647 0 l 647 392 l 279 392 l 279 0 l 88 0 m 224 1057 l 392 1244 l 531 1244 l 706 1057 l 540 1057 l 464 1157 l 389 1057 l 224 1057 z "},"I":{"ha":368,"x_min":88,"x_max":279,"o":"m 88 0 l 88 949 l 279 949 l 279 0 l 88 0 z "},"Í":{"ha":368,"x_min":33,"x_max":393,"o":"m 88 0 l 88 949 l 279 949 l 279 0 l 88 0 m 144 1044 l 35 1093 l 244 1250 l 393 1190 l 144 1044 z "},"Ĭ":{"ha":368,"x_min":-29,"x_max":413,"o":"m 88 0 l 88 949 l 279 949 l 279 0 l 88 0 m 192 1051 q 69 1078 118 1051 q -3 1148 21 1104 q -29 1246 -28 1192 l 94 1250 q 124 1188 97 1211 q 192 1164 150 1164 q 261 1188 235 1164 q 289 1250 288 1211 l 413 1246 q 386 1148 411 1192 q 313 1078 361 1104 q 192 1051 265 1051 z "},"Î":{"ha":365,"x_min":-62,"x_max":421,"o":"m 88 0 l 88 949 l 279 949 l 279 0 l 88 0 m -61 1057 l 107 1244 l 246 1244 l 421 1057 l 256 1057 l 179 1157 l 104 1057 l -61 1057 z "},"Ï":{"ha":368,"x_min":-33,"x_max":401,"o":"m 88 0 l 88 949 l 279 949 l 279 0 l 88 0 m 251 1071 l 251 1225 l 401 1225 l 401 1071 l 251 1071 m -33 1071 l -33 1225 l 117 1225 l 117 1071 l -33 1071 z "},"İ":{"ha":368,"x_min":88,"x_max":279,"o":"m 101 1061 l 101 1218 l 267 1218 l 267 1061 l 101 1061 m 88 0 l 88 949 l 279 949 l 279 0 l 88 0 z "},"Ì":{"ha":365,"x_min":-33,"x_max":322,"o":"m 88 0 l 88 949 l 279 949 l 279 0 l 88 0 m 213 1044 l -32 1192 l 118 1250 l 324 1093 l 213 1044 z "},"Ī":{"ha":368,"x_min":-33,"x_max":406,"o":"m 88 0 l 88 949 l 279 949 l 279 0 l 88 0 m -33 1074 l -33 1199 l 406 1199 l 406 1074 l -33 1074 z "},"Į":{"ha":368,"x_min":-3,"x_max":300,"o":"m 163 -294 q 75 -278 113 -294 q 18 -232 38 -261 q -1 -161 -1 -203 q 19 -85 -1 -121 q 72 -22 40 -50 q 133 24 103 6 l 274 8 q 224 -41 247 -15 q 188 -92 201 -67 q 174 -136 174 -117 q 185 -167 174 -156 q 219 -179 196 -179 q 253 -176 233 -179 q 286 -172 272 -174 l 301 -279 q 238 -289 276 -283 q 163 -294 200 -294 m 88 0 l 88 949 l 279 949 l 279 0 l 88 0 z "},"Ĩ":{"ha":368,"x_min":-62,"x_max":422,"o":"m 88 0 l 88 949 l 279 949 l 279 0 l 88 0 m 292 1065 q 236 1075 267 1065 q 174 1098 206 1085 q 115 1120 142 1111 q 72 1129 88 1129 q 22 1111 54 1129 q -32 1075 -10 1093 l -62 1181 q -2 1235 -40 1207 q 71 1263 36 1263 q 131 1253 99 1263 q 192 1231 163 1243 q 248 1210 222 1219 q 289 1200 274 1200 q 337 1217 306 1200 q 392 1250 368 1235 l 422 1144 q 364 1092 401 1118 q 292 1065 326 1065 z "},"J":{"ha":418,"x_min":24,"x_max":335,"o":"m 24 -68 l 24 93 q 83 99 60 93 q 120 122 107 104 q 138 173 133 139 q 143 263 143 207 l 143 949 l 335 949 l 335 176 q 315 44 335 93 q 256 -30 296 -6 q 159 -61 217 -54 q 24 -68 101 -68 z "},"Ĵ":{"ha":418,"x_min":1,"x_max":483,"o":"m 24 -68 l 24 93 q 83 99 60 93 q 120 122 107 104 q 138 173 133 139 q 143 263 143 207 l 143 949 l 335 949 l 335 176 q 315 44 335 93 q 256 -30 296 -6 q 159 -61 217 -54 q 24 -68 101 -68 m 1 1054 l 169 1242 l 308 1242 l 483 1054 l 318 1054 l 242 1154 l 167 1054 l 1 1054 z "},"K":{"ha":813,"x_min":88,"x_max":803,"o":"m 88 0 l 88 949 l 279 949 l 279 549 l 399 551 l 588 949 l 788 949 l 564 479 l 803 0 l 597 0 l 400 379 l 279 376 l 279 0 l 88 0 z "},"Ķ":{"ha":811,"x_min":88,"x_max":803,"o":"m 283 -383 l 329 -90 l 503 -90 l 428 -383 l 283 -383 m 88 0 l 88 949 l 279 949 l 279 549 l 399 551 l 588 949 l 788 949 l 564 479 l 803 0 l 597 0 l 400 379 l 279 376 l 279 0 l 88 0 z "},"L":{"ha":669,"x_min":88,"x_max":654,"o":"m 88 0 l 88 949 l 279 949 l 279 163 l 654 163 l 654 0 l 88 0 z "},"Ĺ":{"ha":671,"x_min":88,"x_max":654,"o":"m 247 1044 l 138 1093 l 347 1250 l 496 1190 l 247 1044 m 88 0 l 88 949 l 279 949 l 279 163 l 654 163 l 654 0 l 88 0 z "},"Ľ":{"ha":696,"x_min":88,"x_max":665,"o":"m 482 654 l 493 971 l 665 971 l 632 654 l 482 654 m 88 0 l 88 949 l 279 949 l 279 163 l 654 163 l 654 0 l 88 0 z "},"Ļ":{"ha":669,"x_min":88,"x_max":654,"o":"m 242 -383 l 288 -90 l 461 -90 l 386 -383 l 242 -383 m 88 0 l 88 949 l 279 949 l 279 163 l 654 163 l 654 0 l 88 0 z "},"Ł":{"ha":676,"x_min":-3,"x_max":661,"o":"m 31 278 l -3 424 l 446 701 l 479 557 l 31 278 m 94 0 l 94 949 l 286 949 l 286 163 l 661 163 l 661 0 l 94 0 z "},"M":{"ha":1175,"x_min":88,"x_max":1088,"o":"m 88 0 l 88 949 l 396 949 l 588 315 l 775 949 l 1088 949 l 1088 0 l 896 0 l 896 703 l 876 703 l 678 25 l 497 25 l 299 703 l 279 703 l 279 0 l 88 0 z "},"N":{"ha":946,"x_min":88,"x_max":858,"o":"m 88 0 l 88 949 l 338 949 l 642 282 l 667 282 l 667 949 l 858 949 l 858 0 l 611 0 l 304 678 l 279 678 l 279 0 l 88 0 z "},"Ń":{"ha":946,"x_min":88,"x_max":858,"o":"m 88 0 l 88 949 l 338 949 l 642 282 l 667 282 l 667 949 l 858 949 l 858 0 l 611 0 l 304 678 l 279 678 l 279 0 l 88 0 m 413 1044 l 303 1093 l 513 1250 l 661 1190 l 413 1044 z "},"Ň":{"ha":946,"x_min":88,"x_max":858,"o":"m 88 0 l 88 949 l 338 949 l 642 282 l 667 282 l 667 949 l 858 949 l 858 0 l 611 0 l 304 678 l 279 678 l 279 0 l 88 0 m 407 1053 l 239 1242 l 403 1242 l 481 1142 l 556 1242 l 719 1242 l 546 1053 l 407 1053 z "},"Ņ":{"ha":946,"x_min":88,"x_max":858,"o":"m 369 -383 l 415 -90 l 590 -90 l 515 -383 l 369 -383 m 88 0 l 88 949 l 338 949 l 642 282 l 667 282 l 667 949 l 858 949 l 858 0 l 611 0 l 304 678 l 279 678 l 279 0 l 88 0 z "},"Ŋ":{"ha":947,"x_min":88,"x_max":858,"o":"m 564 -311 l 525 -160 q 598 -144 569 -151 q 642 -122 626 -136 q 663 -80 657 -107 q 668 -6 668 -53 l 668 40 l 858 40 l 858 -11 q 843 -153 858 -99 q 794 -237 828 -207 q 703 -283 760 -267 q 564 -311 646 -299 m 88 0 l 88 949 l 338 949 l 642 282 l 667 282 l 667 949 l 858 949 l 858 0 l 611 0 l 304 678 l 279 678 l 279 0 l 88 0 z "},"Ñ":{"ha":946,"x_min":88,"x_max":858,"o":"m 88 0 l 88 949 l 338 949 l 642 282 l 667 282 l 667 949 l 858 949 l 858 0 l 611 0 l 304 678 l 279 678 l 279 0 l 88 0 m 583 1065 q 528 1075 558 1065 q 465 1098 497 1085 q 406 1120 433 1111 q 364 1129 379 1129 q 314 1111 346 1129 q 260 1075 282 1093 l 229 1181 q 290 1235 251 1207 q 363 1263 328 1263 q 422 1253 390 1263 q 484 1231 454 1243 q 540 1210 514 1219 q 581 1200 565 1200 q 628 1217 597 1200 q 683 1250 660 1235 l 714 1144 q 656 1092 693 1118 q 583 1065 618 1065 z "},"O":{"ha":922,"x_min":57,"x_max":865,"o":"m 461 -15 q 222 38 310 -15 q 95 200 133 92 q 57 471 57 308 q 95 744 57 635 q 222 910 133 854 q 461 965 310 965 q 701 910 613 965 q 827 744 789 854 q 865 471 865 635 q 827 197 865 306 q 701 37 789 89 q 461 -15 613 -15 m 461 146 q 594 181 549 146 q 654 290 639 217 q 669 471 669 363 q 653 653 669 579 q 593 766 638 728 q 461 804 549 804 q 330 766 375 804 q 268 653 285 728 q 251 471 251 579 q 267 292 251 364 q 328 183 283 219 q 461 146 374 146 z "},"Ó":{"ha":922,"x_min":57,"x_max":865,"o":"m 461 -15 q 222 38 310 -15 q 95 200 133 92 q 57 471 57 308 q 95 744 57 635 q 222 910 133 854 q 461 965 310 965 q 701 910 613 965 q 827 744 789 854 q 865 471 865 635 q 827 197 865 306 q 701 37 789 89 q 461 -15 613 -15 m 461 146 q 594 181 549 146 q 654 290 639 217 q 669 471 669 363 q 653 653 669 579 q 593 766 638 728 q 461 804 549 804 q 330 766 375 804 q 268 653 285 728 q 251 471 251 579 q 267 292 251 364 q 328 183 283 219 q 461 146 374 146 m 389 1044 l 279 1093 l 489 1250 l 638 1190 l 389 1044 z "},"Ŏ":{"ha":922,"x_min":57,"x_max":865,"o":"m 461 -15 q 222 38 310 -15 q 95 200 133 92 q 57 471 57 308 q 95 744 57 635 q 222 910 133 854 q 461 965 310 965 q 701 910 613 965 q 827 744 789 854 q 865 471 865 635 q 827 197 865 306 q 701 37 789 89 q 461 -15 613 -15 m 461 146 q 594 181 549 146 q 654 290 639 217 q 669 471 669 363 q 653 653 669 579 q 593 766 638 728 q 461 804 549 804 q 330 766 375 804 q 268 653 285 728 q 251 471 251 579 q 267 292 251 364 q 328 183 283 219 q 461 146 374 146 m 463 1051 q 340 1078 389 1051 q 267 1148 292 1104 q 242 1246 243 1192 l 365 1250 q 394 1188 368 1211 q 463 1164 421 1164 q 532 1188 506 1164 q 560 1250 558 1211 l 683 1246 q 657 1148 682 1192 q 584 1078 632 1104 q 463 1051 536 1051 z "},"Ô":{"ha":922,"x_min":57,"x_max":865,"o":"m 461 -15 q 222 38 310 -15 q 95 200 133 92 q 57 471 57 308 q 95 744 57 635 q 222 910 133 854 q 461 965 310 965 q 701 910 613 965 q 827 744 789 854 q 865 471 865 635 q 827 197 865 306 q 701 37 789 89 q 461 -15 613 -15 m 461 146 q 594 181 549 146 q 654 290 639 217 q 669 471 669 363 q 653 653 669 579 q 593 766 638 728 q 461 804 549 804 q 330 766 375 804 q 268 653 285 728 q 251 471 251 579 q 267 292 251 364 q 328 183 283 219 q 461 146 374 146 m 221 1057 l 389 1244 l 528 1244 l 703 1057 l 538 1057 l 461 1157 l 386 1057 l 221 1057 z "},"Ö":{"ha":922,"x_min":57,"x_max":865,"o":"m 461 -15 q 222 38 310 -15 q 95 200 133 92 q 57 471 57 308 q 95 744 57 635 q 222 910 133 854 q 461 965 310 965 q 701 910 613 965 q 827 744 789 854 q 865 471 865 635 q 827 197 865 306 q 701 37 789 89 q 461 -15 613 -15 m 461 146 q 594 181 549 146 q 654 290 639 217 q 669 471 669 363 q 653 653 669 579 q 593 766 638 728 q 461 804 549 804 q 330 766 375 804 q 268 653 285 728 q 251 471 251 579 q 267 292 251 364 q 328 183 283 219 q 461 146 374 146 m 528 1071 l 528 1225 l 678 1225 l 678 1071 l 528 1071 m 243 1071 l 243 1225 l 393 1225 l 393 1071 l 243 1071 z "},"Ò":{"ha":922,"x_min":57,"x_max":865,"o":"m 461 -15 q 222 38 310 -15 q 95 200 133 92 q 57 471 57 308 q 95 744 57 635 q 222 910 133 854 q 461 965 310 965 q 701 910 613 965 q 827 744 789 854 q 865 471 865 635 q 827 197 865 306 q 701 37 789 89 q 461 -15 613 -15 m 461 146 q 594 181 549 146 q 654 290 639 217 q 669 471 669 363 q 653 653 669 579 q 593 766 638 728 q 461 804 549 804 q 330 766 375 804 q 268 653 285 728 q 251 471 251 579 q 267 292 251 364 q 328 183 283 219 q 461 146 374 146 m 499 1044 l 254 1192 l 404 1250 l 610 1093 l 499 1044 z "},"Ő":{"ha":922,"x_min":57,"x_max":865,"o":"m 461 -15 q 222 38 310 -15 q 95 200 133 92 q 57 471 57 308 q 95 744 57 635 q 222 910 133 854 q 461 965 310 965 q 701 910 613 965 q 827 744 789 854 q 865 471 865 635 q 827 197 865 306 q 701 37 789 89 q 461 -15 613 -15 m 461 146 q 594 181 549 146 q 654 290 639 217 q 669 471 669 363 q 653 653 669 579 q 593 766 638 728 q 461 804 549 804 q 330 766 375 804 q 268 653 285 728 q 251 471 251 579 q 267 292 251 364 q 328 183 283 219 q 461 146 374 146 m 607 1024 l 493 1051 l 628 1239 l 778 1210 l 607 1024 m 324 1025 l 208 1053 l 344 1240 l 493 1210 l 324 1025 z "},"Ō":{"ha":922,"x_min":57,"x_max":865,"o":"m 461 -15 q 222 38 310 -15 q 95 200 133 92 q 57 471 57 308 q 95 744 57 635 q 222 910 133 854 q 461 965 310 965 q 701 910 613 965 q 827 744 789 854 q 865 471 865 635 q 827 197 865 306 q 701 37 789 89 q 461 -15 613 -15 m 461 146 q 594 181 549 146 q 654 290 639 217 q 669 471 669 363 q 653 653 669 579 q 593 766 638 728 q 461 804 549 804 q 330 766 375 804 q 268 653 285 728 q 251 471 251 579 q 267 292 251 364 q 328 183 283 219 q 461 146 374 146 m 240 1074 l 240 1199 l 679 1199 l 679 1074 l 240 1074 z "},"Ø":{"ha":922,"x_min":57,"x_max":865,"o":"m 424 442 l 413 585 l 757 1049 l 778 953 l 424 442 m 290 -128 l 126 -82 l 325 356 l 503 333 l 290 -128 m 461 -15 q 222 38 310 -15 q 95 200 133 92 q 57 471 57 308 q 95 744 57 635 q 222 910 133 854 q 461 965 310 965 q 701 910 613 965 q 827 744 789 854 q 865 471 865 635 q 827 197 865 306 q 701 37 789 89 q 461 -15 613 -15 m 461 146 q 594 181 549 146 q 654 290 639 217 q 669 471 669 363 q 653 653 669 579 q 593 766 638 728 q 461 804 549 804 q 330 766 375 804 q 268 653 285 728 q 251 471 251 579 q 267 292 251 364 q 328 183 283 219 q 461 146 374 146 z "},"Ǿ":{"ha":924,"x_min":57,"x_max":865,"o":"m 424 442 l 413 585 l 757 1049 l 778 953 l 424 442 m 290 -128 l 126 -82 l 325 356 l 503 333 l 290 -128 m 429 1086 l 318 1135 l 528 1292 l 676 1232 l 429 1086 m 461 -15 q 222 38 310 -15 q 95 200 133 92 q 57 471 57 308 q 95 744 57 635 q 222 910 133 854 q 461 965 310 965 q 701 910 613 965 q 827 744 789 854 q 865 471 865 635 q 827 197 865 306 q 701 37 789 89 q 461 -15 613 -15 m 461 146 q 594 181 549 146 q 654 290 639 217 q 669 471 669 363 q 653 653 669 579 q 593 766 638 728 q 461 804 549 804 q 330 766 375 804 q 268 653 285 728 q 251 471 251 579 q 267 292 251 364 q 328 183 283 219 q 461 146 374 146 z "},"Õ":{"ha":922,"x_min":57,"x_max":865,"o":"m 461 -15 q 222 38 310 -15 q 95 200 133 92 q 57 471 57 308 q 95 744 57 635 q 222 910 133 854 q 461 965 310 965 q 701 910 613 965 q 827 744 789 854 q 865 471 865 635 q 827 197 865 306 q 701 37 789 89 q 461 -15 613 -15 m 461 146 q 594 181 549 146 q 654 290 639 217 q 669 471 669 363 q 653 653 669 579 q 593 766 638 728 q 461 804 549 804 q 330 766 375 804 q 268 653 285 728 q 251 471 251 579 q 267 292 251 364 q 328 183 283 219 q 461 146 374 146 m 571 1065 q 515 1075 546 1065 q 453 1098 485 1085 q 394 1120 421 1111 q 351 1129 367 1129 q 301 1111 333 1129 q 247 1075 269 1093 l 217 1181 q 277 1235 239 1207 q 350 1263 315 1263 q 410 1253 378 1263 q 472 1231 442 1243 q 527 1210 501 1219 q 568 1200 553 1200 q 616 1217 585 1200 q 671 1250 647 1235 l 701 1144 q 643 1092 681 1118 q 571 1065 606 1065 z "},"Œ":{"ha":1263,"x_min":56,"x_max":1214,"o":"m 428 -15 q 198 40 279 -15 q 86 204 117 94 q 56 479 56 314 q 88 757 56 650 q 203 914 121 864 q 433 964 285 964 q 497 962 458 964 q 578 956 536 960 q 653 949 619 953 l 1214 949 l 1214 789 l 797 789 l 797 560 l 1131 560 l 1131 403 l 797 403 l 797 160 l 1214 160 l 1214 -1 l 657 -1 q 584 -8 626 -4 q 501 -13 542 -11 q 428 -15 460 -15 m 471 146 q 499 147 482 146 q 535 148 515 147 q 574 150 556 149 q 606 153 592 151 l 606 796 q 575 797 594 796 q 535 800 556 799 q 497 802 514 801 q 469 803 479 803 q 330 771 378 803 q 265 667 282 739 q 247 478 247 596 q 263 288 247 361 q 326 181 278 215 q 471 146 374 146 z "},"P":{"ha":833,"x_min":88,"x_max":797,"o":"m 88 0 l 88 949 l 444 949 q 640 916 563 949 q 758 811 718 883 q 797 618 797 739 q 758 422 797 497 q 640 310 718 346 q 444 275 563 275 l 279 275 l 279 0 l 88 0 m 279 432 l 439 432 q 564 478 526 432 q 601 617 601 525 q 564 751 601 711 q 439 792 526 792 l 279 792 l 279 432 z "},"Þ":{"ha":839,"x_min":88,"x_max":794,"o":"m 88 0 l 88 953 l 276 953 l 276 819 l 443 819 q 639 787 561 819 q 756 683 717 754 q 794 490 794 611 q 756 292 794 369 q 639 177 717 214 q 443 140 561 140 l 276 140 l 276 0 l 88 0 m 276 304 l 438 304 q 564 352 525 304 q 603 489 603 400 q 565 619 603 581 q 438 657 526 657 l 276 657 l 276 304 z "},"Q":{"ha":921,"x_min":57,"x_max":864,"o":"m 672 -210 l 546 -7 q 506 -13 528 -11 q 460 -15 483 -15 q 220 38 308 -15 q 94 199 132 90 q 57 471 57 307 q 94 745 57 636 q 220 910 132 854 q 460 965 308 965 q 699 910 611 965 q 826 746 788 856 q 864 471 864 636 q 831 208 864 313 q 715 49 797 103 l 831 -133 l 672 -210 m 460 146 q 592 181 547 146 q 652 290 636 217 q 668 471 668 363 q 652 652 668 578 q 591 765 636 726 q 460 804 546 804 q 328 765 374 804 q 266 653 283 726 q 249 471 249 579 q 265 291 249 364 q 327 182 282 218 q 460 146 372 146 z "},"R":{"ha":856,"x_min":88,"x_max":803,"o":"m 88 0 l 88 949 l 458 949 q 649 919 572 949 q 765 822 726 890 q 803 638 803 754 q 766 465 803 535 q 654 361 729 394 l 803 0 l 601 0 l 476 318 l 279 318 l 279 0 l 88 0 m 279 475 l 463 475 q 547 495 515 475 q 593 552 579 515 q 607 636 607 589 q 571 753 607 714 q 458 792 535 792 l 279 792 l 279 475 z "},"Ŕ":{"ha":856,"x_min":88,"x_max":803,"o":"m 88 0 l 88 949 l 458 949 q 649 919 572 949 q 765 822 726 890 q 803 638 803 754 q 766 465 803 535 q 654 361 729 394 l 803 0 l 601 0 l 476 318 l 279 318 l 279 0 l 88 0 m 279 475 l 463 475 q 547 495 515 475 q 593 552 579 515 q 607 636 607 589 q 571 753 607 714 q 458 792 535 792 l 279 792 l 279 475 m 369 1044 l 260 1093 l 469 1250 l 618 1190 l 369 1044 z "},"Ř":{"ha":856,"x_min":88,"x_max":803,"o":"m 88 0 l 88 949 l 458 949 q 649 919 572 949 q 765 822 726 890 q 803 638 803 754 q 766 465 803 535 q 654 361 729 394 l 803 0 l 601 0 l 476 318 l 279 318 l 279 0 l 88 0 m 279 475 l 463 475 q 547 495 515 475 q 593 552 579 515 q 607 636 607 589 q 571 753 607 714 q 458 792 535 792 l 279 792 l 279 475 m 333 1056 l 165 1244 l 329 1244 l 407 1144 l 482 1244 l 646 1244 l 472 1056 l 333 1056 z "},"Ŗ":{"ha":856,"x_min":88,"x_max":803,"o":"m 88 0 l 88 949 l 458 949 q 649 919 572 949 q 765 822 726 890 q 803 638 803 754 q 766 465 803 535 q 654 361 729 394 l 803 0 l 601 0 l 476 318 l 279 318 l 279 0 l 88 0 m 279 475 l 463 475 q 547 495 515 475 q 593 552 579 515 q 607 636 607 589 q 571 753 607 714 q 458 792 535 792 l 279 792 l 279 475 m 314 -451 l 361 -115 l 556 -115 l 471 -451 l 314 -451 z "},"S":{"ha":772,"x_min":50,"x_max":726,"o":"m 394 -15 q 279 -9 342 -15 q 158 6 217 -3 q 57 22 99 15 l 69 174 q 169 162 113 168 q 283 151 226 156 q 381 147 339 147 q 496 178 460 147 q 532 276 532 210 q 517 334 532 313 q 465 369 503 356 q 361 394 428 382 q 181 446 250 415 q 81 532 113 476 q 50 681 50 588 q 90 851 50 789 q 206 939 131 913 q 382 965 281 965 q 487 960 428 965 q 603 949 546 956 q 701 933 661 942 l 693 781 q 597 791 651 786 q 488 800 542 796 q 397 804 435 804 q 281 779 318 804 q 243 699 243 754 q 260 635 243 657 q 316 599 276 613 q 425 569 356 585 q 565 531 507 551 q 658 481 622 510 q 710 406 693 451 q 726 290 726 360 q 687 112 726 179 q 573 15 647 44 q 394 -15 499 -15 z "},"Ś":{"ha":772,"x_min":50,"x_max":726,"o":"m 394 -15 q 279 -9 342 -15 q 158 6 217 -3 q 57 22 99 15 l 69 174 q 169 162 113 168 q 283 151 226 156 q 381 147 339 147 q 496 178 460 147 q 532 276 532 210 q 517 334 532 313 q 465 369 503 356 q 361 394 428 382 q 181 446 250 415 q 81 532 113 476 q 50 681 50 588 q 90 851 50 789 q 206 939 131 913 q 382 965 281 965 q 487 960 428 965 q 603 949 546 956 q 701 933 661 942 l 693 781 q 597 791 651 786 q 488 800 542 796 q 397 804 435 804 q 281 779 318 804 q 243 699 243 754 q 260 635 243 657 q 316 599 276 613 q 425 569 356 585 q 565 531 507 551 q 658 481 622 510 q 710 406 693 451 q 726 290 726 360 q 687 112 726 179 q 573 15 647 44 q 394 -15 499 -15 m 336 1044 l 226 1093 l 436 1250 l 585 1190 l 336 1044 z "},"Š":{"ha":772,"x_min":50,"x_max":726,"o":"m 394 -15 q 279 -9 342 -15 q 158 6 217 -3 q 57 22 99 15 l 69 174 q 169 162 113 168 q 283 151 226 156 q 381 147 339 147 q 496 178 460 147 q 532 276 532 210 q 517 334 532 313 q 465 369 503 356 q 361 394 428 382 q 181 446 250 415 q 81 532 113 476 q 50 681 50 588 q 90 851 50 789 q 206 939 131 913 q 382 965 281 965 q 487 960 428 965 q 603 949 546 956 q 701 933 661 942 l 693 781 q 597 791 651 786 q 488 800 542 796 q 397 804 435 804 q 281 779 318 804 q 243 699 243 754 q 260 635 243 657 q 316 599 276 613 q 425 569 356 585 q 565 531 507 551 q 658 481 622 510 q 710 406 693 451 q 726 290 726 360 q 687 112 726 179 q 573 15 647 44 q 394 -15 499 -15 m 325 1056 l 157 1244 l 321 1244 l 399 1144 l 474 1244 l 638 1244 l 464 1056 l 325 1056 z "},"Ş":{"ha":772,"x_min":50,"x_max":726,"o":"m 394 -15 q 279 -9 342 -15 q 158 6 217 -3 q 57 22 99 15 l 69 174 q 169 162 113 168 q 283 151 226 156 q 381 147 339 147 q 496 178 460 147 q 532 276 532 210 q 517 334 532 313 q 465 369 503 356 q 361 394 428 382 q 181 446 250 415 q 81 532 113 476 q 50 681 50 588 q 90 851 50 789 q 206 939 131 913 q 382 965 281 965 q 487 960 428 965 q 603 949 546 956 q 701 933 661 942 l 693 781 q 597 791 651 786 q 488 800 542 796 q 397 804 435 804 q 281 779 318 804 q 243 699 243 754 q 260 635 243 657 q 316 599 276 613 q 425 569 356 585 q 565 531 507 551 q 658 481 622 510 q 710 406 693 451 q 726 290 726 360 q 687 112 726 179 q 573 15 647 44 q 394 -15 499 -15 m 435 -310 q 355 -306 394 -310 q 293 -297 315 -303 l 297 -214 q 334 -216 306 -215 q 379 -217 363 -217 q 422 -206 408 -217 q 436 -174 436 -196 q 422 -142 436 -150 q 379 -135 408 -135 l 339 -135 l 339 7 l 414 7 l 414 -58 q 542 -81 501 -60 q 583 -174 583 -103 q 544 -278 583 -246 q 435 -310 504 -310 z "},"Ŝ":{"ha":772,"x_min":50,"x_max":726,"o":"m 394 -15 q 279 -9 342 -15 q 158 6 217 -3 q 57 22 99 15 l 69 174 q 169 162 113 168 q 283 151 226 156 q 381 147 339 147 q 496 178 460 147 q 532 276 532 210 q 517 334 532 313 q 465 369 503 356 q 361 394 428 382 q 181 446 250 415 q 81 532 113 476 q 50 681 50 588 q 90 851 50 789 q 206 939 131 913 q 382 965 281 965 q 487 960 428 965 q 603 949 546 956 q 701 933 661 942 l 693 781 q 597 791 651 786 q 488 800 542 796 q 397 804 435 804 q 281 779 318 804 q 243 699 243 754 q 260 635 243 657 q 316 599 276 613 q 425 569 356 585 q 565 531 507 551 q 658 481 622 510 q 710 406 693 451 q 726 290 726 360 q 687 112 726 179 q 573 15 647 44 q 394 -15 499 -15 m 151 1054 l 319 1242 l 458 1242 l 633 1054 l 468 1054 l 392 1154 l 317 1054 l 151 1054 z "},"Ș":{"ha":772,"x_min":50,"x_max":726,"o":"m 274 -383 l 318 -90 l 493 -90 l 418 -383 l 274 -383 m 394 -15 q 279 -9 342 -15 q 158 6 217 -3 q 57 22 99 15 l 69 174 q 169 162 113 168 q 283 151 226 156 q 381 147 339 147 q 496 178 460 147 q 532 276 532 210 q 517 334 532 313 q 465 369 503 356 q 361 394 428 382 q 181 446 250 415 q 81 532 113 476 q 50 681 50 588 q 90 851 50 789 q 206 939 131 913 q 382 965 281 965 q 487 960 428 965 q 603 949 546 956 q 701 933 661 942 l 693 781 q 597 791 651 786 q 488 800 542 796 q 397 804 435 804 q 281 779 318 804 q 243 699 243 754 q 260 635 243 657 q 316 599 276 613 q 425 569 356 585 q 565 531 507 551 q 658 481 622 510 q 710 406 693 451 q 726 290 726 360 q 687 112 726 179 q 573 15 647 44 q 394 -15 499 -15 z "},"T":{"ha":726,"x_min":15,"x_max":710,"o":"m 271 0 l 271 786 l 15 786 l 15 949 l 710 949 l 710 786 l 463 786 l 463 0 l 271 0 z "},"Ŧ":{"ha":729,"x_min":18,"x_max":713,"o":"m 108 357 l 108 488 l 628 488 l 628 357 l 108 357 m 272 0 l 272 786 l 18 786 l 18 949 l 713 949 l 713 786 l 464 786 l 464 0 l 272 0 z "},"Ť":{"ha":726,"x_min":15,"x_max":710,"o":"m 271 0 l 271 786 l 15 786 l 15 949 l 710 949 l 710 786 l 463 786 l 463 0 l 271 0 m 292 1056 l 124 1244 l 288 1244 l 365 1144 l 440 1244 l 604 1244 l 431 1056 l 292 1056 z "},"Ţ":{"ha":726,"x_min":15,"x_max":710,"o":"m 271 0 l 271 786 l 15 786 l 15 949 l 710 949 l 710 786 l 463 786 l 463 0 l 271 0 m 424 -310 q 344 -306 383 -310 q 282 -297 304 -303 l 286 -214 q 323 -216 294 -215 q 368 -217 351 -217 q 411 -206 397 -217 q 425 -174 425 -196 q 411 -142 425 -150 q 368 -135 397 -135 l 328 -135 l 328 7 l 403 7 l 403 -58 q 531 -81 490 -60 q 572 -174 572 -103 q 533 -278 572 -246 q 424 -310 493 -310 z "},"Ț":{"ha":726,"x_min":15,"x_max":710,"o":"m 250 -383 l 296 -90 l 469 -90 l 394 -383 l 250 -383 m 271 0 l 271 786 l 15 786 l 15 949 l 710 949 l 710 786 l 463 786 l 463 0 l 271 0 z "},"U":{"ha":893,"x_min":82,"x_max":813,"o":"m 444 -15 q 247 15 328 -15 q 124 117 165 46 q 82 308 82 189 l 82 949 l 274 949 l 274 301 q 317 183 274 219 q 444 147 361 147 q 576 183 532 147 q 621 301 621 219 l 621 949 l 813 949 l 813 311 q 770 119 813 192 q 647 16 728 47 q 444 -15 565 -15 z "},"Ú":{"ha":893,"x_min":82,"x_max":813,"o":"m 444 -15 q 247 15 328 -15 q 124 117 165 46 q 82 308 82 189 l 82 949 l 274 949 l 274 301 q 317 183 274 219 q 444 147 361 147 q 576 183 532 147 q 621 301 621 219 l 621 949 l 813 949 l 813 311 q 770 119 813 192 q 647 16 728 47 q 444 -15 565 -15 m 381 1044 l 271 1093 l 481 1250 l 629 1190 l 381 1044 z "},"Ŭ":{"ha":893,"x_min":82,"x_max":813,"o":"m 444 -15 q 247 15 328 -15 q 124 117 165 46 q 82 308 82 189 l 82 949 l 274 949 l 274 301 q 317 183 274 219 q 444 147 361 147 q 576 183 532 147 q 621 301 621 219 l 621 949 l 813 949 l 813 311 q 770 119 813 192 q 647 16 728 47 q 444 -15 565 -15 m 449 1051 q 326 1078 375 1051 q 253 1148 278 1104 q 228 1246 229 1192 l 351 1250 q 381 1188 354 1211 q 449 1164 407 1164 q 518 1188 492 1164 q 546 1250 544 1211 l 669 1246 q 643 1148 668 1192 q 570 1078 618 1104 q 449 1051 522 1051 z "},"Û":{"ha":890,"x_min":82,"x_max":813,"o":"m 444 -15 q 247 15 328 -15 q 124 117 165 46 q 82 308 82 189 l 82 949 l 274 949 l 274 301 q 317 183 274 219 q 444 147 361 147 q 576 183 532 147 q 621 301 621 219 l 621 949 l 813 949 l 813 311 q 770 119 813 192 q 647 16 728 47 q 444 -15 565 -15 m 204 1057 l 372 1244 l 511 1244 l 686 1057 l 521 1057 l 444 1157 l 369 1057 l 204 1057 z "},"Ü":{"ha":893,"x_min":82,"x_max":813,"o":"m 444 -15 q 247 15 328 -15 q 124 117 165 46 q 82 308 82 189 l 82 949 l 274 949 l 274 301 q 317 183 274 219 q 444 147 361 147 q 576 183 532 147 q 621 301 621 219 l 621 949 l 813 949 l 813 311 q 770 119 813 192 q 647 16 728 47 q 444 -15 565 -15 m 514 1071 l 514 1225 l 664 1225 l 664 1071 l 514 1071 m 229 1071 l 229 1225 l 379 1225 l 379 1071 l 229 1071 z "},"Ù":{"ha":890,"x_min":82,"x_max":813,"o":"m 444 -15 q 247 15 328 -15 q 124 117 165 46 q 82 308 82 189 l 82 949 l 274 949 l 274 301 q 317 183 274 219 q 444 147 361 147 q 576 183 532 147 q 621 301 621 219 l 621 949 l 813 949 l 813 311 q 770 119 813 192 q 647 16 728 47 q 444 -15 565 -15 m 503 1044 l 258 1192 l 408 1250 l 614 1093 l 503 1044 z "},"Ű":{"ha":893,"x_min":82,"x_max":813,"o":"m 444 -15 q 247 15 328 -15 q 124 117 165 46 q 82 308 82 189 l 82 949 l 274 949 l 274 301 q 317 183 274 219 q 444 147 361 147 q 576 183 532 147 q 621 301 621 219 l 621 949 l 813 949 l 813 311 q 770 119 813 192 q 647 16 728 47 q 444 -15 565 -15 m 592 1024 l 478 1051 l 613 1239 l 763 1210 l 592 1024 m 308 1025 l 193 1053 l 329 1240 l 478 1210 l 308 1025 z "},"Ū":{"ha":893,"x_min":82,"x_max":813,"o":"m 444 -15 q 247 15 328 -15 q 124 117 165 46 q 82 308 82 189 l 82 949 l 274 949 l 274 301 q 317 183 274 219 q 444 147 361 147 q 576 183 532 147 q 621 301 621 219 l 621 949 l 813 949 l 813 311 q 770 119 813 192 q 647 16 728 47 q 444 -15 565 -15 m 229 1074 l 229 1199 l 668 1199 l 668 1074 l 229 1074 z "},"Ų":{"ha":893,"x_min":82,"x_max":813,"o":"m 444 -15 q 247 15 328 -15 q 124 117 165 46 q 82 308 82 189 l 82 949 l 274 949 l 274 301 q 317 183 274 219 q 444 147 361 147 q 576 183 532 147 q 621 301 621 219 l 621 949 l 813 949 l 813 311 q 770 119 813 192 q 647 16 728 47 q 444 -15 565 -15 m 476 -294 q 389 -278 426 -294 q 332 -232 351 -261 q 313 -161 313 -203 q 333 -85 313 -121 q 385 -22 354 -50 q 447 24 417 6 l 588 8 q 538 -41 561 -15 q 501 -92 515 -67 q 488 -136 488 -117 q 499 -167 488 -156 q 533 -179 510 -179 q 567 -176 547 -179 q 600 -172 586 -174 l 615 -279 q 552 -289 590 -283 q 476 -294 514 -294 z "},"Ů":{"ha":893,"x_min":82,"x_max":813,"o":"m 444 -15 q 247 15 328 -15 q 124 117 165 46 q 82 308 82 189 l 82 949 l 274 949 l 274 301 q 317 183 274 219 q 444 147 361 147 q 576 183 532 147 q 621 301 621 219 l 621 949 l 813 949 l 813 311 q 770 119 813 192 q 647 16 728 47 q 444 -15 565 -15 m 450 1006 q 324 1042 374 1006 q 274 1149 274 1078 q 324 1255 274 1219 q 450 1290 374 1290 q 574 1255 524 1290 q 624 1149 624 1219 q 574 1042 624 1079 q 450 1006 525 1006 m 450 1090 q 499 1106 481 1090 q 518 1149 518 1121 q 499 1190 518 1176 q 450 1204 481 1204 q 399 1190 418 1204 q 381 1149 381 1176 q 399 1106 381 1121 q 450 1090 418 1090 z "},"Ũ":{"ha":893,"x_min":82,"x_max":813,"o":"m 444 -15 q 247 15 328 -15 q 124 117 165 46 q 82 308 82 189 l 82 949 l 274 949 l 274 301 q 317 183 274 219 q 444 147 361 147 q 576 183 532 147 q 621 301 621 219 l 621 949 l 813 949 l 813 311 q 770 119 813 192 q 647 16 728 47 q 444 -15 565 -15 m 557 1065 q 501 1075 532 1065 q 439 1098 471 1085 q 380 1120 407 1111 q 338 1129 353 1129 q 288 1111 319 1129 q 233 1075 256 1093 l 203 1181 q 263 1235 225 1207 q 336 1263 301 1263 q 396 1253 364 1263 q 458 1231 428 1243 q 513 1210 488 1219 q 554 1200 539 1200 q 602 1217 571 1200 q 657 1250 633 1235 l 688 1144 q 629 1092 667 1118 q 557 1065 592 1065 z "},"V":{"ha":818,"x_min":17,"x_max":799,"o":"m 243 0 l 17 949 l 218 949 l 381 185 l 438 185 l 597 949 l 799 949 l 576 0 l 243 0 z "},"W":{"ha":1247,"x_min":29,"x_max":1217,"o":"m 190 0 l 29 949 l 222 949 l 339 185 l 372 185 l 517 939 l 732 939 l 879 185 l 913 185 l 1022 949 l 1217 949 l 1058 0 l 754 0 l 619 753 l 626 753 l 490 0 l 190 0 z "},"Ẃ":{"ha":1247,"x_min":29,"x_max":1217,"o":"m 190 0 l 29 949 l 222 949 l 339 185 l 372 185 l 517 939 l 732 939 l 879 185 l 913 185 l 1022 949 l 1217 949 l 1058 0 l 754 0 l 619 753 l 626 753 l 490 0 l 190 0 m 574 1044 l 464 1093 l 674 1250 l 822 1190 l 574 1044 z "},"Ŵ":{"ha":1247,"x_min":29,"x_max":1217,"o":"m 190 0 l 29 949 l 222 949 l 339 185 l 372 185 l 517 939 l 732 939 l 879 185 l 913 185 l 1022 949 l 1217 949 l 1058 0 l 754 0 l 619 753 l 626 753 l 490 0 l 190 0 m 383 1054 l 551 1242 l 690 1242 l 865 1054 l 700 1054 l 624 1154 l 549 1054 l 383 1054 z "},"Ẅ":{"ha":1247,"x_min":29,"x_max":1217,"o":"m 190 0 l 29 949 l 222 949 l 339 185 l 372 185 l 517 939 l 732 939 l 879 185 l 913 185 l 1022 949 l 1217 949 l 1058 0 l 754 0 l 619 753 l 626 753 l 490 0 l 190 0 m 690 1071 l 690 1225 l 840 1225 l 840 1071 l 690 1071 m 406 1071 l 406 1225 l 556 1225 l 556 1071 l 406 1071 z "},"Ẁ":{"ha":1247,"x_min":29,"x_max":1217,"o":"m 190 0 l 29 949 l 222 949 l 339 185 l 372 185 l 517 939 l 732 939 l 879 185 l 913 185 l 1022 949 l 1217 949 l 1058 0 l 754 0 l 619 753 l 626 753 l 490 0 l 190 0 m 678 1044 l 433 1192 l 583 1250 l 789 1093 l 678 1044 z "},"X":{"ha":789,"x_min":11,"x_max":781,"o":"m 11 0 l 269 461 l 11 949 l 214 949 l 394 600 l 585 949 l 781 949 l 521 479 l 775 0 l 571 0 l 393 339 l 210 0 l 11 0 z "},"Y":{"ha":775,"x_min":1,"x_max":775,"o":"m 292 0 l 292 360 l 1 949 l 210 949 l 388 568 l 568 949 l 775 949 l 483 360 l 483 0 l 292 0 z "},"Ý":{"ha":775,"x_min":1,"x_max":775,"o":"m 292 0 l 292 360 l 1 949 l 210 949 l 388 568 l 568 949 l 775 949 l 483 360 l 483 0 l 292 0 m 357 1044 l 247 1093 l 457 1250 l 606 1190 l 357 1044 z "},"Ŷ":{"ha":775,"x_min":1,"x_max":775,"o":"m 292 0 l 292 360 l 1 949 l 210 949 l 388 568 l 568 949 l 775 949 l 483 360 l 483 0 l 292 0 m 149 1057 l 317 1244 l 456 1244 l 631 1057 l 465 1057 l 389 1157 l 314 1057 l 149 1057 z "},"Ÿ":{"ha":775,"x_min":1,"x_max":775,"o":"m 292 0 l 292 360 l 1 949 l 210 949 l 388 568 l 568 949 l 775 949 l 483 360 l 483 0 l 292 0 m 454 1071 l 454 1225 l 604 1225 l 604 1071 l 454 1071 m 169 1071 l 169 1225 l 319 1225 l 319 1071 l 169 1071 z "},"Ỳ":{"ha":775,"x_min":1,"x_max":775,"o":"m 292 0 l 292 360 l 1 949 l 210 949 l 388 568 l 568 949 l 775 949 l 483 360 l 483 0 l 292 0 m 433 1044 l 189 1192 l 339 1250 l 544 1093 l 433 1044 z "},"Z":{"ha":763,"x_min":47,"x_max":714,"o":"m 47 -1 l 47 172 l 471 760 l 471 788 l 47 788 l 47 949 l 714 949 l 714 771 l 292 188 l 292 161 l 714 161 l 714 -1 l 47 -1 z "},"Ź":{"ha":763,"x_min":47,"x_max":714,"o":"m 47 -1 l 47 172 l 471 760 l 471 788 l 47 788 l 47 949 l 714 949 l 714 771 l 292 188 l 292 161 l 714 161 l 714 -1 l 47 -1 m 322 1044 l 213 1093 l 422 1250 l 571 1190 l 322 1044 z "},"Ž":{"ha":763,"x_min":47,"x_max":714,"o":"m 47 -1 l 47 172 l 471 760 l 471 788 l 47 788 l 47 949 l 714 949 l 714 771 l 292 188 l 292 161 l 714 161 l 714 -1 l 47 -1 m 325 1056 l 157 1244 l 321 1244 l 399 1144 l 474 1244 l 638 1244 l 464 1056 l 325 1056 z "},"Ż":{"ha":763,"x_min":47,"x_max":714,"o":"m 47 -1 l 47 172 l 471 760 l 471 788 l 47 788 l 47 949 l 714 949 l 714 771 l 292 188 l 292 161 l 714 161 l 714 -1 l 47 -1 m 299 1064 l 299 1217 l 461 1217 l 461 1064 l 299 1064 z "},"Ằ":{"ha":849,"x_min":17,"x_max":833,"o":"m 425 1022 q 303 1049 351 1022 q 230 1119 254 1075 q 204 1217 206 1163 l 328 1221 q 357 1158 331 1182 q 425 1135 383 1135 q 494 1158 468 1135 q 522 1221 521 1182 l 646 1217 q 619 1119 644 1163 q 547 1049 594 1075 q 425 1022 499 1022 m 524 1274 l 228 1375 l 333 1515 l 606 1378 l 524 1274 m 17 0 l 258 949 l 593 949 l 833 0 l 642 0 l 589 192 l 257 192 l 207 0 l 17 0 m 288 346 l 561 346 l 454 793 l 396 793 l 288 346 z "},"Ỹ":{"ha":769,"x_min":-1,"x_max":774,"o":"m 482 1071 q 432 1080 460 1071 q 376 1101 404 1089 q 324 1124 349 1114 q 283 1133 300 1133 q 233 1115 264 1133 q 178 1078 201 1096 l 147 1182 q 210 1235 171 1208 q 282 1261 249 1261 q 335 1251 307 1261 q 390 1230 363 1242 q 440 1208 417 1218 q 479 1199 464 1199 q 528 1217 496 1199 q 582 1253 560 1235 l 614 1147 q 554 1097 592 1124 q 482 1071 517 1071 m 289 0 l 289 360 l -1 949 l 207 949 l 385 568 l 565 949 l 772 949 l 481 360 l 481 0 l 289 0 z "},"a":{"ha":726,"x_min":40,"x_max":703,"o":"m 258 -15 q 95 40 150 -15 q 40 206 40 94 q 68 327 40 283 q 151 391 96 371 q 285 415 206 411 l 454 431 l 454 472 q 429 542 454 522 q 356 563 404 563 q 266 560 317 563 q 166 553 215 557 q 81 544 117 549 l 75 675 q 162 692 111 683 q 268 707 213 701 q 371 713 324 713 q 519 690 460 713 q 610 617 579 668 q 640 481 640 567 l 640 163 q 661 133 643 143 q 703 118 679 122 l 699 -10 q 633 -11 665 -11 q 579 -7 601 -11 q 524 10 547 -3 q 488 36 501 22 q 428 14 465 26 q 347 -7 390 1 q 258 -15 303 -15 m 303 122 q 358 128 329 122 q 413 141 388 133 q 454 156 439 149 l 454 315 l 313 303 q 247 276 267 299 q 226 211 226 253 q 245 146 226 169 q 303 122 264 122 z "},"á":{"ha":726,"x_min":40,"x_max":703,"o":"m 258 -15 q 95 40 150 -15 q 40 206 40 94 q 68 327 40 283 q 151 391 96 371 q 285 415 206 411 l 454 431 l 454 472 q 429 542 454 522 q 356 563 404 563 q 266 560 317 563 q 166 553 215 557 q 81 544 117 549 l 75 675 q 162 692 111 683 q 268 707 213 701 q 371 713 324 713 q 519 690 460 713 q 610 617 579 668 q 640 481 640 567 l 640 163 q 661 133 643 143 q 703 118 679 122 l 699 -10 q 633 -11 665 -11 q 579 -7 601 -11 q 524 10 547 -3 q 488 36 501 22 q 428 14 465 26 q 347 -7 390 1 q 258 -15 303 -15 m 303 122 q 358 128 329 122 q 413 141 388 133 q 454 156 439 149 l 454 315 l 313 303 q 247 276 267 299 q 226 211 226 253 q 245 146 226 169 q 303 122 264 122 m 242 801 l 161 906 l 432 1043 l 538 903 l 242 801 z "},"ă":{"ha":726,"x_min":40,"x_max":703,"o":"m 258 -15 q 95 40 150 -15 q 40 206 40 94 q 68 327 40 283 q 151 391 96 371 q 285 415 206 411 l 454 431 l 454 472 q 429 542 454 522 q 356 563 404 563 q 266 560 317 563 q 166 553 215 557 q 81 544 117 549 l 75 675 q 162 692 111 683 q 268 707 213 701 q 371 713 324 713 q 519 690 460 713 q 610 617 579 668 q 640 481 640 567 l 640 163 q 661 133 643 143 q 703 118 679 122 l 699 -10 q 633 -11 665 -11 q 579 -7 601 -11 q 524 10 547 -3 q 488 36 501 22 q 428 14 465 26 q 347 -7 390 1 q 258 -15 303 -15 m 303 122 q 358 128 329 122 q 413 141 388 133 q 454 156 439 149 l 454 315 l 313 303 q 247 276 267 299 q 226 211 226 253 q 245 146 226 169 q 303 122 264 122 m 360 797 q 241 826 288 797 q 172 902 194 856 q 147 1003 150 949 l 264 1008 q 291 940 267 967 q 360 913 315 913 q 431 940 407 913 q 457 1008 456 967 l 574 1003 q 549 902 571 949 q 481 826 526 856 q 360 797 435 797 z "},"â":{"ha":726,"x_min":40,"x_max":703,"o":"m 258 -15 q 95 40 150 -15 q 40 206 40 94 q 68 327 40 283 q 151 391 96 371 q 285 415 206 411 l 454 431 l 454 472 q 429 542 454 522 q 356 563 404 563 q 266 560 317 563 q 166 553 215 557 q 81 544 117 549 l 75 675 q 162 692 111 683 q 268 707 213 701 q 371 713 324 713 q 519 690 460 713 q 610 617 579 668 q 640 481 640 567 l 640 163 q 661 133 643 143 q 703 118 679 122 l 699 -10 q 633 -11 665 -11 q 579 -7 601 -11 q 524 10 547 -3 q 488 36 501 22 q 428 14 465 26 q 347 -7 390 1 q 258 -15 303 -15 m 303 122 q 358 128 329 122 q 413 141 388 133 q 454 156 439 149 l 454 315 l 313 303 q 247 276 267 299 q 226 211 226 253 q 245 146 226 169 q 303 122 264 122 m 133 803 l 288 1013 l 417 1013 l 578 803 l 425 803 l 356 915 l 288 803 l 133 803 z "},"ä":{"ha":726,"x_min":40,"x_max":703,"o":"m 258 -15 q 95 40 150 -15 q 40 206 40 94 q 68 327 40 283 q 151 391 96 371 q 285 415 206 411 l 454 431 l 454 472 q 429 542 454 522 q 356 563 404 563 q 266 560 317 563 q 166 553 215 557 q 81 544 117 549 l 75 675 q 162 692 111 683 q 268 707 213 701 q 371 713 324 713 q 519 690 460 713 q 610 617 579 668 q 640 481 640 567 l 640 163 q 661 133 643 143 q 703 118 679 122 l 699 -10 q 633 -11 665 -11 q 579 -7 601 -11 q 524 10 547 -3 q 488 36 501 22 q 428 14 465 26 q 347 -7 390 1 q 258 -15 303 -15 m 303 122 q 358 128 329 122 q 413 141 388 133 q 454 156 439 149 l 454 315 l 313 303 q 247 276 267 299 q 226 211 226 253 q 245 146 226 169 q 303 122 264 122 m 440 829 l 440 989 l 592 989 l 592 829 l 440 829 m 156 829 l 156 989 l 307 989 l 307 829 l 156 829 z "},"à":{"ha":726,"x_min":40,"x_max":703,"o":"m 258 -15 q 95 40 150 -15 q 40 206 40 94 q 68 327 40 283 q 151 391 96 371 q 285 415 206 411 l 454 431 l 454 472 q 429 542 454 522 q 356 563 404 563 q 266 560 317 563 q 166 553 215 557 q 81 544 117 549 l 75 675 q 162 692 111 683 q 268 707 213 701 q 371 713 324 713 q 519 690 460 713 q 610 617 579 668 q 640 481 640 567 l 640 163 q 661 133 643 143 q 703 118 679 122 l 699 -10 q 633 -11 665 -11 q 579 -7 601 -11 q 524 10 547 -3 q 488 36 501 22 q 428 14 465 26 q 347 -7 390 1 q 258 -15 303 -15 m 303 122 q 358 128 329 122 q 413 141 388 133 q 454 156 439 149 l 454 315 l 313 303 q 247 276 267 299 q 226 211 226 253 q 245 146 226 169 q 303 122 264 122 m 447 801 l 151 903 l 257 1043 l 529 906 l 447 801 z "},"ā":{"ha":726,"x_min":40,"x_max":703,"o":"m 258 -15 q 95 40 150 -15 q 40 206 40 94 q 68 327 40 283 q 151 391 96 371 q 285 415 206 411 l 454 431 l 454 472 q 429 542 454 522 q 356 563 404 563 q 266 560 317 563 q 166 553 215 557 q 81 544 117 549 l 75 675 q 162 692 111 683 q 268 707 213 701 q 371 713 324 713 q 519 690 460 713 q 610 617 579 668 q 640 481 640 567 l 640 163 q 661 133 643 143 q 703 118 679 122 l 699 -10 q 633 -11 665 -11 q 579 -7 601 -11 q 524 10 547 -3 q 488 36 501 22 q 428 14 465 26 q 347 -7 390 1 q 258 -15 303 -15 m 303 122 q 358 128 329 122 q 413 141 388 133 q 454 156 439 149 l 454 315 l 313 303 q 247 276 267 299 q 226 211 226 253 q 245 146 226 169 q 303 122 264 122 m 156 833 l 156 963 l 567 963 l 567 833 l 156 833 z "},"ą":{"ha":726,"x_min":40,"x_max":703,"o":"m 258 -15 q 95 40 150 -15 q 40 206 40 94 q 68 327 40 283 q 151 391 96 371 q 285 415 206 411 l 454 431 l 454 472 q 429 542 454 522 q 356 563 404 563 q 266 560 317 563 q 166 553 215 557 q 81 544 117 549 l 75 675 q 162 692 111 683 q 268 707 213 701 q 371 713 324 713 q 519 690 460 713 q 610 617 579 668 q 640 481 640 567 l 640 163 q 661 133 643 143 q 703 118 679 122 l 699 -10 q 633 -11 665 -11 q 579 -7 601 -11 q 524 10 547 -3 q 488 36 501 22 q 428 14 465 26 q 347 -7 390 1 q 258 -15 303 -15 m 303 122 q 358 128 329 122 q 413 141 388 133 q 454 156 439 149 l 454 315 l 313 303 q 247 276 267 299 q 226 211 226 253 q 245 146 226 169 q 303 122 264 122 m 564 -294 q 476 -278 514 -294 q 419 -232 439 -261 q 400 -161 400 -203 q 421 -85 400 -121 q 473 -22 442 -50 q 535 24 504 6 l 675 8 q 626 -41 649 -15 q 589 -92 603 -67 q 575 -136 575 -117 q 586 -167 575 -156 q 621 -179 597 -179 q 654 -176 635 -179 q 688 -172 674 -174 l 703 -279 q 640 -289 678 -283 q 564 -294 601 -294 z "},"å":{"ha":726,"x_min":40,"x_max":703,"o":"m 258 -15 q 95 40 150 -15 q 40 206 40 94 q 68 327 40 283 q 151 391 96 371 q 285 415 206 411 l 454 431 l 454 472 q 429 542 454 522 q 356 563 404 563 q 266 560 317 563 q 166 553 215 557 q 81 544 117 549 l 75 675 q 162 692 111 683 q 268 707 213 701 q 371 713 324 713 q 519 690 460 713 q 610 617 579 668 q 640 481 640 567 l 640 163 q 661 133 643 143 q 703 118 679 122 l 699 -10 q 633 -11 665 -11 q 579 -7 601 -11 q 524 10 547 -3 q 488 36 501 22 q 428 14 465 26 q 347 -7 390 1 q 258 -15 303 -15 m 303 122 q 358 128 329 122 q 413 141 388 133 q 454 156 439 149 l 454 315 l 313 303 q 247 276 267 299 q 226 211 226 253 q 245 146 226 169 q 303 122 264 122 m 365 751 q 250 790 296 751 q 204 894 204 828 q 250 998 204 960 q 365 1036 296 1036 q 481 998 435 1036 q 526 894 526 960 q 481 791 526 831 q 365 751 436 751 m 367 835 q 411 851 393 835 q 429 894 429 868 q 411 936 429 919 q 367 953 393 953 q 322 936 340 953 q 303 894 303 919 q 322 851 303 868 q 367 835 340 835 z "},"ǻ":{"ha":726,"x_min":40,"x_max":703,"o":"m 258 -15 q 95 40 150 -15 q 40 206 40 94 q 68 327 40 283 q 151 391 96 371 q 285 415 206 411 l 454 431 l 454 472 q 429 542 454 522 q 356 563 404 563 q 266 560 317 563 q 166 553 215 557 q 81 544 117 549 l 75 675 q 162 692 111 683 q 268 707 213 701 q 371 713 324 713 q 519 690 460 713 q 610 617 579 668 q 640 481 640 567 l 640 163 q 661 133 643 143 q 703 118 679 122 l 699 -10 q 633 -11 665 -11 q 579 -7 601 -11 q 524 10 547 -3 q 488 36 501 22 q 428 14 465 26 q 347 -7 390 1 q 258 -15 303 -15 m 303 122 q 358 128 329 122 q 413 141 388 133 q 454 156 439 149 l 454 315 l 313 303 q 247 276 267 299 q 226 211 226 253 q 245 146 226 169 q 303 122 264 122 m 356 749 q 240 787 286 749 q 194 892 194 825 q 240 995 194 957 q 356 1033 286 1033 q 471 995 425 1033 q 517 892 517 957 q 472 788 517 828 q 356 749 426 749 m 357 832 q 401 849 383 832 q 419 892 419 865 q 401 933 419 917 q 357 950 383 950 q 312 933 331 950 q 293 892 293 917 q 312 849 293 865 q 357 832 331 832 m 257 1064 l 176 1168 l 447 1306 l 553 1165 l 257 1064 z "},"ã":{"ha":726,"x_min":40,"x_max":703,"o":"m 258 -15 q 95 40 150 -15 q 40 206 40 94 q 68 327 40 283 q 151 391 96 371 q 285 415 206 411 l 454 431 l 454 472 q 429 542 454 522 q 356 563 404 563 q 266 560 317 563 q 166 553 215 557 q 81 544 117 549 l 75 675 q 162 692 111 683 q 268 707 213 701 q 371 713 324 713 q 519 690 460 713 q 610 617 579 668 q 640 481 640 567 l 640 163 q 661 133 643 143 q 703 118 679 122 l 699 -10 q 633 -11 665 -11 q 579 -7 601 -11 q 524 10 547 -3 q 488 36 501 22 q 428 14 465 26 q 347 -7 390 1 q 258 -15 303 -15 m 303 122 q 358 128 329 122 q 413 141 388 133 q 454 156 439 149 l 454 315 l 313 303 q 247 276 267 299 q 226 211 226 253 q 245 146 226 169 q 303 122 264 122 m 450 815 q 400 824 428 815 q 344 846 372 833 q 292 868 317 858 q 251 878 268 878 q 201 859 232 878 q 146 822 169 840 l 115 926 q 178 979 139 953 q 250 1006 217 1006 q 303 996 275 1006 q 358 974 331 986 q 408 953 385 963 q 447 943 432 943 q 496 961 464 943 q 550 997 528 979 l 582 892 q 522 842 560 868 q 450 815 485 815 z "},"æ":{"ha":1118,"x_min":40,"x_max":1072,"o":"m 251 -15 q 95 40 150 -15 q 40 206 40 96 q 69 333 40 290 q 158 394 99 376 q 306 419 217 413 l 451 431 l 451 471 q 426 535 451 515 q 356 556 401 556 q 265 553 315 556 q 166 548 214 551 q 82 540 118 544 l 76 681 q 165 695 114 688 q 271 708 217 703 q 371 713 325 713 q 488 694 440 713 q 561 638 535 676 q 647 695 597 678 q 760 713 697 713 q 994 635 915 713 q 1072 389 1072 557 l 1063 286 l 628 286 q 658 172 628 210 q 765 133 689 133 q 859 135 807 133 q 961 140 911 138 q 1047 146 1011 143 l 1051 14 q 965 1 1017 8 q 855 -10 913 -6 q 749 -15 797 -15 q 628 1 678 -15 q 546 49 578 18 q 454 16 501 31 q 356 -7 407 1 q 251 -15 306 -15 m 294 125 q 345 129 318 125 q 396 140 372 133 q 438 153 419 147 q 465 163 457 158 q 453 232 457 190 q 450 311 450 274 l 308 300 q 244 275 265 296 q 224 211 224 254 q 242 147 224 168 q 294 125 260 125 m 628 404 l 888 404 q 857 533 888 496 q 760 569 826 569 q 660 531 693 569 q 628 404 628 493 z "},"ǽ":{"ha":1118,"x_min":40,"x_max":1072,"o":"m 251 -15 q 95 40 150 -15 q 40 206 40 96 q 69 333 40 290 q 158 394 99 376 q 306 419 217 413 l 451 431 l 451 471 q 426 535 451 515 q 356 556 401 556 q 265 553 315 556 q 166 548 214 551 q 82 540 118 544 l 76 681 q 165 695 114 688 q 271 708 217 703 q 371 713 325 713 q 488 694 440 713 q 561 638 535 676 q 647 695 597 678 q 760 713 697 713 q 994 635 915 713 q 1072 389 1072 557 l 1063 286 l 628 286 q 658 172 628 210 q 765 133 689 133 q 859 135 807 133 q 961 140 911 138 q 1047 146 1011 143 l 1051 14 q 965 1 1017 8 q 855 -10 913 -6 q 749 -15 797 -15 q 628 1 678 -15 q 546 49 578 18 q 454 16 501 31 q 356 -7 407 1 q 251 -15 306 -15 m 294 125 q 345 129 318 125 q 396 140 372 133 q 438 153 419 147 q 465 163 457 158 q 453 232 457 190 q 450 311 450 274 l 308 300 q 244 275 265 296 q 224 211 224 254 q 242 147 224 168 q 294 125 260 125 m 628 404 l 888 404 q 857 533 888 496 q 760 569 826 569 q 660 531 693 569 q 628 404 628 493 m 472 801 l 392 906 l 663 1043 l 768 903 l 472 801 z "},"b":{"ha":754,"x_min":75,"x_max":703,"o":"m 354 -15 q 269 -12 319 -15 q 167 -4 219 -10 q 75 6 115 1 l 75 982 l 261 982 l 261 675 q 344 700 293 688 q 440 713 396 713 q 595 673 538 713 q 678 556 653 633 q 703 360 703 478 q 672 138 703 221 q 564 20 640 56 q 354 -15 488 -15 m 356 140 q 457 165 424 140 q 502 238 490 189 q 514 357 514 286 q 503 473 514 429 q 466 537 492 517 q 394 557 440 557 q 322 547 360 557 q 261 529 285 538 l 261 146 q 310 142 282 144 q 356 140 338 140 z "},"c":{"ha":621,"x_min":53,"x_max":578,"o":"m 361 -15 q 174 22 242 -15 q 80 140 107 58 q 53 356 53 222 q 83 566 53 488 q 183 678 114 644 q 363 713 251 713 q 431 708 392 713 q 509 698 469 704 q 576 686 549 692 l 569 538 q 510 542 543 540 q 445 547 476 544 q 394 549 414 549 q 301 530 335 549 q 253 469 267 511 q 240 356 240 426 q 253 233 240 279 q 298 168 265 188 q 394 149 331 149 q 446 151 414 149 q 512 156 478 153 q 572 160 546 158 l 578 11 q 511 -1 550 6 q 433 -11 472 -7 q 361 -15 393 -15 z "},"ć":{"ha":621,"x_min":53,"x_max":578,"o":"m 361 -15 q 174 22 242 -15 q 80 140 107 58 q 53 356 53 222 q 83 566 53 488 q 183 678 114 644 q 363 713 251 713 q 431 708 392 713 q 509 698 469 704 q 576 686 549 692 l 569 538 q 510 542 543 540 q 445 547 476 544 q 394 549 414 549 q 301 530 335 549 q 253 469 267 511 q 240 356 240 426 q 253 233 240 279 q 298 168 265 188 q 394 149 331 149 q 446 151 414 149 q 512 156 478 153 q 572 160 546 158 l 578 11 q 511 -1 550 6 q 433 -11 472 -7 q 361 -15 393 -15 m 242 801 l 161 906 l 432 1043 l 538 903 l 242 801 z "},"č":{"ha":621,"x_min":53,"x_max":578,"o":"m 361 -15 q 174 22 242 -15 q 80 140 107 58 q 53 356 53 222 q 83 566 53 488 q 183 678 114 644 q 363 713 251 713 q 431 708 392 713 q 509 698 469 704 q 576 686 549 692 l 569 538 q 510 542 543 540 q 445 547 476 544 q 394 549 414 549 q 301 530 335 549 q 253 469 267 511 q 240 356 240 426 q 253 233 240 279 q 298 168 265 188 q 394 149 331 149 q 446 151 414 149 q 512 156 478 153 q 572 160 546 158 l 578 11 q 511 -1 550 6 q 433 -11 472 -7 q 361 -15 393 -15 m 261 803 l 107 1013 l 260 1013 l 329 900 l 399 1013 l 551 1013 l 389 803 l 261 803 z "},"ç":{"ha":621,"x_min":53,"x_max":578,"o":"m 361 -15 q 174 22 242 -15 q 80 140 107 58 q 53 356 53 222 q 83 566 53 488 q 183 678 114 644 q 363 713 251 713 q 431 708 392 713 q 509 698 469 704 q 576 686 549 692 l 569 538 q 510 542 543 540 q 445 547 476 544 q 394 549 414 549 q 301 530 335 549 q 253 469 267 511 q 240 356 240 426 q 253 233 240 279 q 298 168 265 188 q 394 149 331 149 q 446 151 414 149 q 512 156 478 153 q 572 160 546 158 l 578 11 q 511 -1 550 6 q 433 -11 472 -7 q 361 -15 393 -15 m 385 -310 q 305 -306 344 -310 q 243 -297 265 -303 l 247 -214 q 284 -216 256 -215 q 329 -217 313 -217 q 372 -206 358 -217 q 386 -174 386 -196 q 372 -142 386 -150 q 329 -135 358 -135 l 289 -135 l 289 7 l 364 7 l 364 -58 q 492 -81 451 -60 q 533 -174 533 -103 q 494 -278 533 -246 q 385 -310 454 -310 z "},"ĉ":{"ha":621,"x_min":53,"x_max":578,"o":"m 361 -15 q 174 22 242 -15 q 80 140 107 58 q 53 356 53 222 q 83 566 53 488 q 183 678 114 644 q 363 713 251 713 q 431 708 392 713 q 509 698 469 704 q 576 686 549 692 l 569 538 q 510 542 543 540 q 445 547 476 544 q 394 549 414 549 q 301 530 335 549 q 253 469 267 511 q 240 356 240 426 q 253 233 240 279 q 298 168 265 188 q 394 149 331 149 q 446 151 414 149 q 512 156 478 153 q 572 160 546 158 l 578 11 q 511 -1 550 6 q 433 -11 472 -7 q 361 -15 393 -15 m 100 803 l 254 1013 l 383 1013 l 544 803 l 392 803 l 322 915 l 254 803 l 100 803 z "},"ċ":{"ha":621,"x_min":53,"x_max":578,"o":"m 361 -15 q 174 22 242 -15 q 80 140 107 58 q 53 356 53 222 q 83 566 53 488 q 183 678 114 644 q 363 713 251 713 q 431 708 392 713 q 509 698 469 704 q 576 686 549 692 l 569 538 q 510 542 543 540 q 445 547 476 544 q 394 549 414 549 q 301 530 335 549 q 253 469 267 511 q 240 356 240 426 q 253 233 240 279 q 298 168 265 188 q 394 149 331 149 q 446 151 414 149 q 512 156 478 153 q 572 160 546 158 l 578 11 q 511 -1 550 6 q 433 -11 472 -7 q 361 -15 393 -15 m 261 819 l 261 978 l 426 978 l 426 819 l 261 819 z "},"d":{"ha":757,"x_min":50,"x_max":681,"o":"m 311 -15 q 219 -3 261 -15 q 147 34 178 8 q 94 101 115 60 q 61 203 72 143 q 50 344 50 264 q 80 546 50 464 q 175 670 110 628 q 349 713 240 713 q 424 708 381 713 q 494 699 468 703 l 494 982 l 681 982 l 681 0 l 497 0 l 496 40 q 445 16 476 29 q 379 -6 414 3 q 311 -15 344 -15 m 358 140 q 409 146 383 140 q 458 159 435 151 q 494 174 481 167 l 494 547 q 461 552 482 550 q 418 556 440 554 q 378 558 396 558 q 294 533 324 558 q 251 460 264 508 q 239 344 239 413 q 247 245 239 285 q 272 183 256 206 q 310 150 288 160 q 358 140 332 140 z "},"ð":{"ha":751,"x_min":39,"x_max":699,"o":"m 358 -12 q 122 65 206 -12 q 39 300 39 143 q 113 520 39 436 q 338 604 188 604 q 408 599 369 604 q 481 584 446 593 q 539 564 517 575 q 511 669 533 621 q 440 758 489 718 q 310 831 392 797 q 106 890 229 864 l 129 999 q 441 917 314 975 q 633 753 568 858 q 699 485 699 649 q 664 203 699 313 q 555 40 629 93 q 358 -12 481 -12 m 358 124 q 459 153 419 124 q 519 249 499 182 q 539 431 539 317 q 480 451 511 442 q 415 465 449 460 q 346 469 382 469 q 265 445 297 469 q 216 383 232 421 q 200 300 200 344 q 238 171 200 218 q 358 124 275 124 m 213 681 l 149 768 l 535 1026 l 599 938 l 213 681 z "},"ď":{"ha":893,"x_min":50,"x_max":974,"o":"m 754 649 l 800 942 l 974 942 l 899 649 l 754 649 m 311 -15 q 219 -3 261 -15 q 147 34 178 8 q 94 101 115 60 q 61 203 72 143 q 50 344 50 264 q 80 546 50 464 q 175 670 110 628 q 349 713 240 713 q 424 708 381 713 q 494 699 468 703 l 494 982 l 681 982 l 681 0 l 497 0 l 496 40 q 445 16 476 29 q 379 -6 414 3 q 311 -15 344 -15 m 358 140 q 409 146 383 140 q 458 159 435 151 q 494 174 481 167 l 494 547 q 461 552 482 550 q 418 556 440 554 q 378 558 396 558 q 294 533 324 558 q 251 460 264 508 q 239 344 239 413 q 247 245 239 285 q 272 183 256 206 q 310 150 288 160 q 358 140 332 140 z "},"đ":{"ha":757,"x_min":50,"x_max":719,"o":"m 294 824 l 294 938 l 719 938 l 719 824 l 294 824 m 311 -15 q 219 -3 261 -15 q 147 34 178 8 q 94 101 115 60 q 61 203 72 143 q 50 344 50 264 q 80 546 50 464 q 175 670 110 628 q 349 713 240 713 q 424 708 381 713 q 494 699 468 703 l 494 982 l 681 982 l 681 0 l 497 0 l 496 40 q 445 16 476 29 q 379 -6 414 3 q 311 -15 344 -15 m 358 140 q 409 146 383 140 q 458 159 435 151 q 494 174 481 167 l 494 547 q 461 552 482 550 q 418 556 440 554 q 378 558 396 558 q 294 533 324 558 q 251 460 264 508 q 239 344 239 413 q 247 245 239 285 q 272 183 256 206 q 310 150 288 160 q 358 140 332 140 z "},"e":{"ha":726,"x_min":50,"x_max":681,"o":"m 358 -15 q 176 24 243 -15 q 79 142 108 63 q 50 340 50 221 q 87 551 50 469 q 194 673 124 633 q 369 713 265 713 q 602 635 524 713 q 681 389 681 557 l 672 286 l 236 286 q 268 169 238 208 q 374 131 299 131 q 468 133 417 131 q 570 138 519 135 q 657 143 621 140 l 661 14 q 574 1 626 8 q 465 -10 521 -6 q 358 -15 408 -15 m 236 404 l 496 404 q 466 536 496 499 q 369 574 436 574 q 270 535 304 574 q 236 404 236 496 z "},"é":{"ha":726,"x_min":50,"x_max":681,"o":"m 358 -15 q 176 24 243 -15 q 79 142 108 63 q 50 340 50 221 q 87 551 50 469 q 194 673 124 633 q 369 713 265 713 q 602 635 524 713 q 681 389 681 557 l 672 286 l 236 286 q 268 169 238 208 q 374 131 299 131 q 468 133 417 131 q 570 138 519 135 q 657 143 621 140 l 661 14 q 574 1 626 8 q 465 -10 521 -6 q 358 -15 408 -15 m 236 404 l 496 404 q 466 536 496 499 q 369 574 436 574 q 270 535 304 574 q 236 404 236 496 m 288 801 l 207 906 l 478 1043 l 583 903 l 288 801 z "},"ĕ":{"ha":726,"x_min":50,"x_max":681,"o":"m 358 -15 q 176 24 243 -15 q 79 142 108 63 q 50 340 50 221 q 87 551 50 469 q 194 673 124 633 q 369 713 265 713 q 602 635 524 713 q 681 389 681 557 l 672 286 l 236 286 q 268 169 238 208 q 374 131 299 131 q 468 133 417 131 q 570 138 519 135 q 657 143 621 140 l 661 14 q 574 1 626 8 q 465 -10 521 -6 q 358 -15 408 -15 m 236 404 l 496 404 q 466 536 496 499 q 369 574 436 574 q 270 535 304 574 q 236 404 236 496 m 367 793 q 248 822 294 793 q 179 898 201 851 q 154 999 157 944 l 271 1004 q 298 935 274 963 q 367 908 322 908 q 438 935 414 908 q 464 1004 463 963 l 581 999 q 556 898 578 944 q 488 822 533 851 q 367 793 442 793 z "},"ě":{"ha":726,"x_min":50,"x_max":681,"o":"m 358 -15 q 176 24 243 -15 q 79 142 108 63 q 50 340 50 221 q 87 551 50 469 q 194 673 124 633 q 369 713 265 713 q 602 635 524 713 q 681 389 681 557 l 672 286 l 236 286 q 268 169 238 208 q 374 131 299 131 q 468 133 417 131 q 570 138 519 135 q 657 143 621 140 l 661 14 q 574 1 626 8 q 465 -10 521 -6 q 358 -15 408 -15 m 236 404 l 496 404 q 466 536 496 499 q 369 574 436 574 q 270 535 304 574 q 236 404 236 496 m 296 803 l 142 1013 l 294 1013 l 364 900 l 433 1013 l 586 1013 l 424 803 l 296 803 z "},"ê":{"ha":726,"x_min":50,"x_max":681,"o":"m 358 -15 q 176 24 243 -15 q 79 142 108 63 q 50 340 50 221 q 87 551 50 469 q 194 673 124 633 q 369 713 265 713 q 602 635 524 713 q 681 389 681 557 l 672 286 l 236 286 q 268 169 238 208 q 374 131 299 131 q 468 133 417 131 q 570 138 519 135 q 657 143 621 140 l 661 14 q 574 1 626 8 q 465 -10 521 -6 q 358 -15 408 -15 m 236 404 l 496 404 q 466 536 496 499 q 369 574 436 574 q 270 535 304 574 q 236 404 236 496 m 149 803 l 303 1013 l 432 1013 l 593 803 l 440 803 l 371 915 l 303 803 l 149 803 z "},"ë":{"ha":726,"x_min":50,"x_max":681,"o":"m 358 -15 q 176 24 243 -15 q 79 142 108 63 q 50 340 50 221 q 87 551 50 469 q 194 673 124 633 q 369 713 265 713 q 602 635 524 713 q 681 389 681 557 l 672 286 l 236 286 q 268 169 238 208 q 374 131 299 131 q 468 133 417 131 q 570 138 519 135 q 657 143 621 140 l 661 14 q 574 1 626 8 q 465 -10 521 -6 q 358 -15 408 -15 m 236 404 l 496 404 q 466 536 496 499 q 369 574 436 574 q 270 535 304 574 q 236 404 236 496 m 453 829 l 453 989 l 604 989 l 604 829 l 453 829 m 168 829 l 168 989 l 319 989 l 319 829 l 168 829 z "},"ė":{"ha":726,"x_min":50,"x_max":681,"o":"m 358 -15 q 176 24 243 -15 q 79 142 108 63 q 50 340 50 221 q 87 551 50 469 q 194 673 124 633 q 369 713 265 713 q 602 635 524 713 q 681 389 681 557 l 672 286 l 236 286 q 268 169 238 208 q 374 131 299 131 q 468 133 417 131 q 570 138 519 135 q 657 143 621 140 l 661 14 q 574 1 626 8 q 465 -10 521 -6 q 358 -15 408 -15 m 236 404 l 496 404 q 466 536 496 499 q 369 574 436 574 q 270 535 304 574 q 236 404 236 496 m 285 819 l 285 978 l 450 978 l 450 819 l 285 819 z "},"è":{"ha":726,"x_min":50,"x_max":681,"o":"m 358 -15 q 176 24 243 -15 q 79 142 108 63 q 50 340 50 221 q 87 551 50 469 q 194 673 124 633 q 369 713 265 713 q 602 635 524 713 q 681 389 681 557 l 672 286 l 236 286 q 268 169 238 208 q 374 131 299 131 q 468 133 417 131 q 570 138 519 135 q 657 143 621 140 l 661 14 q 574 1 626 8 q 465 -10 521 -6 q 358 -15 408 -15 m 236 404 l 496 404 q 466 536 496 499 q 369 574 436 574 q 270 535 304 574 q 236 404 236 496 m 438 803 l 142 904 l 247 1044 l 519 907 l 438 803 z "},"ē":{"ha":726,"x_min":50,"x_max":681,"o":"m 358 -15 q 176 24 243 -15 q 79 142 108 63 q 50 340 50 221 q 87 551 50 469 q 194 673 124 633 q 369 713 265 713 q 602 635 524 713 q 681 389 681 557 l 672 286 l 236 286 q 268 169 238 208 q 374 131 299 131 q 468 133 417 131 q 570 138 519 135 q 657 143 621 140 l 661 14 q 574 1 626 8 q 465 -10 521 -6 q 358 -15 408 -15 m 236 404 l 496 404 q 466 536 496 499 q 369 574 436 574 q 270 535 304 574 q 236 404 236 496 m 164 833 l 164 963 l 575 963 l 575 833 l 164 833 z "},"ę":{"ha":726,"x_min":50,"x_max":681,"o":"m 358 -15 q 176 24 243 -15 q 79 142 108 63 q 50 340 50 221 q 87 551 50 469 q 194 673 124 633 q 369 713 265 713 q 602 635 524 713 q 681 389 681 557 l 672 286 l 236 286 q 268 169 238 208 q 374 131 299 131 q 468 133 417 131 q 570 138 519 135 q 657 143 621 140 l 661 14 q 574 1 626 8 q 465 -10 521 -6 q 358 -15 408 -15 m 236 404 l 496 404 q 466 536 496 499 q 369 574 436 574 q 270 535 304 574 q 236 404 236 496 m 524 -292 q 436 -275 474 -292 q 379 -229 399 -258 q 360 -158 360 -200 q 381 -83 360 -118 q 433 -19 401 -47 q 494 26 464 8 l 635 11 q 585 -38 608 -12 q 549 -89 563 -64 q 535 -133 535 -114 q 546 -165 535 -153 q 581 -176 557 -176 q 614 -174 594 -176 q 647 -169 633 -171 l 663 -276 q 599 -286 638 -281 q 524 -292 561 -292 z "},"f":{"ha":475,"x_min":35,"x_max":469,"o":"m 104 0 l 104 543 l 35 543 l 35 697 l 104 697 l 104 738 q 123 893 104 836 q 188 974 142 950 q 311 997 233 997 q 365 995 333 997 q 425 990 396 993 q 469 985 454 988 l 468 843 q 419 844 446 843 q 372 844 392 844 q 323 835 342 844 q 297 803 304 825 q 289 739 289 781 l 289 697 l 456 697 l 456 543 l 289 543 l 289 0 l 104 0 z "},"g":{"ha":740,"x_min":49,"x_max":719,"o":"m 383 -318 q 198 -301 272 -318 q 86 -241 124 -285 q 49 -115 49 -197 q 59 -51 49 -79 q 92 3 69 -22 q 150 54 115 28 q 119 95 131 68 q 107 154 107 122 q 127 203 107 171 q 167 261 147 236 q 114 298 139 274 q 73 364 89 322 q 57 471 57 406 q 133 658 57 603 q 349 713 208 713 q 426 707 385 713 q 493 696 468 701 l 719 700 l 719 575 l 614 576 q 637 534 626 560 q 647 471 647 508 q 615 322 647 375 q 517 249 582 269 q 351 229 451 229 q 321 231 340 229 q 289 235 301 233 q 278 203 283 221 q 272 179 272 186 q 284 151 272 161 q 333 138 296 142 q 444 135 369 135 q 602 117 543 135 q 686 53 661 99 q 711 -76 711 7 q 624 -259 711 -200 q 383 -318 538 -318 m 374 -181 q 498 -160 460 -181 q 536 -94 536 -140 q 523 -42 536 -58 q 479 -20 510 -25 q 396 -15 449 -15 q 363 -15 382 -15 q 323 -13 343 -14 q 287 -11 303 -12 q 264 -10 271 -10 q 222 -48 233 -31 q 211 -94 211 -65 q 226 -145 211 -126 q 277 -172 242 -164 q 374 -181 313 -181 m 350 360 q 441 385 414 360 q 468 471 468 411 q 441 557 468 531 q 350 583 414 583 q 262 557 289 583 q 235 471 235 531 q 262 385 235 411 q 350 360 289 360 z "},"ğ":{"ha":740,"x_min":49,"x_max":719,"o":"m 383 -318 q 198 -301 272 -318 q 86 -241 124 -285 q 49 -115 49 -197 q 59 -51 49 -79 q 92 3 69 -22 q 150 54 115 28 q 119 95 131 68 q 107 154 107 122 q 127 203 107 171 q 167 261 147 236 q 114 298 139 274 q 73 364 89 322 q 57 471 57 406 q 133 658 57 603 q 349 713 208 713 q 426 707 385 713 q 493 696 468 701 l 719 700 l 719 575 l 614 576 q 637 534 626 560 q 647 471 647 508 q 615 322 647 375 q 517 249 582 269 q 351 229 451 229 q 321 231 340 229 q 289 235 301 233 q 278 203 283 221 q 272 179 272 186 q 284 151 272 161 q 333 138 296 142 q 444 135 369 135 q 602 117 543 135 q 686 53 661 99 q 711 -76 711 7 q 624 -259 711 -200 q 383 -318 538 -318 m 374 -181 q 498 -160 460 -181 q 536 -94 536 -140 q 523 -42 536 -58 q 479 -20 510 -25 q 396 -15 449 -15 q 363 -15 382 -15 q 323 -13 343 -14 q 287 -11 303 -12 q 264 -10 271 -10 q 222 -48 233 -31 q 211 -94 211 -65 q 226 -145 211 -126 q 277 -172 242 -164 q 374 -181 313 -181 m 350 360 q 441 385 414 360 q 468 471 468 411 q 441 557 468 531 q 350 583 414 583 q 262 557 289 583 q 235 471 235 531 q 262 385 235 411 q 350 360 289 360 m 375 793 q 256 822 303 793 q 188 898 210 851 q 163 999 165 944 l 279 1004 q 306 935 282 963 q 375 908 331 908 q 447 935 422 908 q 472 1004 471 963 l 589 999 q 564 898 586 944 q 496 822 542 851 q 375 793 450 793 z "},"ĝ":{"ha":740,"x_min":49,"x_max":719,"o":"m 383 -318 q 198 -301 272 -318 q 86 -241 124 -285 q 49 -115 49 -197 q 59 -51 49 -79 q 92 3 69 -22 q 150 54 115 28 q 119 95 131 68 q 107 154 107 122 q 127 203 107 171 q 167 261 147 236 q 114 298 139 274 q 73 364 89 322 q 57 471 57 406 q 133 658 57 603 q 349 713 208 713 q 426 707 385 713 q 493 696 468 701 l 719 700 l 719 575 l 614 576 q 637 534 626 560 q 647 471 647 508 q 615 322 647 375 q 517 249 582 269 q 351 229 451 229 q 321 231 340 229 q 289 235 301 233 q 278 203 283 221 q 272 179 272 186 q 284 151 272 161 q 333 138 296 142 q 444 135 369 135 q 602 117 543 135 q 686 53 661 99 q 711 -76 711 7 q 624 -259 711 -200 q 383 -318 538 -318 m 374 -181 q 498 -160 460 -181 q 536 -94 536 -140 q 523 -42 536 -58 q 479 -20 510 -25 q 396 -15 449 -15 q 363 -15 382 -15 q 323 -13 343 -14 q 287 -11 303 -12 q 264 -10 271 -10 q 222 -48 233 -31 q 211 -94 211 -65 q 226 -145 211 -126 q 277 -172 242 -164 q 374 -181 313 -181 m 350 360 q 441 385 414 360 q 468 471 468 411 q 441 557 468 531 q 350 583 414 583 q 262 557 289 583 q 235 471 235 531 q 262 385 235 411 q 350 360 289 360 m 153 803 l 307 1013 l 436 1013 l 597 803 l 444 803 l 375 915 l 307 803 l 153 803 z "},"ģ":{"ha":740,"x_min":49,"x_max":719,"o":"m 251 804 l 328 1097 l 472 1097 l 426 804 l 251 804 m 383 -318 q 198 -301 272 -318 q 86 -241 124 -285 q 49 -115 49 -197 q 59 -51 49 -79 q 92 3 69 -22 q 150 54 115 28 q 119 95 131 68 q 107 154 107 122 q 127 203 107 171 q 167 261 147 236 q 114 298 139 274 q 73 364 89 322 q 57 471 57 406 q 133 658 57 603 q 349 713 208 713 q 426 707 385 713 q 493 696 468 701 l 719 700 l 719 575 l 614 576 q 637 534 626 560 q 647 471 647 508 q 615 322 647 375 q 517 249 582 269 q 351 229 451 229 q 321 231 340 229 q 289 235 301 233 q 278 203 283 221 q 272 179 272 186 q 284 151 272 161 q 333 138 296 142 q 444 135 369 135 q 602 117 543 135 q 686 53 661 99 q 711 -76 711 7 q 624 -259 711 -200 q 383 -318 538 -318 m 374 -181 q 498 -160 460 -181 q 536 -94 536 -140 q 523 -42 536 -58 q 479 -20 510 -25 q 396 -15 449 -15 q 363 -15 382 -15 q 323 -13 343 -14 q 287 -11 303 -12 q 264 -10 271 -10 q 222 -48 233 -31 q 211 -94 211 -65 q 226 -145 211 -126 q 277 -172 242 -164 q 374 -181 313 -181 m 350 360 q 441 385 414 360 q 468 471 468 411 q 441 557 468 531 q 350 583 414 583 q 262 557 289 583 q 235 471 235 531 q 262 385 235 411 q 350 360 289 360 z "},"ġ":{"ha":740,"x_min":49,"x_max":719,"o":"m 383 -318 q 198 -301 272 -318 q 86 -241 124 -285 q 49 -115 49 -197 q 59 -51 49 -79 q 92 3 69 -22 q 150 54 115 28 q 119 95 131 68 q 107 154 107 122 q 127 203 107 171 q 167 261 147 236 q 114 298 139 274 q 73 364 89 322 q 57 471 57 406 q 133 658 57 603 q 349 713 208 713 q 426 707 385 713 q 493 696 468 701 l 719 700 l 719 575 l 614 576 q 637 534 626 560 q 647 471 647 508 q 615 322 647 375 q 517 249 582 269 q 351 229 451 229 q 321 231 340 229 q 289 235 301 233 q 278 203 283 221 q 272 179 272 186 q 284 151 272 161 q 333 138 296 142 q 444 135 369 135 q 602 117 543 135 q 686 53 661 99 q 711 -76 711 7 q 624 -259 711 -200 q 383 -318 538 -318 m 374 -181 q 498 -160 460 -181 q 536 -94 536 -140 q 523 -42 536 -58 q 479 -20 510 -25 q 396 -15 449 -15 q 363 -15 382 -15 q 323 -13 343 -14 q 287 -11 303 -12 q 264 -10 271 -10 q 222 -48 233 -31 q 211 -94 211 -65 q 226 -145 211 -126 q 277 -172 242 -164 q 374 -181 313 -181 m 350 360 q 441 385 414 360 q 468 471 468 411 q 441 557 468 531 q 350 583 414 583 q 262 557 289 583 q 235 471 235 531 q 262 385 235 411 q 350 360 289 360 m 290 819 l 290 978 l 456 978 l 456 819 l 290 819 z "},"h":{"ha":768,"x_min":76,"x_max":699,"o":"m 76 0 l 76 982 l 261 982 l 261 672 q 350 699 296 685 q 450 713 404 713 q 601 678 547 713 q 677 568 656 644 q 699 365 699 492 l 699 0 l 513 0 l 513 351 q 504 467 513 424 q 473 531 496 511 q 403 550 450 550 q 326 540 365 550 q 261 522 286 531 l 261 0 l 76 0 z "},"ħ":{"ha":768,"x_min":3,"x_max":699,"o":"m 3 785 l 3 900 l 426 900 l 426 785 l 3 785 m 76 0 l 76 982 l 261 982 l 261 672 q 350 699 296 685 q 450 713 404 713 q 601 678 547 713 q 677 568 656 644 q 699 365 699 492 l 699 0 l 513 0 l 513 351 q 504 467 513 424 q 473 531 496 511 q 403 550 450 550 q 326 540 365 550 q 261 522 286 531 l 261 0 l 76 0 z "},"ĥ":{"ha":768,"x_min":76,"x_max":699,"o":"m 76 0 l 76 982 l 261 982 l 261 672 q 350 699 296 685 q 450 713 404 713 q 601 678 547 713 q 677 568 656 644 q 699 365 699 492 l 699 0 l 513 0 l 513 351 q 504 467 513 424 q 473 531 496 511 q 403 550 450 550 q 326 540 365 550 q 261 522 286 531 l 261 0 l 76 0 m 161 1056 l 315 1265 l 444 1265 l 606 1056 l 453 1056 l 383 1168 l 315 1056 l 161 1056 z "},"i":{"ha":339,"x_min":76,"x_max":263,"o":"m 76 0 l 76 697 l 261 697 l 261 0 l 76 0 m 76 808 l 76 967 l 263 967 l 263 808 l 76 808 z "},"ı":{"ha":392,"x_min":104,"x_max":289,"o":"m 104 0 l 104 697 l 289 697 l 289 0 l 104 0 z "},"í":{"ha":392,"x_min":33,"x_max":410,"o":"m 104 0 l 104 697 l 289 697 l 289 0 l 104 0 m 114 801 l 33 906 l 304 1043 l 410 903 l 114 801 z "},"ĭ":{"ha":339,"x_min":-44,"x_max":381,"o":"m 104 0 l 104 697 l 289 697 l 289 0 l 104 0 m 167 793 q 48 822 94 793 q -21 898 1 851 q -46 999 -43 944 l 71 1004 q 98 935 74 963 q 167 908 122 908 q 238 935 214 908 q 264 1004 263 963 l 381 999 q 356 898 378 944 q 288 822 333 851 q 167 793 242 793 z "},"î":{"ha":339,"x_min":-54,"x_max":389,"o":"m 104 0 l 104 697 l 289 697 l 289 0 l 104 0 m -56 803 l 99 1013 l 228 1013 l 389 803 l 236 803 l 167 915 l 99 803 l -56 803 z "},"ï":{"ha":339,"x_min":-33,"x_max":403,"o":"m 104 0 l 104 697 l 289 697 l 289 0 l 104 0 m 251 829 l 251 989 l 403 989 l 403 829 l 251 829 m -33 829 l -33 989 l 118 989 l 118 829 l -33 829 z "},"ì":{"ha":339,"x_min":-47,"x_max":329,"o":"m 104 0 l 104 697 l 289 697 l 289 0 l 104 0 m 249 801 l -47 903 l 58 1043 l 331 906 l 249 801 z "},"ī":{"ha":339,"x_min":-39,"x_max":372,"o":"m 104 0 l 104 697 l 289 697 l 289 0 l 104 0 m -39 833 l -39 963 l 372 963 l 372 833 l -39 833 z "},"į":{"ha":339,"x_min":-14,"x_max":289,"o":"m 151 -294 q 64 -278 101 -294 q 7 -232 26 -261 q -12 -161 -12 -203 q 8 -85 -12 -121 q 60 -22 29 -50 q 122 24 92 6 l 263 8 q 213 -41 236 -15 q 176 -92 190 -67 q 163 -136 163 -117 q 174 -167 163 -156 q 208 -179 185 -179 q 242 -176 222 -179 q 275 -172 261 -174 l 290 -279 q 227 -289 265 -283 q 151 -294 189 -294 m 76 0 l 76 697 l 261 697 l 261 0 l 76 0 m 76 808 l 76 967 l 263 967 l 263 808 l 76 808 z "},"ĩ":{"ha":339,"x_min":-61,"x_max":404,"o":"m 104 0 l 104 697 l 289 697 l 289 0 l 104 0 m 272 815 q 222 824 250 815 q 167 846 194 833 q 115 868 139 858 q 74 878 90 878 q 23 859 54 878 q -32 822 -8 840 l -62 926 q 0 979 -39 953 q 72 1006 39 1006 q 125 996 97 1006 q 180 974 153 986 q 231 953 207 963 q 269 943 254 943 q 318 961 286 943 q 372 997 350 979 l 404 892 q 344 842 382 868 q 272 815 307 815 z "},"j":{"ha":339,"x_min":-74,"x_max":263,"o":"m -8 -308 l -74 -167 q 5 -120 -25 -140 q 50 -78 35 -100 q 71 -28 65 -57 q 76 47 76 1 l 76 697 l 263 697 l 263 50 q 251 -83 263 -29 q 209 -174 239 -136 q 126 -243 179 -212 q -8 -308 74 -274 m 76 810 l 76 967 l 263 967 l 263 810 l 76 810 z "},"ȷ":{"ha":339,"x_min":-74,"x_max":263,"o":"m -8 -308 l -74 -167 q 24 -105 -8 -131 q 66 -45 56 -79 q 76 47 76 -11 l 76 697 l 263 697 l 263 50 q 251 -83 263 -29 q 209 -174 239 -136 q 126 -243 179 -212 q -8 -308 74 -274 z "},"ĵ":{"ha":339,"x_min":-74,"x_max":390,"o":"m -8 -308 l -74 -167 q 24 -105 -8 -131 q 66 -45 56 -79 q 76 47 76 -11 l 76 697 l 263 697 l 263 50 q 251 -83 263 -29 q 209 -174 239 -136 q 126 -243 179 -212 q -8 -308 74 -274 m -54 803 l 100 1013 l 229 1013 l 390 803 l 238 803 l 168 915 l 100 803 l -54 803 z "},"k":{"ha":706,"x_min":76,"x_max":690,"o":"m 76 0 l 76 982 l 261 982 l 261 435 l 343 438 l 488 697 l 681 697 l 504 369 l 690 0 l 496 0 l 346 276 l 261 272 l 261 0 l 76 0 z "},"ķ":{"ha":706,"x_min":76,"x_max":690,"o":"m 175 -383 l 221 -90 l 396 -90 l 319 -383 l 175 -383 m 76 0 l 76 982 l 261 982 l 261 435 l 343 438 l 488 697 l 681 697 l 504 369 l 690 0 l 496 0 l 346 276 l 261 272 l 261 0 l 76 0 z "},"l":{"ha":349,"x_min":82,"x_max":267,"o":"m 82 0 l 82 982 l 267 982 l 267 0 l 82 0 z "},"ĺ":{"ha":349,"x_min":-21,"x_max":354,"o":"m 82 0 l 82 982 l 267 982 l 267 0 l 82 0 m 60 1074 l -21 1178 l 250 1315 l 356 1175 l 60 1074 z "},"ľ":{"ha":481,"x_min":82,"x_max":561,"o":"m 342 649 l 388 942 l 561 942 l 485 649 l 342 649 m 82 0 l 82 982 l 267 982 l 267 0 l 82 0 z "},"ļ":{"ha":324,"x_min":21,"x_max":267,"o":"m 82 0 l 82 982 l 267 982 l 267 0 l 82 0 m 21 -451 l 68 -115 l 263 -115 l 178 -451 l 21 -451 z "},"ł":{"ha":433,"x_min":10,"x_max":422,"o":"m 43 267 l 10 413 l 389 646 l 422 500 l 43 267 m 121 0 l 121 982 l 306 982 l 306 0 l 121 0 z "},"m":{"ha":1175,"x_min":76,"x_max":1104,"o":"m 76 0 l 76 697 l 261 697 l 261 653 q 347 692 293 672 q 450 713 401 713 q 554 695 514 713 q 621 644 594 678 q 683 675 646 660 q 765 701 721 690 q 851 713 810 713 q 1008 676 954 713 q 1083 563 1063 640 q 1104 363 1104 486 l 1104 0 l 919 0 l 919 346 q 912 463 919 418 q 881 529 904 508 q 813 550 858 550 q 733 539 772 550 q 672 517 694 528 q 683 442 679 488 q 686 346 686 396 l 686 0 l 501 0 l 501 343 q 494 463 501 417 q 463 529 486 508 q 394 550 439 550 q 319 539 356 550 q 261 517 282 528 l 261 0 l 76 0 z "},"n":{"ha":768,"x_min":76,"x_max":700,"o":"m 76 0 l 76 697 l 261 697 l 261 653 q 315 680 283 667 q 383 703 347 693 q 451 713 418 713 q 602 678 549 713 q 678 567 656 644 q 700 361 700 490 l 700 0 l 514 0 l 514 351 q 506 467 514 424 q 474 531 497 511 q 404 550 450 550 q 352 545 379 550 q 301 532 325 540 q 261 515 276 524 l 261 0 l 76 0 z "},"ń":{"ha":768,"x_min":76,"x_max":700,"o":"m 76 0 l 76 697 l 261 697 l 261 653 q 315 680 283 667 q 383 703 347 693 q 451 713 418 713 q 602 678 549 713 q 678 567 656 644 q 700 361 700 490 l 700 0 l 514 0 l 514 351 q 506 467 514 424 q 474 531 497 511 q 404 550 450 550 q 352 545 379 550 q 301 532 325 540 q 261 515 276 524 l 261 0 l 76 0 m 272 801 l 192 906 l 463 1043 l 568 903 l 272 801 z "},"ň":{"ha":768,"x_min":76,"x_max":700,"o":"m 76 0 l 76 697 l 261 697 l 261 653 q 315 680 283 667 q 383 703 347 693 q 451 713 418 713 q 602 678 549 713 q 678 567 656 644 q 700 361 700 490 l 700 0 l 514 0 l 514 351 q 506 467 514 424 q 474 531 497 511 q 404 550 450 550 q 352 545 379 550 q 301 532 325 540 q 261 515 276 524 l 261 0 l 76 0 m 313 803 l 158 1013 l 311 1013 l 381 900 l 450 1013 l 603 1013 l 440 803 l 313 803 z "},"ņ":{"ha":768,"x_min":76,"x_max":700,"o":"m 199 -383 l 244 -90 l 418 -90 l 342 -383 l 199 -383 m 76 0 l 76 697 l 261 697 l 261 653 q 315 680 283 667 q 383 703 347 693 q 451 713 418 713 q 602 678 549 713 q 678 567 656 644 q 700 361 700 490 l 700 0 l 514 0 l 514 351 q 506 467 514 424 q 474 531 497 511 q 404 550 450 550 q 352 545 379 550 q 301 532 325 540 q 261 515 276 524 l 261 0 l 76 0 z "},"ŋ":{"ha":768,"x_min":76,"x_max":700,"o":"m 433 -321 l 367 -174 q 462 -114 431 -139 q 503 -56 493 -89 q 514 32 514 -24 l 514 349 q 506 461 514 417 q 474 527 497 506 q 408 549 451 549 q 356 544 383 549 q 304 531 329 539 q 261 515 279 522 l 261 0 l 76 0 l 76 697 l 261 697 l 261 656 q 317 681 285 668 q 386 703 350 694 q 453 713 422 713 q 602 676 549 713 q 678 562 656 640 q 700 357 700 483 l 700 38 q 688 -97 700 -43 q 649 -187 676 -150 q 568 -256 621 -225 q 433 -321 515 -286 z "},"ñ":{"ha":768,"x_min":76,"x_max":700,"o":"m 76 0 l 76 697 l 261 697 l 261 653 q 315 680 283 667 q 383 703 347 693 q 451 713 418 713 q 602 678 549 713 q 678 567 656 644 q 700 361 700 490 l 700 0 l 514 0 l 514 351 q 506 467 514 424 q 474 531 497 511 q 404 550 450 550 q 352 545 379 550 q 301 532 325 540 q 261 515 276 524 l 261 0 l 76 0 m 497 815 q 447 824 475 815 q 392 846 419 833 q 340 868 364 858 q 299 878 315 878 q 248 859 279 878 q 193 822 217 840 l 163 926 q 225 979 186 953 q 297 1006 264 1006 q 350 996 322 1006 q 405 974 378 986 q 456 953 432 963 q 494 943 479 943 q 543 961 511 943 q 597 997 575 979 l 629 892 q 569 842 607 868 q 497 815 532 815 z "},"o":{"ha":753,"x_min":51,"x_max":703,"o":"m 376 -15 q 187 24 258 -15 q 83 144 115 63 q 51 354 51 225 q 85 558 51 479 q 190 674 118 636 q 376 713 263 713 q 563 674 492 713 q 669 558 635 636 q 703 354 703 479 q 671 144 703 225 q 567 24 639 63 q 376 -15 496 -15 m 376 138 q 464 159 435 138 q 503 228 493 181 q 514 354 514 276 q 501 476 514 431 q 460 540 489 521 q 376 560 431 560 q 294 540 324 560 q 251 476 264 521 q 239 354 239 431 q 249 228 239 276 q 289 159 260 181 q 376 138 318 138 z "},"ó":{"ha":753,"x_min":51,"x_max":703,"o":"m 376 -15 q 187 24 258 -15 q 83 144 115 63 q 51 354 51 225 q 85 558 51 479 q 190 674 118 636 q 376 713 263 713 q 563 674 492 713 q 669 558 635 636 q 703 354 703 479 q 671 144 703 225 q 567 24 639 63 q 376 -15 496 -15 m 376 138 q 464 159 435 138 q 503 228 493 181 q 514 354 514 276 q 501 476 514 431 q 460 540 489 521 q 376 560 431 560 q 294 540 324 560 q 251 476 264 521 q 239 354 239 431 q 249 228 239 276 q 289 159 260 181 q 376 138 318 138 m 285 801 l 204 906 l 475 1043 l 581 903 l 285 801 z "},"ŏ":{"ha":753,"x_min":51,"x_max":703,"o":"m 376 -15 q 187 24 258 -15 q 83 144 115 63 q 51 354 51 225 q 85 558 51 479 q 190 674 118 636 q 376 713 263 713 q 563 674 492 713 q 669 558 635 636 q 703 354 703 479 q 671 144 703 225 q 567 24 639 63 q 376 -15 496 -15 m 376 138 q 464 159 435 138 q 503 228 493 181 q 514 354 514 276 q 501 476 514 431 q 460 540 489 521 q 376 560 431 560 q 294 540 324 560 q 251 476 264 521 q 239 354 239 431 q 249 228 239 276 q 289 159 260 181 q 376 138 318 138 m 379 793 q 260 822 307 793 q 192 898 214 851 q 167 999 169 944 l 283 1004 q 310 935 286 963 q 379 908 335 908 q 451 935 426 908 q 476 1004 475 963 l 593 999 q 568 898 590 944 q 500 822 546 851 q 379 793 454 793 z "},"ô":{"ha":753,"x_min":51,"x_max":703,"o":"m 376 -15 q 187 24 258 -15 q 83 144 115 63 q 51 354 51 225 q 85 558 51 479 q 190 674 118 636 q 376 713 263 713 q 563 674 492 713 q 669 558 635 636 q 703 354 703 479 q 671 144 703 225 q 567 24 639 63 q 376 -15 496 -15 m 376 138 q 464 159 435 138 q 503 228 493 181 q 514 354 514 276 q 501 476 514 431 q 460 540 489 521 q 376 560 431 560 q 294 540 324 560 q 251 476 264 521 q 239 354 239 431 q 249 228 239 276 q 289 159 260 181 q 376 138 318 138 m 153 803 l 307 1013 l 436 1013 l 597 803 l 444 803 l 375 915 l 307 803 l 153 803 z "},"ö":{"ha":753,"x_min":51,"x_max":703,"o":"m 376 -15 q 187 24 258 -15 q 83 144 115 63 q 51 354 51 225 q 85 558 51 479 q 190 674 118 636 q 376 713 263 713 q 563 674 492 713 q 669 558 635 636 q 703 354 703 479 q 671 144 703 225 q 567 24 639 63 q 376 -15 496 -15 m 376 138 q 464 159 435 138 q 503 228 493 181 q 514 354 514 276 q 501 476 514 431 q 460 540 489 521 q 376 560 431 560 q 294 540 324 560 q 251 476 264 521 q 239 354 239 431 q 249 228 239 276 q 289 159 260 181 q 376 138 318 138 m 460 829 l 460 989 l 611 989 l 611 829 l 460 829 m 175 829 l 175 989 l 326 989 l 326 829 l 175 829 z "},"ò":{"ha":753,"x_min":51,"x_max":703,"o":"m 376 -15 q 187 24 258 -15 q 83 144 115 63 q 51 354 51 225 q 85 558 51 479 q 190 674 118 636 q 376 713 263 713 q 563 674 492 713 q 669 558 635 636 q 703 354 703 479 q 671 144 703 225 q 567 24 639 63 q 376 -15 496 -15 m 376 138 q 464 159 435 138 q 503 228 493 181 q 514 354 514 276 q 501 476 514 431 q 460 540 489 521 q 376 560 431 560 q 294 540 324 560 q 251 476 264 521 q 239 354 239 431 q 249 228 239 276 q 289 159 260 181 q 376 138 318 138 m 490 801 l 194 903 l 300 1043 l 572 906 l 490 801 z "},"ő":{"ha":753,"x_min":51,"x_max":738,"o":"m 376 -15 q 187 24 258 -15 q 83 144 115 63 q 51 354 51 225 q 85 558 51 479 q 190 674 118 636 q 376 713 263 713 q 563 674 492 713 q 669 558 635 636 q 703 354 703 479 q 671 144 703 225 q 567 24 639 63 q 376 -15 496 -15 m 376 138 q 464 159 435 138 q 503 228 493 181 q 514 354 514 276 q 501 476 514 431 q 460 540 489 521 q 376 560 431 560 q 294 540 324 560 q 251 476 264 521 q 239 354 239 431 q 249 228 239 276 q 289 159 260 181 q 376 138 318 138 m 565 794 l 447 832 l 588 1042 l 738 1004 l 565 794 m 282 794 l 164 832 l 306 1042 l 456 1004 l 282 794 z "},"ō":{"ha":753,"x_min":51,"x_max":703,"o":"m 376 -15 q 187 24 258 -15 q 83 144 115 63 q 51 354 51 225 q 85 558 51 479 q 190 674 118 636 q 376 713 263 713 q 563 674 492 713 q 669 558 635 636 q 703 354 703 479 q 671 144 703 225 q 567 24 639 63 q 376 -15 496 -15 m 376 138 q 464 159 435 138 q 503 228 493 181 q 514 354 514 276 q 501 476 514 431 q 460 540 489 521 q 376 560 431 560 q 294 540 324 560 q 251 476 264 521 q 239 354 239 431 q 249 228 239 276 q 289 159 260 181 q 376 138 318 138 m 172 843 l 172 972 l 583 972 l 583 843 l 172 843 z "},"ø":{"ha":753,"x_min":51,"x_max":703,"o":"m 381 133 l 228 150 l 489 824 l 650 783 l 381 133 m 272 -136 l 114 -99 l 389 563 l 544 540 l 272 -136 m 376 -15 q 187 24 258 -15 q 83 144 115 63 q 51 354 51 225 q 85 558 51 479 q 190 674 118 636 q 376 713 263 713 q 563 674 492 713 q 669 558 635 636 q 703 354 703 479 q 671 144 703 225 q 567 24 639 63 q 376 -15 496 -15 m 376 138 q 464 159 435 138 q 503 228 493 181 q 514 354 514 276 q 501 476 514 431 q 460 540 489 521 q 376 560 431 560 q 294 540 324 560 q 251 476 264 521 q 239 354 239 431 q 249 228 239 276 q 289 159 260 181 q 376 138 318 138 z "},"ǿ":{"ha":753,"x_min":51,"x_max":703,"o":"m 381 133 l 228 150 l 489 824 l 650 783 l 381 133 m 272 -136 l 114 -99 l 389 563 l 544 540 l 272 -136 m 290 844 l 210 949 l 482 1086 l 586 946 l 290 844 m 376 -15 q 187 24 258 -15 q 83 144 115 63 q 51 354 51 225 q 85 558 51 479 q 190 674 118 636 q 376 713 263 713 q 563 674 492 713 q 669 558 635 636 q 703 354 703 479 q 671 144 703 225 q 567 24 639 63 q 376 -15 496 -15 m 376 138 q 464 159 435 138 q 503 228 493 181 q 514 354 514 276 q 501 476 514 431 q 460 540 489 521 q 376 560 431 560 q 294 540 324 560 q 251 476 264 521 q 239 354 239 431 q 249 228 239 276 q 289 159 260 181 q 376 138 318 138 z "},"õ":{"ha":753,"x_min":51,"x_max":703,"o":"m 376 -15 q 187 24 258 -15 q 83 144 115 63 q 51 354 51 225 q 85 558 51 479 q 190 674 118 636 q 376 713 263 713 q 563 674 492 713 q 669 558 635 636 q 703 354 703 479 q 671 144 703 225 q 567 24 639 63 q 376 -15 496 -15 m 376 138 q 464 159 435 138 q 503 228 493 181 q 514 354 514 276 q 501 476 514 431 q 460 540 489 521 q 376 560 431 560 q 294 540 324 560 q 251 476 264 521 q 239 354 239 431 q 249 228 239 276 q 289 159 260 181 q 376 138 318 138 m 476 815 q 426 824 454 815 q 371 846 399 833 q 319 868 343 858 q 278 878 294 878 q 227 859 258 878 q 172 822 196 840 l 142 926 q 204 979 165 953 q 276 1006 243 1006 q 329 996 301 1006 q 384 974 357 986 q 435 953 411 963 q 474 943 458 943 q 522 961 490 943 q 576 997 554 979 l 608 892 q 549 842 586 868 q 476 815 511 815 z "},"œ":{"ha":1192,"x_min":51,"x_max":1146,"o":"m 376 -15 q 188 24 260 -15 q 83 144 115 63 q 51 354 51 225 q 85 558 51 479 q 191 675 118 638 q 376 713 264 713 q 522 686 464 713 q 613 599 581 660 q 702 687 646 661 q 833 713 758 713 q 1067 635 989 713 q 1146 389 1146 557 l 1136 286 l 701 286 q 732 172 701 210 q 839 133 763 133 q 933 135 881 133 q 1035 140 985 138 q 1121 146 1085 143 l 1125 14 q 1038 1 1090 8 q 928 -10 985 -6 q 822 -15 871 -15 q 687 9 739 -15 q 606 85 635 33 q 519 8 574 32 q 376 -15 464 -15 m 376 140 q 464 163 435 140 q 503 233 493 186 q 514 353 514 281 q 482 510 514 464 q 376 556 450 556 q 294 537 325 556 q 251 474 264 518 q 239 354 239 429 q 249 231 239 279 q 290 162 260 183 q 376 140 321 140 m 700 404 l 961 404 q 931 533 961 496 q 833 569 900 569 q 733 531 767 569 q 700 404 700 493 z "},"p":{"ha":756,"x_min":76,"x_max":706,"o":"m 76 -293 l 76 697 l 260 697 l 261 653 q 310 679 281 665 q 375 703 340 693 q 443 713 410 713 q 644 623 583 713 q 706 351 706 533 q 675 140 706 221 q 577 22 644 60 q 400 -15 510 -15 q 325 -10 365 -15 q 261 1 285 -4 l 261 -293 l 76 -293 m 371 139 q 458 163 426 139 q 503 234 490 186 q 517 356 517 282 q 485 513 517 469 q 396 557 454 557 q 349 551 374 557 q 300 538 324 546 q 261 521 276 529 l 261 149 q 309 143 278 147 q 371 139 340 139 z "},"þ":{"ha":756,"x_min":76,"x_max":704,"o":"m 76 -293 l 76 989 l 261 989 l 261 675 q 346 700 294 688 q 440 713 397 713 q 595 674 538 713 q 678 556 653 636 q 704 353 704 476 q 675 141 704 222 q 577 22 646 60 q 392 -15 508 -15 q 326 -11 364 -15 q 261 -3 288 -7 l 261 -293 l 76 -293 m 361 139 q 460 164 426 139 q 504 238 493 189 q 515 357 515 286 q 504 473 515 429 q 467 537 493 517 q 396 557 440 557 q 323 547 361 557 q 261 529 285 538 l 261 146 q 311 141 282 143 q 361 139 340 139 z "},"q":{"ha":754,"x_min":50,"x_max":678,"o":"m 492 -293 l 492 22 q 412 -2 463 11 q 318 -15 361 -15 q 162 24 221 -15 q 76 143 103 64 q 50 338 50 222 q 85 559 50 476 q 197 677 119 642 q 400 713 274 713 q 481 710 432 713 q 584 703 531 707 q 678 696 638 700 l 678 -293 l 492 -293 m 363 142 q 435 151 399 142 q 492 168 471 160 l 492 553 q 446 557 474 556 q 399 558 418 558 q 299 534 333 558 q 251 461 264 510 q 239 340 239 413 q 267 188 239 235 q 363 142 296 142 z "},"r":{"ha":493,"x_min":76,"x_max":474,"o":"m 76 0 l 76 697 l 261 697 l 261 615 q 319 653 285 633 q 395 691 354 674 q 474 714 436 708 l 474 535 q 397 516 438 529 q 322 488 357 503 q 261 460 286 472 l 261 0 l 76 0 z "},"ŕ":{"ha":493,"x_min":67,"x_max":474,"o":"m 76 0 l 76 697 l 261 697 l 261 615 q 319 653 285 633 q 395 691 354 674 q 474 714 436 708 l 474 535 q 397 516 438 529 q 322 488 357 503 q 261 460 286 472 l 261 0 l 76 0 m 147 801 l 67 906 l 338 1043 l 443 903 l 147 801 z "},"ř":{"ha":493,"x_min":24,"x_max":474,"o":"m 76 0 l 76 697 l 261 697 l 261 615 q 319 653 285 633 q 395 691 354 674 q 474 714 436 708 l 474 535 q 397 516 438 529 q 322 488 357 503 q 261 460 286 472 l 261 0 l 76 0 m 178 803 l 24 1013 l 176 1013 l 246 900 l 315 1013 l 468 1013 l 306 803 l 178 803 z "},"ŗ":{"ha":493,"x_min":42,"x_max":474,"o":"m 42 -383 l 88 -90 l 261 -90 l 186 -383 l 42 -383 m 76 0 l 76 697 l 261 697 l 261 615 q 319 653 285 633 q 395 691 354 674 q 474 714 436 708 l 474 535 q 397 516 438 529 q 322 488 357 503 q 261 460 286 472 l 261 0 l 76 0 z "},"s":{"ha":660,"x_min":49,"x_max":614,"o":"m 328 -15 q 230 -10 282 -15 q 133 1 178 -6 q 56 15 88 8 l 61 153 q 142 143 97 149 q 231 134 188 138 q 303 131 275 131 q 372 138 344 131 q 413 160 399 144 q 426 207 426 176 q 415 243 426 231 q 370 265 403 256 q 275 283 338 274 q 147 315 197 294 q 72 377 96 336 q 49 489 49 418 q 86 624 49 575 q 186 692 124 672 q 322 713 249 713 q 422 708 371 713 q 519 696 474 703 q 596 682 565 689 l 590 542 q 510 552 556 547 q 419 560 464 557 q 343 563 374 563 q 286 556 311 563 q 248 536 261 550 q 235 494 235 522 q 246 463 235 475 q 288 441 257 450 q 379 424 319 432 q 517 389 465 411 q 591 325 568 367 q 614 213 614 283 q 540 35 614 86 q 328 -15 465 -15 z "},"ś":{"ha":660,"x_min":49,"x_max":614,"o":"m 328 -15 q 230 -10 282 -15 q 133 1 178 -6 q 56 15 88 8 l 61 153 q 142 143 97 149 q 231 134 188 138 q 303 131 275 131 q 372 138 344 131 q 413 160 399 144 q 426 207 426 176 q 415 243 426 231 q 370 265 403 256 q 275 283 338 274 q 147 315 197 294 q 72 377 96 336 q 49 489 49 418 q 86 624 49 575 q 186 692 124 672 q 322 713 249 713 q 422 708 371 713 q 519 696 474 703 q 596 682 565 689 l 590 542 q 510 552 556 547 q 419 560 464 557 q 343 563 374 563 q 286 556 311 563 q 248 536 261 550 q 235 494 235 522 q 246 463 235 475 q 288 441 257 450 q 379 424 319 432 q 517 389 465 411 q 591 325 568 367 q 614 213 614 283 q 540 35 614 86 q 328 -15 465 -15 m 236 801 l 156 906 l 426 1043 l 532 903 l 236 801 z "},"š":{"ha":660,"x_min":49,"x_max":614,"o":"m 328 -15 q 230 -10 282 -15 q 133 1 178 -6 q 56 15 88 8 l 61 153 q 142 143 97 149 q 231 134 188 138 q 303 131 275 131 q 372 138 344 131 q 413 160 399 144 q 426 207 426 176 q 415 243 426 231 q 370 265 403 256 q 275 283 338 274 q 147 315 197 294 q 72 377 96 336 q 49 489 49 418 q 86 624 49 575 q 186 692 124 672 q 322 713 249 713 q 422 708 371 713 q 519 696 474 703 q 596 682 565 689 l 590 542 q 510 552 556 547 q 419 560 464 557 q 343 563 374 563 q 286 556 311 563 q 248 536 261 550 q 235 494 235 522 q 246 463 235 475 q 288 441 257 450 q 379 424 319 432 q 517 389 465 411 q 591 325 568 367 q 614 213 614 283 q 540 35 614 86 q 328 -15 465 -15 m 271 803 l 117 1013 l 269 1013 l 339 900 l 408 1013 l 561 1013 l 399 803 l 271 803 z "},"ş":{"ha":660,"x_min":49,"x_max":614,"o":"m 328 -15 q 230 -10 282 -15 q 133 1 178 -6 q 56 15 88 8 l 61 153 q 142 143 97 149 q 231 134 188 138 q 303 131 275 131 q 372 138 344 131 q 413 160 399 144 q 426 207 426 176 q 415 243 426 231 q 370 265 403 256 q 275 283 338 274 q 147 315 197 294 q 72 377 96 336 q 49 489 49 418 q 86 624 49 575 q 186 692 124 672 q 322 713 249 713 q 422 708 371 713 q 519 696 474 703 q 596 682 565 689 l 590 542 q 510 552 556 547 q 419 560 464 557 q 343 563 374 563 q 286 556 311 563 q 248 536 261 550 q 235 494 235 522 q 246 463 235 475 q 288 441 257 450 q 379 424 319 432 q 517 389 465 411 q 591 325 568 367 q 614 213 614 283 q 540 35 614 86 q 328 -15 465 -15 m 367 -310 q 287 -306 326 -310 q 225 -297 247 -303 l 229 -214 q 266 -216 238 -215 q 311 -217 294 -217 q 354 -206 340 -217 q 368 -174 368 -196 q 354 -142 368 -150 q 311 -135 340 -135 l 271 -135 l 271 7 l 346 7 l 346 -58 q 474 -81 433 -60 q 515 -174 515 -103 q 476 -278 515 -246 q 367 -310 436 -310 z "},"ŝ":{"ha":660,"x_min":49,"x_max":614,"o":"m 328 -15 q 230 -10 282 -15 q 133 1 178 -6 q 56 15 88 8 l 61 153 q 142 143 97 149 q 231 134 188 138 q 303 131 275 131 q 372 138 344 131 q 413 160 399 144 q 426 207 426 176 q 415 243 426 231 q 370 265 403 256 q 275 283 338 274 q 147 315 197 294 q 72 377 96 336 q 49 489 49 418 q 86 624 49 575 q 186 692 124 672 q 322 713 249 713 q 422 708 371 713 q 519 696 474 703 q 596 682 565 689 l 590 542 q 510 552 556 547 q 419 560 464 557 q 343 563 374 563 q 286 556 311 563 q 248 536 261 550 q 235 494 235 522 q 246 463 235 475 q 288 441 257 450 q 379 424 319 432 q 517 389 465 411 q 591 325 568 367 q 614 213 614 283 q 540 35 614 86 q 328 -15 465 -15 m 108 803 l 263 1013 l 392 1013 l 553 803 l 400 803 l 331 915 l 263 803 l 108 803 z "},"ș":{"ha":660,"x_min":49,"x_max":614,"o":"m 160 -383 l 206 -90 l 381 -90 l 304 -383 l 160 -383 m 328 -15 q 230 -10 282 -15 q 133 1 178 -6 q 56 15 88 8 l 61 153 q 142 143 97 149 q 231 134 188 138 q 303 131 275 131 q 372 138 344 131 q 413 160 399 144 q 426 207 426 176 q 415 243 426 231 q 370 265 403 256 q 275 283 338 274 q 147 315 197 294 q 72 377 96 336 q 49 489 49 418 q 86 624 49 575 q 186 692 124 672 q 322 713 249 713 q 422 708 371 713 q 519 696 474 703 q 596 682 565 689 l 590 542 q 510 552 556 547 q 419 560 464 557 q 343 563 374 563 q 286 556 311 563 q 248 536 261 550 q 235 494 235 522 q 246 463 235 475 q 288 441 257 450 q 379 424 319 432 q 517 389 465 411 q 591 325 568 367 q 614 213 614 283 q 540 35 614 86 q 328 -15 465 -15 z "},"ß":{"ha":864,"x_min":76,"x_max":832,"o":"m 558 -15 q 436 -6 500 -15 q 335 10 372 3 l 340 144 q 398 138 365 142 q 463 133 431 135 q 519 131 496 131 q 619 156 592 131 q 647 231 647 181 q 636 274 647 256 q 594 310 625 292 q 504 354 564 328 q 418 402 449 379 q 374 452 388 425 q 361 514 361 479 q 385 597 361 567 q 458 653 408 626 q 522 701 507 681 q 536 753 536 722 q 509 817 536 797 q 411 838 482 838 q 326 826 358 838 q 277 785 293 814 q 261 703 261 757 l 261 0 l 76 0 l 76 707 q 110 881 76 818 q 217 971 143 944 q 411 997 292 997 q 594 975 525 997 q 694 906 663 953 q 725 785 725 860 q 715 706 725 736 q 683 656 706 676 q 622 617 660 636 q 555 581 571 593 q 539 550 539 568 q 562 513 539 529 q 657 464 585 497 q 762 408 724 436 q 816 343 800 381 q 832 244 832 306 q 805 94 832 151 q 719 11 778 38 q 558 -15 660 -15 z "},"t":{"ha":499,"x_min":28,"x_max":478,"o":"m 321 -17 q 197 6 244 -17 q 130 83 150 28 q 110 236 110 138 l 110 543 l 28 543 l 28 697 l 110 697 l 110 882 l 294 882 l 294 697 l 472 697 l 472 543 l 294 543 l 294 285 q 299 200 294 231 q 321 157 304 169 q 372 144 338 144 q 401 146 382 144 q 440 149 421 147 q 472 151 460 150 l 478 3 q 398 -10 444 -3 q 321 -17 351 -17 z "},"ŧ":{"ha":501,"x_min":28,"x_max":478,"o":"m 46 325 l 46 433 l 444 433 l 444 325 l 46 325 m 321 -17 q 197 6 244 -17 q 130 83 150 28 q 110 236 110 138 l 110 543 l 28 543 l 28 697 l 110 697 l 110 882 l 294 882 l 294 697 l 472 697 l 472 543 l 294 543 l 294 285 q 299 200 294 231 q 321 157 304 169 q 372 144 338 144 q 401 146 382 144 q 440 149 421 147 q 472 151 460 150 l 478 3 q 398 -10 444 -3 q 321 -17 351 -17 z "},"ť":{"ha":650,"x_min":28,"x_max":661,"o":"m 482 681 l 493 992 l 661 992 l 629 681 l 482 681 m 321 -17 q 197 6 244 -17 q 130 83 150 28 q 110 236 110 138 l 110 543 l 28 543 l 28 697 l 110 697 l 110 882 l 294 882 l 294 697 l 472 697 l 472 543 l 294 543 l 294 285 q 299 200 294 231 q 321 157 304 169 q 372 144 338 144 q 401 146 382 144 q 440 149 421 147 q 472 151 460 150 l 478 3 q 398 -10 444 -3 q 321 -17 351 -17 z "},"ţ":{"ha":499,"x_min":28,"x_max":478,"o":"m 321 -17 q 197 6 244 -17 q 130 83 150 28 q 110 236 110 138 l 110 543 l 28 543 l 28 697 l 110 697 l 110 882 l 294 882 l 294 697 l 472 697 l 472 543 l 294 543 l 294 285 q 299 200 294 231 q 321 157 304 169 q 372 144 338 144 q 401 146 382 144 q 440 149 421 147 q 472 151 460 150 l 478 3 q 398 -10 444 -3 q 321 -17 351 -17 m 322 -310 q 242 -306 282 -310 q 181 -297 203 -303 l 185 -214 q 222 -216 193 -215 q 267 -217 250 -217 q 310 -206 296 -217 q 324 -174 324 -196 q 310 -142 324 -150 q 267 -135 296 -135 l 226 -135 l 226 7 l 301 7 l 301 -58 q 430 -81 389 -60 q 471 -174 471 -103 q 431 -278 471 -246 q 322 -310 392 -310 z "},"ț":{"ha":499,"x_min":28,"x_max":478,"o":"m 119 -383 l 165 -90 l 340 -90 l 264 -383 l 119 -383 m 321 -17 q 197 6 244 -17 q 130 83 150 28 q 110 236 110 138 l 110 543 l 28 543 l 28 697 l 110 697 l 110 882 l 294 882 l 294 697 l 472 697 l 472 543 l 294 543 l 294 285 q 299 200 294 231 q 321 157 304 169 q 372 144 338 144 q 401 146 382 144 q 440 149 421 147 q 472 151 460 150 l 478 3 q 398 -10 444 -3 q 321 -17 351 -17 z "},"u":{"ha":763,"x_min":69,"x_max":686,"o":"m 299 -15 q 159 23 208 -15 q 90 139 110 61 q 69 335 69 217 l 69 697 l 254 697 l 254 343 q 262 226 254 269 q 293 165 269 183 q 361 147 317 147 q 442 158 404 147 q 501 181 479 169 l 501 697 l 686 697 l 686 0 l 503 0 l 503 43 q 409 1 456 17 q 299 -15 363 -15 z "},"ú":{"ha":763,"x_min":69,"x_max":686,"o":"m 299 -15 q 159 23 208 -15 q 90 139 110 61 q 69 335 69 217 l 69 697 l 254 697 l 254 343 q 262 226 254 269 q 293 165 269 183 q 361 147 317 147 q 442 158 404 147 q 501 181 479 169 l 501 697 l 686 697 l 686 0 l 503 0 l 503 43 q 409 1 456 17 q 299 -15 363 -15 m 297 801 l 217 906 l 488 1043 l 593 903 l 297 801 z "},"ŭ":{"ha":763,"x_min":69,"x_max":686,"o":"m 299 -15 q 159 23 208 -15 q 90 139 110 61 q 69 335 69 217 l 69 697 l 254 697 l 254 343 q 262 226 254 269 q 293 165 269 183 q 361 147 317 147 q 442 158 404 147 q 501 181 479 169 l 501 697 l 686 697 l 686 0 l 503 0 l 503 43 q 409 1 456 17 q 299 -15 363 -15 m 375 793 q 256 822 303 793 q 188 898 210 851 q 163 999 165 944 l 279 1004 q 306 935 282 963 q 375 908 331 908 q 447 935 422 908 q 472 1004 471 963 l 589 999 q 564 898 586 944 q 496 822 542 851 q 375 793 450 793 z "},"û":{"ha":763,"x_min":69,"x_max":686,"o":"m 299 -15 q 159 23 208 -15 q 90 139 110 61 q 69 335 69 217 l 69 697 l 254 697 l 254 343 q 262 226 254 269 q 293 165 269 183 q 361 147 317 147 q 442 158 404 147 q 501 181 479 169 l 501 697 l 686 697 l 686 0 l 503 0 l 503 43 q 409 1 456 17 q 299 -15 363 -15 m 150 803 l 304 1013 l 433 1013 l 594 803 l 442 803 l 372 915 l 304 803 l 150 803 z "},"ü":{"ha":763,"x_min":69,"x_max":686,"o":"m 299 -15 q 159 23 208 -15 q 90 139 110 61 q 69 335 69 217 l 69 697 l 254 697 l 254 343 q 262 226 254 269 q 293 165 269 183 q 361 147 317 147 q 442 158 404 147 q 501 181 479 169 l 501 697 l 686 697 l 686 0 l 503 0 l 503 43 q 409 1 456 17 q 299 -15 363 -15 m 471 829 l 471 989 l 622 989 l 622 829 l 471 829 m 186 829 l 186 989 l 338 989 l 338 829 l 186 829 z "},"ù":{"ha":763,"x_min":69,"x_max":686,"o":"m 299 -15 q 159 23 208 -15 q 90 139 110 61 q 69 335 69 217 l 69 697 l 254 697 l 254 343 q 262 226 254 269 q 293 165 269 183 q 361 147 317 147 q 442 158 404 147 q 501 181 479 169 l 501 697 l 686 697 l 686 0 l 503 0 l 503 43 q 409 1 456 17 q 299 -15 363 -15 m 438 801 l 142 903 l 247 1043 l 519 906 l 438 801 z "},"ű":{"ha":763,"x_min":69,"x_max":750,"o":"m 299 -15 q 159 23 208 -15 q 90 139 110 61 q 69 335 69 217 l 69 697 l 254 697 l 254 343 q 262 226 254 269 q 293 165 269 183 q 361 147 317 147 q 442 158 404 147 q 501 181 479 169 l 501 697 l 686 697 l 686 0 l 503 0 l 503 43 q 409 1 456 17 q 299 -15 363 -15 m 578 794 l 460 832 l 600 1042 l 750 1004 l 578 794 m 294 794 l 176 832 l 318 1042 l 468 1004 l 294 794 z "},"ū":{"ha":763,"x_min":69,"x_max":686,"o":"m 299 -15 q 159 23 208 -15 q 90 139 110 61 q 69 335 69 217 l 69 697 l 254 697 l 254 343 q 262 226 254 269 q 293 165 269 183 q 361 147 317 147 q 442 158 404 147 q 501 181 479 169 l 501 697 l 686 697 l 686 0 l 503 0 l 503 43 q 409 1 456 17 q 299 -15 363 -15 m 176 833 l 176 963 l 588 963 l 588 833 l 176 833 z "},"ẫ":{"ha":726,"x_min":40,"x_max":703,"o":"m 258 -15 q 95 40 150 -15 q 40 206 40 94 q 68 327 40 283 q 151 391 96 371 q 285 415 206 411 l 454 431 l 454 472 q 429 542 454 522 q 356 563 404 563 q 266 560 317 563 q 166 553 215 557 q 81 544 117 549 l 75 675 q 162 692 111 683 q 268 707 213 701 q 371 713 324 713 q 519 690 460 713 q 610 617 579 668 q 640 481 640 567 l 640 163 q 661 133 643 143 q 703 118 679 122 l 699 -10 q 633 -11 665 -11 q 579 -7 601 -11 q 524 10 547 -3 q 488 36 501 22 q 428 14 465 26 q 347 -7 390 1 q 258 -15 303 -15 m 303 122 q 358 128 329 122 q 413 141 388 133 q 454 156 439 149 l 454 315 l 313 303 q 247 276 267 299 q 226 211 226 253 q 245 146 226 169 q 303 122 264 122 m 126 776 l 281 986 l 410 986 l 571 776 l 418 776 l 349 889 l 281 776 l 126 776 m 444 1029 q 394 1038 422 1029 q 339 1060 367 1047 q 287 1082 311 1072 q 246 1092 263 1092 q 195 1073 226 1092 q 140 1036 164 1054 l 110 1140 q 172 1193 133 1167 q 244 1219 211 1219 q 297 1210 269 1219 q 352 1188 325 1200 q 403 1167 379 1176 q 442 1157 426 1157 q 490 1175 458 1157 q 544 1211 522 1193 l 576 1106 q 517 1056 554 1082 q 444 1029 479 1029 z "},"ễ":{"ha":728,"x_min":50,"x_max":681,"o":"m 146 776 l 300 986 l 429 986 l 590 776 l 438 776 l 368 889 l 300 776 l 146 776 m 464 1029 q 414 1038 442 1029 q 358 1060 386 1047 q 306 1082 331 1072 q 265 1092 282 1092 q 215 1073 246 1092 q 160 1036 183 1054 l 129 1140 q 192 1193 153 1167 q 264 1219 231 1219 q 317 1210 289 1219 q 372 1188 344 1200 q 422 1167 399 1176 q 461 1157 446 1157 q 510 1175 478 1157 q 564 1211 542 1193 l 596 1106 q 536 1056 574 1082 q 464 1029 499 1029 m 358 -15 q 176 24 243 -15 q 79 142 108 63 q 50 340 50 221 q 87 551 50 469 q 194 673 124 633 q 369 713 265 713 q 602 635 524 713 q 681 389 681 557 l 672 286 l 236 286 q 268 169 238 208 q 374 131 299 131 q 468 133 417 131 q 570 138 519 135 q 657 143 621 140 l 661 14 q 574 1 626 8 q 465 -10 521 -6 q 358 -15 408 -15 m 236 404 l 496 404 q 466 536 496 499 q 369 574 436 574 q 270 535 304 574 q 236 404 236 496 z "},"ỗ":{"ha":753,"x_min":51,"x_max":703,"o":"m 376 -15 q 187 24 258 -15 q 83 144 115 63 q 51 354 51 225 q 85 558 51 479 q 190 674 118 636 q 376 713 263 713 q 563 674 492 713 q 669 558 635 636 q 703 354 703 479 q 671 144 703 225 q 567 24 639 63 q 376 -15 496 -15 m 376 138 q 464 159 435 138 q 503 228 493 181 q 514 354 514 276 q 501 476 514 431 q 460 540 489 521 q 376 560 431 560 q 294 540 324 560 q 251 476 264 521 q 239 354 239 431 q 249 228 239 276 q 289 159 260 181 q 376 138 318 138 m 150 776 l 304 986 l 433 986 l 594 776 l 442 776 l 372 889 l 304 776 l 150 776 m 463 1029 q 413 1038 440 1029 q 357 1060 385 1047 q 305 1082 329 1072 q 264 1092 281 1092 q 213 1073 244 1092 q 158 1036 182 1054 l 128 1140 q 190 1193 151 1167 q 263 1219 229 1219 q 315 1210 288 1219 q 370 1188 343 1200 q 421 1167 397 1176 q 460 1157 444 1157 q 508 1175 476 1157 q 563 1211 540 1193 l 594 1106 q 535 1056 572 1082 q 463 1029 497 1029 z "},"ỹ":{"ha":706,"x_min":22,"x_max":685,"o":"m 450 815 q 400 824 428 815 q 344 846 372 833 q 292 868 317 858 q 251 878 268 878 q 201 859 232 878 q 146 822 169 840 l 115 926 q 178 979 139 953 q 250 1006 217 1006 q 303 996 275 1006 q 358 974 331 986 q 408 953 385 963 q 447 943 432 943 q 496 961 464 943 q 550 997 528 979 l 582 892 q 522 842 560 868 q 450 815 485 815 m 247 -293 l 336 0 l 188 0 l 22 697 l 215 697 l 339 157 l 375 157 l 499 697 l 685 697 l 444 -293 l 247 -293 z "},"ų":{"ha":763,"x_min":69,"x_max":708,"o":"m 569 -301 q 482 -285 519 -301 q 425 -239 444 -268 q 406 -168 406 -210 q 426 -92 406 -128 q 478 -29 447 -57 q 540 17 510 -1 l 681 1 q 631 -48 654 -22 q 594 -99 608 -74 q 581 -143 581 -124 q 592 -174 581 -162 q 626 -186 603 -186 q 660 -183 640 -186 q 693 -179 679 -181 l 708 -286 q 645 -296 683 -290 q 569 -301 607 -301 m 299 -15 q 159 23 208 -15 q 90 139 110 61 q 69 335 69 217 l 69 697 l 254 697 l 254 343 q 262 226 254 269 q 293 165 269 183 q 361 147 317 147 q 442 158 404 147 q 501 181 479 169 l 501 697 l 686 697 l 686 0 l 503 0 l 503 43 q 409 1 456 17 q 299 -15 363 -15 z "},"ů":{"ha":763,"x_min":69,"x_max":686,"o":"m 299 -15 q 159 23 208 -15 q 90 139 110 61 q 69 335 69 217 l 69 697 l 254 697 l 254 343 q 262 226 254 269 q 293 165 269 183 q 361 147 317 147 q 442 158 404 147 q 501 181 479 169 l 501 697 l 686 697 l 686 0 l 503 0 l 503 43 q 409 1 456 17 q 299 -15 363 -15 m 382 751 q 267 790 313 751 q 221 894 221 828 q 267 998 221 960 q 382 1036 313 1036 q 497 998 451 1036 q 543 894 543 960 q 498 791 543 831 q 382 751 453 751 m 383 835 q 428 851 410 835 q 446 894 446 868 q 428 936 446 919 q 383 953 410 953 q 338 936 357 953 q 319 894 319 919 q 338 851 319 868 q 383 835 357 835 z "},"ũ":{"ha":763,"x_min":69,"x_max":686,"o":"m 299 -15 q 159 23 208 -15 q 90 139 110 61 q 69 335 69 217 l 69 697 l 254 697 l 254 343 q 262 226 254 269 q 293 165 269 183 q 361 147 317 147 q 442 158 404 147 q 501 181 479 169 l 501 697 l 686 697 l 686 0 l 503 0 l 503 43 q 409 1 456 17 q 299 -15 363 -15 m 483 815 q 433 824 461 815 q 378 846 406 833 q 326 868 350 858 q 285 878 301 878 q 234 859 265 878 q 179 822 203 840 l 149 926 q 211 979 172 953 q 283 1006 250 1006 q 336 996 308 1006 q 391 974 364 986 q 442 953 418 963 q 481 943 465 943 q 529 961 497 943 q 583 997 561 979 l 615 892 q 556 842 593 868 q 483 815 518 815 z "},"v":{"ha":704,"x_min":21,"x_max":683,"o":"m 186 0 l 21 697 l 219 697 l 336 157 l 376 157 l 496 697 l 683 697 l 518 0 l 186 0 z "},"w":{"ha":1075,"x_min":32,"x_max":1043,"o":"m 165 0 l 32 697 l 229 697 l 319 157 l 340 157 l 453 682 l 631 682 l 747 157 l 768 157 l 858 697 l 1043 697 l 914 0 l 635 0 l 536 449 l 438 0 l 165 0 z "},"ẃ":{"ha":1075,"x_min":32,"x_max":1043,"o":"m 165 0 l 32 697 l 229 697 l 319 157 l 340 157 l 453 682 l 631 682 l 747 157 l 768 157 l 858 697 l 1043 697 l 914 0 l 635 0 l 536 449 l 438 0 l 165 0 m 457 801 l 376 906 l 647 1043 l 753 903 l 457 801 z "},"ŵ":{"ha":1075,"x_min":32,"x_max":1043,"o":"m 165 0 l 32 697 l 229 697 l 319 157 l 340 157 l 453 682 l 631 682 l 747 157 l 768 157 l 858 697 l 1043 697 l 914 0 l 635 0 l 536 449 l 438 0 l 165 0 m 317 803 l 471 1013 l 600 1013 l 761 803 l 608 803 l 539 915 l 471 803 l 317 803 z "},"ẅ":{"ha":1075,"x_min":32,"x_max":1043,"o":"m 165 0 l 32 697 l 229 697 l 319 157 l 340 157 l 453 682 l 631 682 l 747 157 l 768 157 l 858 697 l 1043 697 l 914 0 l 635 0 l 536 449 l 438 0 l 165 0 m 624 829 l 624 989 l 775 989 l 775 829 l 624 829 m 339 829 l 339 989 l 490 989 l 490 829 l 339 829 z "},"ẁ":{"ha":1075,"x_min":32,"x_max":1043,"o":"m 165 0 l 32 697 l 229 697 l 319 157 l 340 157 l 453 682 l 631 682 l 747 157 l 768 157 l 858 697 l 1043 697 l 914 0 l 635 0 l 536 449 l 438 0 l 165 0 m 635 801 l 339 903 l 444 1043 l 717 906 l 635 801 z "},"x":{"ha":674,"x_min":18,"x_max":656,"o":"m 18 0 l 204 347 l 18 697 l 218 697 l 342 456 l 467 697 l 656 697 l 474 351 l 654 0 l 453 0 l 329 233 l 210 0 l 18 0 z "},"y":{"ha":706,"x_min":22,"x_max":685,"o":"m 247 -293 l 336 0 l 188 0 l 22 697 l 215 697 l 339 157 l 375 157 l 499 697 l 685 697 l 444 -293 l 247 -293 z "},"ý":{"ha":706,"x_min":22,"x_max":685,"o":"m 247 -293 l 336 0 l 188 0 l 22 697 l 215 697 l 339 157 l 375 157 l 499 697 l 685 697 l 444 -293 l 247 -293 m 281 801 l 200 906 l 471 1043 l 576 903 l 281 801 z "},"ŷ":{"ha":706,"x_min":22,"x_max":685,"o":"m 247 -293 l 336 0 l 188 0 l 22 697 l 215 697 l 339 157 l 375 157 l 499 697 l 685 697 l 444 -293 l 247 -293 m 138 803 l 292 1013 l 421 1013 l 582 803 l 429 803 l 360 915 l 292 803 l 138 803 z "},"ÿ":{"ha":706,"x_min":22,"x_max":685,"o":"m 247 -293 l 336 0 l 188 0 l 22 697 l 215 697 l 339 157 l 375 157 l 499 697 l 685 697 l 444 -293 l 247 -293 m 438 829 l 438 989 l 589 989 l 589 829 l 438 829 m 153 829 l 153 989 l 304 989 l 304 829 l 153 829 z "},"ỳ":{"ha":706,"x_min":22,"x_max":685,"o":"m 247 -293 l 336 0 l 188 0 l 22 697 l 215 697 l 339 157 l 375 157 l 499 697 l 685 697 l 444 -293 l 247 -293 m 460 801 l 164 903 l 269 1043 l 542 906 l 460 801 z "},"z":{"ha":656,"x_min":49,"x_max":608,"o":"m 49 0 l 49 157 l 364 533 l 49 533 l 49 697 l 607 697 l 607 546 l 289 164 l 608 164 l 608 0 l 49 0 z "},"ź":{"ha":656,"x_min":49,"x_max":608,"o":"m 49 0 l 49 157 l 364 533 l 49 533 l 49 697 l 607 697 l 607 546 l 289 164 l 608 164 l 608 0 l 49 0 m 240 801 l 160 906 l 431 1043 l 536 903 l 240 801 z "},"ž":{"ha":656,"x_min":49,"x_max":608,"o":"m 49 0 l 49 157 l 364 533 l 49 533 l 49 697 l 607 697 l 607 546 l 289 164 l 608 164 l 608 0 l 49 0 m 264 803 l 110 1013 l 263 1013 l 332 900 l 401 1013 l 554 1013 l 392 803 l 264 803 z "},"ż":{"ha":656,"x_min":49,"x_max":608,"o":"m 49 0 l 49 157 l 364 533 l 49 533 l 49 697 l 607 697 l 607 546 l 289 164 l 608 164 l 608 0 l 49 0 m 246 819 l 246 978 l 411 978 l 411 819 l 246 819 z "},"ª":{"ha":519,"x_min":54,"x_max":465,"o":"m 460 507 q 383 516 417 510 q 328 537 349 522 q 304 581 307 551 l 304 778 q 288 811 304 801 q 239 819 272 821 q 166 816 213 819 q 81 810 119 813 l 74 892 q 165 912 117 904 q 258 919 213 919 q 388 887 344 919 q 431 772 431 854 l 431 614 q 447 602 438 606 q 465 596 456 599 l 460 507 m 172 506 q 86 541 118 506 q 54 633 54 576 q 194 753 54 746 l 335 760 l 335 685 l 226 678 q 192 667 201 676 q 182 638 182 658 q 221 596 182 596 q 280 604 247 596 q 336 624 313 613 l 332 561 q 258 521 300 536 q 172 506 217 506 z "},"º":{"ha":515,"x_min":53,"x_max":461,"o":"m 258 506 q 103 555 154 506 q 53 714 53 604 q 103 871 53 822 q 258 919 154 919 q 412 871 363 919 q 461 714 461 822 q 412 555 461 604 q 258 506 363 506 m 258 613 q 315 636 299 613 q 331 714 331 660 q 315 790 331 768 q 258 813 299 813 q 201 790 218 813 q 183 714 183 768 q 201 636 183 660 q 258 613 218 613 z "},"π":{"ha":772,"x_min":28,"x_max":735,"o":"m 719 -3 q 557 15 615 -3 q 475 79 499 32 q 449 214 451 126 l 449 639 l 599 640 l 599 272 q 608 185 599 214 q 643 149 617 157 q 719 142 669 142 l 719 -3 m 117 0 l 160 636 l 317 636 l 278 0 l 117 0 m 28 510 l 28 675 q 85 684 51 681 q 156 691 118 688 q 231 694 194 694 l 547 694 q 617 697 582 694 q 684 705 653 700 q 735 715 715 710 l 735 550 q 660 535 715 542 q 526 531 606 528 l 500 528 l 253 528 l 218 524 q 109 524 161 529 q 28 510 57 518 z "},"ء":{"ha":803,"x_min":53,"x_max":757,"o":"m 236 32 q 149 160 178 97 q 121 293 121 222 q 149 431 121 368 q 228 539 178 493 q 344 610 278 585 q 483 636 410 636 q 595 622 540 636 q 690 579 650 607 l 607 444 q 490 475 553 475 q 394 452 436 475 q 330 389 353 429 q 307 296 307 349 q 323 215 307 253 q 375 138 339 178 l 236 32 m 53 0 l 53 161 l 757 161 l 757 0 l 53 0 z "},"ا":{"ha":435,"x_min":125,"x_max":310,"o":"m 125 0 l 125 982 l 310 982 l 310 0 l 125 0 z "},"ﺎ":{"ha":468,"x_min":125,"x_max":496,"o":"m 310 0 l 310 161 l 468 161 l 468 0 l 310 0 m 125 0 l 125 982 l 310 982 l 310 0 l 125 0 m 468 0 l 468 161 q 490 140 485 161 q 496 81 496 118 q 490 22 496 44 q 468 0 485 0 z "},"أ":{"ha":435,"x_min":49,"x_max":385,"o":"m 125 0 l 125 982 l 310 982 l 310 0 l 125 0 m 133 1093 q 93 1154 107 1125 q 79 1217 79 1183 q 104 1302 79 1264 q 169 1362 129 1340 q 258 1383 210 1383 q 313 1376 285 1383 q 360 1356 340 1369 l 313 1271 q 288 1280 300 1278 q 264 1282 276 1282 q 213 1265 231 1282 q 194 1218 194 1247 q 201 1186 194 1201 q 222 1153 208 1171 l 133 1093 m 49 1082 l 49 1183 l 385 1183 l 385 1082 l 49 1082 z "},"ﺄ":{"ha":468,"x_min":49,"x_max":496,"o":"m 310 0 l 310 161 l 468 161 l 468 0 l 310 0 m 125 0 l 125 982 l 310 982 l 310 0 l 125 0 m 468 0 l 468 161 q 490 140 485 161 q 496 81 496 118 q 490 22 496 44 q 468 0 485 0 m 133 1093 q 93 1154 107 1125 q 79 1217 79 1183 q 104 1302 79 1264 q 169 1362 129 1340 q 258 1383 210 1383 q 313 1376 285 1383 q 360 1356 340 1369 l 313 1271 q 288 1280 300 1278 q 264 1282 276 1282 q 213 1265 231 1282 q 194 1218 194 1247 q 201 1186 194 1201 q 222 1153 208 1171 l 133 1093 m 49 1082 l 49 1183 l 385 1183 l 385 1082 l 49 1082 z "},"إ":{"ha":435,"x_min":49,"x_max":385,"o":"m 125 0 l 125 982 l 310 982 l 310 0 l 125 0 m 133 -415 q 93 -354 107 -383 q 79 -292 79 -325 q 104 -206 79 -244 q 169 -147 129 -168 q 258 -125 210 -125 q 313 -132 285 -125 q 360 -153 340 -139 l 313 -237 q 288 -228 300 -231 q 264 -226 276 -226 q 213 -244 231 -226 q 194 -290 194 -261 q 201 -322 194 -307 q 222 -356 208 -337 l 133 -415 m 49 -426 l 49 -325 l 385 -325 l 385 -426 l 49 -426 z "},"ﺈ":{"ha":468,"x_min":49,"x_max":496,"o":"m 310 0 l 310 161 l 468 161 l 468 0 l 310 0 m 125 0 l 125 982 l 310 982 l 310 0 l 125 0 m 468 0 l 468 161 q 490 140 485 161 q 496 81 496 118 q 490 22 496 44 q 468 0 485 0 m 133 -415 q 93 -354 107 -383 q 79 -292 79 -325 q 104 -206 79 -244 q 169 -147 129 -168 q 258 -125 210 -125 q 313 -132 285 -125 q 360 -153 340 -139 l 313 -237 q 288 -228 300 -231 q 264 -226 276 -226 q 213 -244 231 -226 q 194 -290 194 -261 q 201 -322 194 -307 q 222 -356 208 -337 l 133 -415 m 49 -426 l 49 -325 l 385 -325 l 385 -426 l 49 -426 z "},"آ":{"ha":435,"x_min":-4,"x_max":432,"o":"m 125 0 l 125 982 l 310 982 l 310 0 l 125 0 m 69 1082 l -4 1138 l 69 1247 l 176 1247 q 222 1224 196 1232 q 276 1215 249 1215 q 330 1224 304 1215 q 374 1247 356 1232 l 432 1206 q 390 1153 415 1178 q 329 1115 364 1129 q 249 1100 294 1100 q 185 1109 215 1100 q 129 1136 154 1118 l 69 1082 z "},"ﺂ":{"ha":468,"x_min":-4,"x_max":496,"o":"m 310 0 l 310 161 l 468 161 l 468 0 l 310 0 m 125 0 l 125 982 l 310 982 l 310 0 l 125 0 m 468 0 l 468 161 q 490 140 485 161 q 496 81 496 118 q 490 22 496 44 q 468 0 485 0 m 69 1082 l -4 1138 l 69 1247 l 176 1247 q 222 1224 196 1232 q 276 1215 249 1215 q 330 1224 304 1215 q 374 1247 356 1232 l 432 1206 q 390 1153 415 1178 q 329 1115 364 1129 q 249 1100 294 1100 q 185 1109 215 1100 q 129 1136 154 1118 l 69 1082 z "},"ٱ":{"ha":435,"x_min":31,"x_max":403,"o":"m 125 0 l 125 982 l 310 982 l 310 0 l 125 0 m 74 1167 q 95 1247 74 1211 q 155 1302 117 1282 q 238 1322 193 1322 q 321 1302 283 1322 q 381 1247 358 1282 q 403 1167 403 1211 l 314 1167 q 292 1218 314 1197 q 238 1239 271 1239 q 184 1218 206 1239 q 163 1167 163 1197 l 74 1167 m 31 1083 l 31 1167 l 403 1167 l 403 1083 l 31 1083 z "},"ﭑ":{"ha":468,"x_min":31,"x_max":496,"o":"m 310 0 l 310 161 l 468 161 l 468 0 l 310 0 m 125 0 l 125 982 l 310 982 l 310 0 l 125 0 m 468 0 l 468 161 q 490 140 485 161 q 496 81 496 118 q 490 22 496 44 q 468 0 485 0 m 74 1167 q 95 1247 74 1211 q 155 1302 117 1282 q 238 1322 193 1322 q 321 1302 283 1322 q 381 1247 358 1282 q 403 1167 403 1211 l 314 1167 q 292 1218 314 1197 q 238 1239 271 1239 q 184 1218 206 1239 q 163 1167 163 1197 l 74 1167 m 31 1083 l 31 1167 l 403 1167 l 403 1083 l 31 1083 z "},"ٮ":{"ha":1164,"x_min":56,"x_max":1079,"o":"m 513 0 q 172 87 289 0 q 56 344 56 174 q 60 415 56 378 q 70 485 64 451 q 82 546 76 519 q 90 585 88 572 l 271 550 q 260 493 267 528 q 247 420 253 458 q 242 347 242 382 q 272 234 242 275 q 365 177 303 193 q 522 161 428 161 l 893 161 l 893 697 l 1079 697 l 1079 0 l 513 0 z "},"ب":{"ha":1164,"x_min":56,"x_max":1079,"o":"m 513 0 q 172 87 289 0 q 56 344 56 174 q 60 415 56 378 q 70 485 64 451 q 82 546 76 519 q 90 585 88 572 l 271 550 q 260 493 267 528 q 247 420 253 458 q 242 347 242 382 q 272 234 242 275 q 365 177 303 193 q 522 161 428 161 l 893 161 l 893 697 l 1079 697 l 1079 0 l 513 0 m 485 -296 l 485 -137 l 671 -137 l 671 -296 l 485 -296 z "},"ﺐ":{"ha":1225,"x_min":56,"x_max":1253,"o":"m 1079 0 l 1079 161 l 1225 161 l 1225 0 l 1079 0 m 513 0 q 172 87 289 0 q 56 344 56 174 q 60 415 56 378 q 70 485 64 451 q 82 546 76 519 q 90 585 88 572 l 271 550 q 260 493 267 528 q 247 420 253 458 q 242 347 242 382 q 272 234 242 275 q 365 177 303 193 q 522 161 428 161 l 893 161 l 893 697 l 1079 697 l 1079 0 l 513 0 m 1225 0 l 1225 161 q 1247 140 1242 161 q 1253 81 1253 118 q 1247 22 1253 44 q 1225 0 1242 0 m 485 -296 l 485 -137 l 671 -137 l 671 -296 l 485 -296 z "},"ﺒ":{"ha":478,"x_min":-28,"x_max":506,"o":"m 332 0 l 332 161 l 478 161 l 478 0 l 332 0 m 0 0 l 0 161 l 254 161 l 146 71 l 146 697 l 332 697 l 332 0 l 0 0 m 0 0 q -22 22 -17 0 q -28 81 -28 44 q -22 140 -28 118 q 0 161 -17 161 l 0 0 m 478 0 l 478 161 q 500 140 494 161 q 506 81 506 118 q 500 22 506 44 q 478 0 494 0 m 146 -296 l 146 -137 l 332 -137 l 332 -296 l 146 -296 z "},"ﺑ":{"ha":433,"x_min":-28,"x_max":332,"o":"m 0 0 l 0 161 l 254 161 l 146 71 l 146 697 l 332 697 l 332 0 l 0 0 m 0 0 q -22 22 -17 0 q -28 81 -28 44 q -22 140 -28 118 q 0 161 -17 161 l 0 0 m 146 -296 l 146 -137 l 332 -137 l 332 -296 l 146 -296 z "},"پ":{"ha":1164,"x_min":56,"x_max":1079,"o":"m 499 -349 l 660 -349 l 660 -487 l 499 -487 l 499 -349 m 364 -136 l 542 -136 l 542 -294 l 364 -294 l 364 -136 m 615 -136 l 794 -136 l 794 -294 l 615 -294 l 615 -136 m 513 0 q 172 87 289 0 q 56 344 56 174 q 60 415 56 378 q 70 485 64 451 q 82 546 76 519 q 90 585 88 572 l 271 550 q 260 493 267 528 q 247 420 253 458 q 242 347 242 382 q 272 234 242 275 q 365 177 303 193 q 522 161 428 161 l 893 161 l 893 697 l 1079 697 l 1079 0 l 513 0 z "},"ﭗ":{"ha":1225,"x_min":56,"x_max":1253,"o":"m 499 -349 l 660 -349 l 660 -487 l 499 -487 l 499 -349 m 364 -136 l 542 -136 l 542 -294 l 364 -294 l 364 -136 m 615 -136 l 794 -136 l 794 -294 l 615 -294 l 615 -136 m 1079 0 l 1079 161 l 1225 161 l 1225 0 l 1079 0 m 513 0 q 172 87 289 0 q 56 344 56 174 q 60 415 56 378 q 70 485 64 451 q 82 546 76 519 q 90 585 88 572 l 271 550 q 260 493 267 528 q 247 420 253 458 q 242 347 242 382 q 272 234 242 275 q 365 177 303 193 q 522 161 428 161 l 893 161 l 893 697 l 1079 697 l 1079 0 l 513 0 m 1225 0 l 1225 161 q 1247 140 1242 161 q 1253 81 1253 118 q 1247 22 1253 44 q 1225 0 1242 0 z "},"ﭙ":{"ha":532,"x_min":-28,"x_max":607,"o":"m 185 -322 l 346 -322 l 346 -462 l 185 -462 l 185 -322 m 50 -111 l 229 -111 l 229 -269 l 50 -269 l 50 -111 m 303 -111 l 482 -111 l 482 -269 l 303 -269 l 303 -111 m 406 0 l 406 161 l 579 161 l 579 0 l 406 0 m 579 0 l 579 161 q 601 140 596 161 q 607 81 607 118 q 601 22 607 44 q 579 0 596 0 m 0 0 l 0 161 l 329 161 l 221 71 l 221 697 l 406 697 l 406 0 l 0 0 m 0 0 q -22 22 -17 0 q -28 81 -28 44 q -22 140 -28 118 q 0 161 -17 161 l 0 0 z "},"ﭘ":{"ha":507,"x_min":-28,"x_max":481,"o":"m 185 -349 l 346 -349 l 346 -487 l 185 -487 l 185 -349 m 50 -136 l 228 -136 l 228 -294 l 50 -294 l 50 -136 m 301 -136 l 481 -136 l 481 -294 l 301 -294 l 301 -136 m 0 0 l 0 161 l 329 161 l 221 71 l 221 697 l 406 697 l 406 0 l 0 0 m 0 0 q -22 22 -17 0 q -28 81 -28 44 q -22 140 -28 118 q 0 161 -17 161 l 0 0 z "},"ﯩ":{"ha":478,"x_min":-28,"x_max":506,"o":"m 332 0 l 332 161 l 478 161 l 478 0 l 332 0 m 0 0 l 0 161 l 254 161 l 146 71 l 146 697 l 332 697 l 332 0 l 0 0 m 0 0 q -22 22 -17 0 q -28 81 -28 44 q -22 140 -28 118 q 0 161 -17 161 l 0 0 m 478 0 l 478 161 q 500 140 494 161 q 506 81 506 118 q 500 22 506 44 q 478 0 494 0 z "},"ﯨ":{"ha":433,"x_min":-28,"x_max":332,"o":"m 0 0 l 0 161 l 254 161 l 146 71 l 146 697 l 332 697 l 332 0 l 0 0 m 0 0 q -22 22 -17 0 q -28 81 -28 44 q -22 140 -28 118 q 0 161 -17 161 l 0 0 z "},"ت":{"ha":1097,"x_min":56,"x_max":1079,"o":"m 513 0 q 172 87 289 0 q 56 344 56 174 q 60 415 56 378 q 70 485 64 451 q 82 546 76 519 q 90 585 88 572 l 271 550 q 260 493 267 528 q 247 420 253 458 q 242 347 242 382 q 272 234 242 275 q 365 177 303 193 q 522 161 428 161 l 893 161 l 893 697 l 1079 697 l 1079 0 l 513 0 m 372 646 l 372 804 l 558 804 l 558 646 l 372 646 m 563 646 l 563 804 l 749 804 l 749 646 l 563 646 z "},"ﺖ":{"ha":1135,"x_min":56,"x_max":1253,"o":"m 1079 0 l 1079 161 l 1225 161 l 1225 0 l 1079 0 m 513 0 q 172 87 289 0 q 56 344 56 174 q 60 415 56 378 q 70 485 64 451 q 82 546 76 519 q 90 585 88 572 l 271 550 q 260 493 267 528 q 247 420 253 458 q 242 347 242 382 q 272 234 242 275 q 365 177 303 193 q 522 161 428 161 l 893 161 l 893 697 l 1079 697 l 1079 0 l 513 0 m 1225 0 l 1225 161 q 1247 140 1242 161 q 1253 81 1253 118 q 1247 22 1253 44 q 1225 0 1242 0 m 372 646 l 372 804 l 558 804 l 558 646 l 372 646 m 563 646 l 563 804 l 749 804 l 749 646 l 563 646 z "},"ﺘ":{"ha":408,"x_min":-28,"x_max":607,"o":"m 406 0 l 406 161 l 579 161 l 579 0 l 406 0 m 579 0 l 579 161 q 601 140 596 161 q 607 81 607 118 q 601 22 607 44 q 579 0 596 0 m 0 0 l 0 161 l 329 161 l 221 71 l 221 697 l 406 697 l 406 0 l 0 0 m 0 0 q -22 22 -17 0 q -28 81 -28 44 q -22 140 -28 118 q 0 161 -17 161 l 0 0 m 56 781 l 56 939 l 242 939 l 242 781 l 56 781 m 246 781 l 246 939 l 432 939 l 432 781 l 246 781 z "},"ﺗ":{"ha":371,"x_min":-28,"x_max":432,"o":"m 0 0 l 0 161 l 329 161 l 221 71 l 221 697 l 406 697 l 406 0 l 0 0 m 0 0 q -22 22 -17 0 q -28 81 -28 44 q -22 140 -28 118 q 0 161 -17 161 l 0 0 m 56 781 l 56 939 l 242 939 l 242 781 l 56 781 m 246 781 l 246 939 l 432 939 l 432 781 l 246 781 z "},"ث":{"ha":1164,"x_min":56,"x_max":1079,"o":"m 513 0 q 172 87 289 0 q 56 344 56 174 q 60 415 56 378 q 70 485 64 451 q 82 546 76 519 q 90 585 88 572 l 271 550 q 260 493 267 528 q 247 420 253 458 q 242 347 242 382 q 272 234 242 275 q 365 177 303 193 q 522 161 428 161 l 893 161 l 893 697 l 1079 697 l 1079 0 l 513 0 m 488 939 l 488 1078 l 649 1078 l 649 939 l 488 939 m 353 726 l 353 885 l 532 885 l 532 726 l 353 726 m 606 726 l 606 885 l 785 885 l 785 726 l 606 726 z "},"ﺚ":{"ha":1225,"x_min":56,"x_max":1253,"o":"m 1079 0 l 1079 161 l 1225 161 l 1225 0 l 1079 0 m 513 0 q 172 87 289 0 q 56 344 56 174 q 60 415 56 378 q 70 485 64 451 q 82 546 76 519 q 90 585 88 572 l 271 550 q 260 493 267 528 q 247 420 253 458 q 242 347 242 382 q 272 234 242 275 q 365 177 303 193 q 522 161 428 161 l 893 161 l 893 697 l 1079 697 l 1079 0 l 513 0 m 1225 0 l 1225 161 q 1247 140 1242 161 q 1253 81 1253 118 q 1247 22 1253 44 q 1225 0 1242 0 m 488 939 l 488 1078 l 649 1078 l 649 939 l 488 939 m 353 726 l 353 885 l 532 885 l 532 726 l 353 726 m 606 726 l 606 885 l 785 885 l 785 726 l 606 726 z "},"ﺜ":{"ha":579,"x_min":-28,"x_max":607,"o":"m 406 0 l 406 161 l 579 161 l 579 0 l 406 0 m 579 0 l 579 161 q 601 140 596 161 q 607 81 607 118 q 601 22 607 44 q 579 0 596 0 m 0 0 l 0 161 l 329 161 l 221 71 l 221 697 l 406 697 l 406 0 l 0 0 m 0 0 q -22 22 -17 0 q -28 81 -28 44 q -22 140 -28 118 q 0 161 -17 161 l 0 0 m 232 1038 l 232 1176 l 393 1176 l 393 1038 l 232 1038 m 97 825 l 97 983 l 276 983 l 276 825 l 97 825 m 350 825 l 350 983 l 529 983 l 529 825 l 350 825 z "},"ﺛ":{"ha":513,"x_min":-28,"x_max":529,"o":"m 0 0 l 0 161 l 329 161 l 221 71 l 221 697 l 406 697 l 406 0 l 0 0 m 0 0 q -22 22 -17 0 q -28 81 -28 44 q -22 140 -28 118 q 0 161 -17 161 l 0 0 m 232 1038 l 232 1176 l 393 1176 l 393 1038 l 232 1038 m 97 825 l 97 983 l 276 983 l 276 825 l 97 825 m 350 825 l 350 983 l 529 983 l 529 825 l 350 825 z "},"ٹ":{"ha":1164,"x_min":56,"x_max":1079,"o":"m 513 0 q 172 87 289 0 q 56 344 56 174 q 60 415 56 378 q 70 485 64 451 q 82 546 76 519 q 90 585 88 572 l 271 550 q 260 493 267 528 q 247 420 253 458 q 242 347 242 382 q 272 234 242 275 q 365 177 303 193 q 522 161 428 161 l 893 161 l 893 697 l 1079 697 l 1079 0 l 513 0 m 414 836 q 435 917 414 882 q 495 972 457 951 q 578 992 533 992 q 661 972 624 992 q 721 917 699 951 q 743 836 743 882 l 654 836 q 633 888 654 867 q 578 908 611 908 q 517 888 546 908 q 489 836 489 867 l 414 836 m 371 754 l 371 836 l 743 836 l 743 754 l 371 754 m 414 836 l 414 1053 l 503 1053 l 503 836 l 414 836 z "},"ﭧ":{"ha":1225,"x_min":56,"x_max":1253,"o":"m 1079 0 l 1079 161 l 1225 161 l 1225 0 l 1079 0 m 513 0 q 172 87 289 0 q 56 344 56 174 q 60 415 56 378 q 70 485 64 451 q 82 546 76 519 q 90 585 88 572 l 271 550 q 260 493 267 528 q 247 420 253 458 q 242 347 242 382 q 272 234 242 275 q 365 177 303 193 q 522 161 428 161 l 893 161 l 893 697 l 1079 697 l 1079 0 l 513 0 m 1225 0 l 1225 161 q 1247 140 1242 161 q 1253 81 1253 118 q 1247 22 1253 44 q 1225 0 1242 0 m 414 836 q 435 917 414 882 q 495 972 457 951 q 578 992 533 992 q 661 972 624 992 q 721 917 699 951 q 743 836 743 882 l 654 836 q 633 888 654 867 q 578 908 611 908 q 517 888 546 908 q 489 836 489 867 l 414 836 m 371 754 l 371 836 l 743 836 l 743 754 l 371 754 m 414 836 l 414 1053 l 503 1053 l 503 836 l 414 836 z "},"ﭩ":{"ha":478,"x_min":-28,"x_max":506,"o":"m 332 0 l 332 161 l 478 161 l 478 0 l 332 0 m 0 0 l 0 161 l 254 161 l 146 71 l 146 697 l 332 697 l 332 0 l 0 0 m 0 0 q -22 22 -17 0 q -28 81 -28 44 q -22 140 -28 118 q 0 161 -17 161 l 0 0 m 478 0 l 478 161 q 500 140 494 161 q 506 81 506 118 q 500 22 506 44 q 478 0 494 0 m 94 907 q 116 988 94 953 q 176 1042 138 1022 q 258 1063 214 1063 q 342 1042 304 1063 q 401 988 379 1022 q 424 907 424 953 l 335 907 q 313 958 335 938 q 258 979 292 979 q 198 958 226 979 q 169 907 169 938 l 94 907 m 51 825 l 51 907 l 424 907 l 424 825 l 51 825 m 94 907 l 94 1124 l 183 1124 l 183 907 l 94 907 z "},"ﭨ":{"ha":460,"x_min":-28,"x_max":440,"o":"m 0 0 l 0 161 l 329 161 l 221 71 l 221 697 l 406 697 l 406 0 l 0 0 m 0 0 q -22 22 -17 0 q -28 81 -28 44 q -22 140 -28 118 q 0 161 -17 161 l 0 0 m 111 919 q 133 1000 111 965 q 192 1055 154 1035 q 275 1075 231 1075 q 358 1055 321 1075 q 418 1000 396 1035 q 440 919 440 965 l 351 919 q 330 971 351 950 q 275 992 308 992 q 215 971 243 992 q 186 919 186 950 l 111 919 m 68 838 l 68 919 l 440 919 l 440 838 l 68 838 m 111 919 l 111 1136 l 200 1136 l 200 919 l 111 919 z "},"ج":{"ha":849,"x_min":56,"x_max":765,"o":"m 518 -239 l 518 -112 l 647 -112 l 647 -239 l 518 -239 m 429 -449 q 233 -412 317 -449 q 102 -308 149 -376 q 56 -144 56 -239 q 102 19 56 -49 q 233 124 149 88 q 431 161 317 161 l 581 161 l 581 367 q 528 493 581 450 q 364 536 475 536 q 272 531 329 536 q 143 515 214 525 l 126 661 q 253 687 188 676 q 379 697 318 697 q 580 658 493 697 q 716 544 667 618 q 765 367 765 471 l 765 0 l 431 0 q 287 -36 332 0 q 242 -144 242 -72 q 287 -253 242 -217 q 429 -289 332 -289 q 470 -287 447 -289 q 525 -282 493 -285 l 536 -439 q 485 -446 513 -443 q 429 -449 457 -449 z "},"ﺞ":{"ha":911,"x_min":56,"x_max":939,"o":"m 518 -235 l 518 -107 l 647 -107 l 647 -235 l 518 -235 m 765 0 l 765 161 l 911 161 l 911 0 l 765 0 m 911 0 l 911 161 q 933 140 928 161 q 939 81 939 118 q 933 22 939 44 q 911 0 928 0 m 429 -449 q 233 -412 317 -449 q 102 -308 149 -376 q 56 -144 56 -239 q 102 19 56 -49 q 233 124 149 88 q 431 161 317 161 l 581 161 l 581 367 q 528 493 581 450 q 364 536 475 536 q 272 531 329 536 q 143 515 214 525 l 126 661 q 253 687 188 676 q 379 697 318 697 q 580 658 493 697 q 716 544 667 618 q 765 367 765 471 l 765 0 l 431 0 q 287 -36 332 0 q 242 -144 242 -72 q 287 -253 242 -217 q 429 -289 332 -289 q 470 -287 447 -289 q 525 -282 493 -285 l 536 -439 q 485 -446 513 -443 q 429 -449 457 -449 z "},"ﺠ":{"ha":867,"x_min":-28,"x_max":894,"o":"m 719 0 l 719 161 l 867 161 l 867 0 l 719 0 m 0 0 l 0 161 l 597 161 l 535 110 l 535 367 q 483 493 535 450 q 318 536 431 536 q 231 531 286 536 q 110 517 175 526 l 92 664 q 213 688 151 678 q 335 697 275 697 q 535 658 449 697 q 670 544 621 618 q 719 367 719 471 l 719 0 l 0 0 m 0 0 q -22 22 -17 0 q -28 81 -28 44 q -22 140 -28 118 q 0 161 -17 161 l 0 0 m 867 0 l 867 161 q 888 140 882 161 q 894 81 894 118 q 888 22 894 44 q 867 0 882 0 m 268 -296 l 268 -137 l 454 -137 l 454 -296 l 268 -296 z "},"ﺟ":{"ha":803,"x_min":-28,"x_max":719,"o":"m 0 0 l 0 161 l 597 161 l 535 110 l 535 367 q 483 493 535 450 q 318 536 431 536 q 231 531 286 536 q 110 517 175 526 l 92 664 q 213 688 151 678 q 335 697 275 697 q 535 658 449 697 q 670 544 621 618 q 719 367 719 471 l 719 0 l 0 0 m 0 0 q -22 22 -17 0 q -28 81 -28 44 q -22 140 -28 118 q 0 161 -17 161 l 0 0 m 268 -296 l 268 -137 l 454 -137 l 454 -296 l 268 -296 z "},"چ":{"ha":849,"x_min":56,"x_max":765,"o":"m 518 -186 l 604 -186 l 604 -265 l 518 -265 l 518 -186 m 582 -68 l 679 -68 l 679 -156 l 582 -156 l 582 -68 m 443 -68 l 540 -68 l 540 -156 l 443 -156 l 443 -68 m 429 -449 q 233 -412 317 -449 q 102 -308 149 -376 q 56 -144 56 -239 q 102 19 56 -49 q 233 124 149 88 q 431 161 317 161 l 581 161 l 581 367 q 528 493 581 450 q 364 536 475 536 q 272 531 329 536 q 143 515 214 525 l 126 661 q 253 687 188 676 q 379 697 318 697 q 580 658 493 697 q 716 544 667 618 q 765 367 765 471 l 765 0 l 431 0 q 287 -36 332 0 q 242 -144 242 -72 q 287 -253 242 -217 q 429 -289 332 -289 q 470 -287 447 -289 q 525 -282 493 -285 l 536 -439 q 485 -446 513 -443 q 429 -449 457 -449 z "},"ﭻ":{"ha":911,"x_min":56,"x_max":939,"o":"m 518 -186 l 604 -186 l 604 -265 l 518 -265 l 518 -186 m 582 -68 l 679 -68 l 679 -156 l 582 -156 l 582 -68 m 443 -68 l 540 -68 l 540 -156 l 443 -156 l 443 -68 m 765 0 l 765 161 l 911 161 l 911 0 l 765 0 m 911 0 l 911 161 q 933 140 928 161 q 939 81 939 118 q 933 22 939 44 q 911 0 928 0 m 429 -449 q 233 -412 317 -449 q 102 -308 149 -376 q 56 -144 56 -239 q 102 19 56 -49 q 233 124 149 88 q 431 161 317 161 l 581 161 l 581 367 q 528 493 581 450 q 364 536 475 536 q 272 531 329 536 q 143 515 214 525 l 126 661 q 253 687 188 676 q 379 697 318 697 q 580 658 493 697 q 716 544 667 618 q 765 367 765 471 l 765 0 l 431 0 q 287 -36 332 0 q 242 -144 242 -72 q 287 -253 242 -217 q 429 -289 332 -289 q 470 -287 447 -289 q 525 -282 493 -285 l 536 -439 q 485 -446 513 -443 q 429 -449 457 -449 z "},"ﭽ":{"ha":867,"x_min":-28,"x_max":894,"o":"m 281 -349 l 442 -349 l 442 -487 l 281 -487 l 281 -349 m 146 -136 l 325 -136 l 325 -294 l 146 -294 l 146 -136 m 397 -136 l 576 -136 l 576 -294 l 397 -294 l 397 -136 m 719 0 l 719 161 l 867 161 l 867 0 l 719 0 m 0 0 l 0 161 l 597 161 l 535 110 l 535 367 q 483 493 535 450 q 318 536 431 536 q 231 531 286 536 q 110 517 175 526 l 92 664 q 213 688 151 678 q 335 697 275 697 q 535 658 449 697 q 670 544 621 618 q 719 367 719 471 l 719 0 l 0 0 m 0 0 q -22 22 -17 0 q -28 81 -28 44 q -22 140 -28 118 q 0 161 -17 161 l 0 0 m 867 0 l 867 161 q 888 140 882 161 q 894 81 894 118 q 888 22 894 44 q 867 0 882 0 z "},"ﭼ":{"ha":803,"x_min":-28,"x_max":719,"o":"m 281 -349 l 442 -349 l 442 -487 l 281 -487 l 281 -349 m 146 -136 l 325 -136 l 325 -294 l 146 -294 l 146 -136 m 397 -136 l 576 -136 l 576 -294 l 397 -294 l 397 -136 m 0 0 l 0 161 l 597 161 l 535 110 l 535 367 q 483 493 535 450 q 318 536 431 536 q 231 531 286 536 q 110 517 175 526 l 92 664 q 213 688 151 678 q 335 697 275 697 q 535 658 449 697 q 670 544 621 618 q 719 367 719 471 l 719 0 l 0 0 m 0 0 q -22 22 -17 0 q -28 81 -28 44 q -22 140 -28 118 q 0 161 -17 161 l 0 0 z "},"ح":{"ha":849,"x_min":56,"x_max":765,"o":"m 631 -272 l 657 -421 q 538 -441 594 -433 q 429 -449 482 -449 q 233 -412 317 -449 q 102 -308 149 -376 q 56 -144 56 -239 q 102 19 56 -49 q 233 124 149 88 q 431 161 317 161 l 581 161 l 581 0 l 431 0 q 287 -36 332 0 q 242 -144 242 -72 q 287 -253 242 -217 q 429 -289 332 -289 q 513 -285 464 -289 q 631 -272 561 -281 m 143 515 l 126 661 q 253 687 188 676 q 379 697 318 697 q 580 658 493 697 q 716 544 667 618 q 765 367 765 471 l 765 0 l 581 0 l 581 367 q 528 493 581 450 q 364 536 475 536 q 272 531 329 536 q 143 515 214 525 z "},"ﺢ":{"ha":911,"x_min":56,"x_max":939,"o":"m 765 0 l 765 161 l 911 161 l 911 0 l 765 0 m 631 -272 l 657 -421 q 538 -441 594 -433 q 429 -449 482 -449 q 233 -412 317 -449 q 102 -308 149 -376 q 56 -144 56 -239 q 102 19 56 -49 q 233 124 149 88 q 431 161 317 161 l 581 161 l 581 0 l 431 0 q 287 -36 332 0 q 242 -144 242 -72 q 287 -253 242 -217 q 429 -289 332 -289 q 513 -285 464 -289 q 631 -272 561 -281 m 143 515 l 126 661 q 253 687 188 676 q 379 697 318 697 q 580 658 493 697 q 716 544 667 618 q 765 367 765 471 l 765 0 l 581 0 l 581 367 q 528 493 581 450 q 364 536 475 536 q 272 531 329 536 q 143 515 214 525 m 911 0 l 911 161 q 933 140 928 161 q 939 81 939 118 q 933 22 939 44 q 911 0 928 0 z "},"ﺤ":{"ha":867,"x_min":-28,"x_max":894,"o":"m 719 0 l 719 161 l 867 161 l 867 0 l 719 0 m 0 0 l 0 161 l 597 161 l 535 110 l 535 367 q 483 493 535 450 q 318 536 431 536 q 231 531 286 536 q 110 517 175 526 l 92 664 q 213 688 151 678 q 335 697 275 697 q 535 658 449 697 q 670 544 621 618 q 719 367 719 471 l 719 0 l 0 0 m 0 0 q -22 22 -17 0 q -28 81 -28 44 q -22 140 -28 118 q 0 161 -17 161 l 0 0 m 867 0 l 867 161 q 888 140 882 161 q 894 81 894 118 q 888 22 894 44 q 867 0 882 0 z "},"ﺣ":{"ha":803,"x_min":-28,"x_max":719,"o":"m 0 0 l 0 161 l 597 161 l 535 110 l 535 367 q 483 493 535 450 q 318 536 431 536 q 231 531 286 536 q 110 517 175 526 l 92 664 q 213 688 151 678 q 335 697 275 697 q 535 658 449 697 q 670 544 621 618 q 719 367 719 471 l 719 0 l 0 0 m 0 0 q -22 22 -17 0 q -28 81 -28 44 q -22 140 -28 118 q 0 161 -17 161 l 0 0 z "},"خ":{"ha":849,"x_min":56,"x_max":765,"o":"m 631 -272 l 657 -421 q 538 -441 594 -433 q 429 -449 482 -449 q 233 -412 317 -449 q 102 -308 149 -376 q 56 -144 56 -239 q 102 19 56 -49 q 233 124 149 88 q 431 161 317 161 l 581 161 l 581 0 l 431 0 q 287 -36 332 0 q 242 -144 242 -72 q 287 -253 242 -217 q 429 -289 332 -289 q 513 -285 464 -289 q 631 -272 561 -281 m 143 515 l 126 661 q 253 687 188 676 q 379 697 318 697 q 580 658 493 697 q 716 544 667 618 q 765 367 765 471 l 765 0 l 581 0 l 581 367 q 528 493 581 450 q 364 536 475 536 q 272 531 329 536 q 143 515 214 525 m 286 810 l 286 968 l 472 968 l 472 810 l 286 810 z "},"ﺦ":{"ha":911,"x_min":56,"x_max":939,"o":"m 765 0 l 765 161 l 911 161 l 911 0 l 765 0 m 631 -272 l 657 -421 q 538 -441 594 -433 q 429 -449 482 -449 q 233 -412 317 -449 q 102 -308 149 -376 q 56 -144 56 -239 q 102 19 56 -49 q 233 124 149 88 q 431 161 317 161 l 581 161 l 581 0 l 431 0 q 287 -36 332 0 q 242 -144 242 -72 q 287 -253 242 -217 q 429 -289 332 -289 q 513 -285 464 -289 q 631 -272 561 -281 m 143 515 l 126 661 q 253 687 188 676 q 379 697 318 697 q 580 658 493 697 q 716 544 667 618 q 765 367 765 471 l 765 0 l 581 0 l 581 367 q 528 493 581 450 q 364 536 475 536 q 272 531 329 536 q 143 515 214 525 m 911 0 l 911 161 q 933 140 928 161 q 939 81 939 118 q 933 22 939 44 q 911 0 928 0 m 286 810 l 286 968 l 472 968 l 472 810 l 286 810 z "},"ﺨ":{"ha":867,"x_min":-28,"x_max":894,"o":"m 719 0 l 719 161 l 867 161 l 867 0 l 719 0 m 0 0 l 0 161 l 597 161 l 535 110 l 535 367 q 483 493 535 450 q 318 536 431 536 q 231 531 286 536 q 110 517 175 526 l 92 664 q 213 688 151 678 q 335 697 275 697 q 535 658 449 697 q 670 544 621 618 q 719 367 719 471 l 719 0 l 0 0 m 0 0 q -22 22 -17 0 q -28 81 -28 44 q -22 140 -28 118 q 0 161 -17 161 l 0 0 m 867 0 l 867 161 q 888 140 882 161 q 894 81 894 118 q 888 22 894 44 q 867 0 882 0 m 240 807 l 240 965 l 426 965 l 426 807 l 240 807 z "},"ﺧ":{"ha":803,"x_min":-28,"x_max":719,"o":"m 0 0 l 0 161 l 597 161 l 535 110 l 535 367 q 483 493 535 450 q 318 536 431 536 q 231 531 286 536 q 110 517 175 526 l 92 664 q 213 688 151 678 q 335 697 275 697 q 535 658 449 697 q 670 544 621 618 q 719 367 719 471 l 719 0 l 0 0 m 0 0 q -22 22 -17 0 q -28 81 -28 44 q -22 140 -28 118 q 0 161 -17 161 l 0 0 m 240 807 l 240 965 l 426 965 l 426 807 l 240 807 z "},"د":{"ha":689,"x_min":56,"x_max":619,"o":"m 56 0 l 56 161 l 560 161 l 433 51 l 433 285 q 413 438 433 383 q 347 514 393 492 q 219 536 300 536 l 107 536 l 107 697 l 219 697 q 437 656 347 697 q 573 523 526 614 q 619 285 619 432 l 619 0 l 56 0 z "},"ﺪ":{"ha":765,"x_min":56,"x_max":793,"o":"m 619 0 l 619 161 l 765 161 l 765 0 l 619 0 m 56 0 l 56 161 l 560 161 l 433 51 l 433 285 q 413 438 433 383 q 347 514 393 492 q 219 536 300 536 l 107 536 l 107 697 l 219 697 q 437 656 347 697 q 573 523 526 614 q 619 285 619 432 l 619 0 l 56 0 m 765 0 l 765 161 q 788 140 782 161 q 793 81 793 118 q 788 22 793 44 q 765 0 782 0 z "},"ذ":{"ha":689,"x_min":56,"x_max":619,"o":"m 56 0 l 56 161 l 560 161 l 433 51 l 433 285 q 413 438 433 383 q 347 514 393 492 q 219 536 300 536 l 107 536 l 107 697 l 219 697 q 437 656 347 697 q 573 523 526 614 q 619 285 619 432 l 619 0 l 56 0 m 128 825 l 128 983 l 314 983 l 314 825 l 128 825 z "},"ﺬ":{"ha":765,"x_min":56,"x_max":793,"o":"m 619 0 l 619 161 l 765 161 l 765 0 l 619 0 m 56 0 l 56 161 l 560 161 l 433 51 l 433 285 q 413 438 433 383 q 347 514 393 492 q 219 536 300 536 l 107 536 l 107 697 l 219 697 q 437 656 347 697 q 573 523 526 614 q 619 285 619 432 l 619 0 l 56 0 m 765 0 l 765 161 q 788 140 782 161 q 793 81 793 118 q 788 22 793 44 q 765 0 782 0 m 128 825 l 128 983 l 314 983 l 314 825 l 128 825 z "},"ڈ":{"ha":689,"x_min":56,"x_max":619,"o":"m 56 0 l 56 161 l 560 161 l 433 51 l 433 285 q 413 438 433 383 q 347 514 393 492 q 219 536 300 536 l 107 536 l 107 697 l 219 697 q 437 656 347 697 q 573 523 526 614 q 619 285 619 432 l 619 0 l 56 0 m 150 919 q 172 1000 150 965 q 231 1055 193 1035 q 314 1075 269 1075 q 397 1055 360 1075 q 457 1000 435 1035 q 479 919 479 965 l 390 919 q 369 971 390 950 q 314 992 347 992 q 253 971 282 992 q 225 919 225 950 l 150 919 m 107 838 l 107 919 l 479 919 l 479 838 l 107 838 m 150 919 l 150 1136 l 239 1136 l 239 919 l 150 919 z "},"ﮉ":{"ha":765,"x_min":56,"x_max":793,"o":"m 619 0 l 619 161 l 765 161 l 765 0 l 619 0 m 56 0 l 56 161 l 560 161 l 433 51 l 433 285 q 413 438 433 383 q 347 514 393 492 q 219 536 300 536 l 107 536 l 107 697 l 219 697 q 437 656 347 697 q 573 523 526 614 q 619 285 619 432 l 619 0 l 56 0 m 765 0 l 765 161 q 788 140 782 161 q 793 81 793 118 q 788 22 793 44 q 765 0 782 0 m 149 922 q 170 1003 149 968 q 230 1058 192 1038 q 313 1078 268 1078 q 396 1058 358 1078 q 456 1003 433 1038 q 478 922 478 968 l 389 922 q 367 974 389 953 q 313 994 346 994 q 252 974 281 994 q 224 922 224 953 l 149 922 m 106 840 l 106 922 l 478 922 l 478 840 l 106 840 m 149 922 l 149 1139 l 238 1139 l 238 922 l 149 922 z "},"ر":{"ha":449,"x_min":-29,"x_max":356,"o":"m 53 -344 q 14 -343 35 -344 q -29 -339 -7 -342 l -22 -181 q 20 -183 0 -182 q 50 -185 40 -185 q 137 -142 104 -185 q 169 -21 169 -99 l 169 697 l 356 697 l 356 -21 q 317 -189 356 -115 q 211 -303 279 -262 q 53 -344 143 -344 z "},"ﺮ":{"ha":501,"x_min":-29,"x_max":529,"o":"m 322 0 l 322 161 l 501 161 l 501 0 l 322 0 m 53 -344 q 14 -343 35 -344 q -29 -339 -7 -342 l -22 -181 q 20 -183 0 -182 q 50 -185 40 -185 q 137 -142 104 -185 q 169 -21 169 -99 l 169 697 l 356 697 l 356 -21 q 317 -189 356 -115 q 211 -303 279 -262 q 53 -344 143 -344 m 501 0 l 501 161 q 524 140 518 161 q 529 81 529 118 q 524 22 529 44 q 501 0 518 0 z "},"ز":{"ha":449,"x_min":-29,"x_max":356,"o":"m 53 -344 q 14 -343 35 -344 q -29 -339 -7 -342 l -22 -181 q 20 -183 0 -182 q 50 -185 40 -185 q 137 -142 104 -185 q 169 -21 169 -99 l 169 697 l 356 697 l 356 -21 q 317 -189 356 -115 q 211 -303 279 -262 q 53 -344 143 -344 m 169 825 l 169 983 l 356 983 l 356 825 l 169 825 z "},"ﺰ":{"ha":501,"x_min":-29,"x_max":529,"o":"m 322 0 l 322 161 l 501 161 l 501 0 l 322 0 m 53 -344 q 14 -343 35 -344 q -29 -339 -7 -342 l -22 -181 q 20 -183 0 -182 q 50 -185 40 -185 q 137 -142 104 -185 q 169 -21 169 -99 l 169 697 l 356 697 l 356 -21 q 317 -189 356 -115 q 211 -303 279 -262 q 53 -344 143 -344 m 501 0 l 501 161 q 524 140 518 161 q 529 81 529 118 q 524 22 529 44 q 501 0 518 0 m 169 825 l 169 983 l 356 983 l 356 825 l 169 825 z "},"ڑ":{"ha":449,"x_min":-29,"x_max":449,"o":"m 53 -344 q 14 -343 35 -344 q -29 -339 -7 -342 l -22 -181 q 20 -183 0 -182 q 50 -185 40 -185 q 137 -142 104 -185 q 169 -21 169 -99 l 169 697 l 356 697 l 356 -21 q 317 -189 356 -115 q 211 -303 279 -262 q 53 -344 143 -344 m 119 919 q 141 1000 119 965 q 201 1055 163 1035 q 283 1075 239 1075 q 367 1055 329 1075 q 426 1000 404 1035 q 449 919 449 965 l 360 919 q 338 971 360 950 q 283 992 317 992 q 223 971 251 992 q 194 919 194 950 l 119 919 m 76 838 l 76 919 l 449 919 l 449 838 l 76 838 m 119 919 l 119 1136 l 208 1136 l 208 919 l 119 919 z "},"ﮍ":{"ha":513,"x_min":-18,"x_max":540,"o":"m 333 0 l 333 161 l 513 161 l 513 0 l 333 0 m 64 -344 q 25 -343 46 -344 q -18 -339 4 -342 l -11 -181 q 31 -183 11 -182 q 61 -185 51 -185 q 148 -142 115 -185 q 181 -21 181 -99 l 181 697 l 367 697 l 367 -21 q 328 -189 367 -115 q 222 -303 290 -262 q 64 -344 154 -344 m 513 0 l 513 161 q 535 140 529 161 q 540 81 540 118 q 535 22 540 44 q 513 0 529 0 m 131 919 q 152 1000 131 965 q 212 1055 174 1035 q 294 1075 250 1075 q 378 1055 340 1075 q 438 1000 415 1035 q 460 919 460 965 l 371 919 q 349 971 371 950 q 294 992 328 992 q 234 971 263 992 q 206 919 206 950 l 131 919 m 88 838 l 88 919 l 460 919 l 460 838 l 88 838 m 131 919 l 131 1136 l 219 1136 l 219 919 l 131 919 z "},"ژ":{"ha":449,"x_min":-29,"x_max":479,"o":"m 53 -344 q 14 -343 35 -344 q -29 -339 -7 -342 l -22 -181 q 20 -183 0 -182 q 50 -185 40 -185 q 137 -142 104 -185 q 169 -21 169 -99 l 169 697 l 356 697 l 356 -21 q 317 -189 356 -115 q 211 -303 279 -262 q 53 -344 143 -344 m 182 1038 l 182 1176 l 343 1176 l 343 1038 l 182 1038 m 47 825 l 47 983 l 226 983 l 226 825 l 47 825 m 300 825 l 300 983 l 479 983 l 479 825 l 300 825 z "},"ﮋ":{"ha":501,"x_min":-29,"x_max":529,"o":"m 322 0 l 322 161 l 501 161 l 501 0 l 322 0 m 53 -344 q 14 -343 35 -344 q -29 -339 -7 -342 l -22 -181 q 20 -183 0 -182 q 50 -185 40 -185 q 137 -142 104 -185 q 169 -21 169 -99 l 169 697 l 356 697 l 356 -21 q 317 -189 356 -115 q 211 -303 279 -262 q 53 -344 143 -344 m 501 0 l 501 161 q 524 140 518 161 q 529 81 529 118 q 524 22 529 44 q 501 0 518 0 m 182 1038 l 182 1176 l 343 1176 l 343 1038 l 182 1038 m 47 825 l 47 983 l 226 983 l 226 825 l 47 825 m 300 825 l 300 983 l 479 983 l 479 825 l 300 825 z "},"س":{"ha":1782,"x_min":56,"x_max":1693,"o":"m 475 -344 q 259 -301 354 -344 q 110 -179 164 -257 q 56 -3 56 -101 q 60 71 56 25 q 72 174 64 117 q 88 290 79 231 q 106 404 97 349 l 289 379 q 263 209 274 286 q 247 78 253 132 q 242 -1 242 24 q 269 -97 242 -57 q 349 -160 297 -137 q 475 -183 401 -183 q 599 -161 551 -183 q 667 -100 646 -139 q 689 -12 689 -61 l 689 556 l 875 556 l 875 -12 q 823 -187 875 -112 q 681 -303 771 -262 q 475 -344 590 -344 m 872 0 l 875 161 l 988 161 q 1056 174 1032 161 q 1089 228 1079 188 q 1099 351 1099 269 l 1099 625 l 1285 625 l 1285 351 q 1253 150 1285 228 q 1156 36 1221 72 q 988 0 1090 0 l 872 0 m 1344 0 q 1232 22 1288 0 q 1128 86 1176 43 l 1242 204 q 1294 172 1268 182 q 1344 161 1319 161 l 1606 161 l 1508 74 l 1508 382 q 1503 449 1508 404 q 1489 552 1497 494 q 1469 669 1481 610 l 1651 697 q 1671 585 1661 647 q 1687 469 1681 524 q 1693 382 1693 414 l 1693 0 l 1344 0 z "},"ﺲ":{"ha":1839,"x_min":56,"x_max":1867,"o":"m 1693 0 l 1693 161 l 1839 161 l 1839 0 l 1693 0 m 475 -344 q 259 -301 354 -344 q 110 -179 164 -257 q 56 -3 56 -101 q 60 71 56 25 q 72 174 64 117 q 88 290 79 231 q 106 404 97 349 l 289 379 q 263 209 274 286 q 247 78 253 132 q 242 -1 242 24 q 269 -97 242 -57 q 349 -160 297 -137 q 475 -183 401 -183 q 599 -161 551 -183 q 667 -100 646 -139 q 689 -12 689 -61 l 689 556 l 875 556 l 875 -12 q 823 -187 875 -112 q 681 -303 771 -262 q 475 -344 590 -344 m 872 0 l 875 161 l 988 161 q 1056 174 1032 161 q 1089 228 1079 188 q 1099 351 1099 269 l 1099 625 l 1285 625 l 1285 351 q 1253 150 1285 228 q 1156 36 1221 72 q 988 0 1090 0 l 872 0 m 1344 0 q 1232 22 1288 0 q 1128 86 1176 43 l 1242 204 q 1294 172 1268 182 q 1344 161 1319 161 l 1606 161 l 1508 74 l 1508 382 q 1503 449 1508 404 q 1489 552 1497 494 q 1469 669 1481 610 l 1651 697 q 1671 585 1661 647 q 1687 469 1681 524 q 1693 382 1693 414 l 1693 0 l 1344 0 m 1839 0 l 1839 161 q 1861 140 1856 161 q 1867 81 1867 118 q 1861 22 1867 44 q 1839 0 1856 0 z "},"ﺴ":{"ha":1313,"x_min":-28,"x_max":1340,"o":"m 1165 0 l 1165 161 l 1313 161 l 1313 0 l 1165 0 m 817 0 q 703 22 760 0 q 600 86 647 43 l 714 204 q 766 172 742 182 q 817 161 790 161 l 1076 161 l 981 74 l 981 382 q 976 449 981 404 q 962 552 971 494 q 940 669 953 610 l 1124 697 q 1142 585 1133 647 q 1158 469 1151 524 q 1165 382 1165 414 l 1165 0 l 817 0 m 0 0 l 0 161 l 203 161 l 161 118 l 161 556 l 347 556 l 347 0 l 0 0 m 347 0 l 347 161 l 460 161 q 528 174 504 161 q 560 228 551 188 q 569 351 569 269 l 569 625 l 756 625 l 756 351 q 724 150 756 228 q 628 36 693 72 q 460 0 563 0 l 347 0 m 0 0 q -22 22 -17 0 q -28 81 -28 44 q -22 140 -28 118 q 0 161 -17 161 l 0 0 m 1313 0 l 1313 161 q 1335 140 1329 161 q 1340 81 1340 118 q 1335 22 1340 44 q 1313 0 1329 0 z "},"ﺳ":{"ha":1263,"x_min":-28,"x_max":1165,"o":"m 817 0 q 703 22 760 0 q 600 86 647 43 l 714 204 q 766 172 742 182 q 817 161 790 161 l 1076 161 l 981 74 l 981 382 q 976 449 981 404 q 962 552 971 494 q 940 669 953 610 l 1124 697 q 1142 585 1133 647 q 1158 469 1151 524 q 1165 382 1165 414 l 1165 0 l 817 0 m 0 0 l 0 161 l 203 161 l 161 118 l 161 556 l 347 556 l 347 0 l 0 0 m 347 0 l 347 161 l 460 161 q 528 174 504 161 q 560 228 551 188 q 569 351 569 269 l 569 625 l 756 625 l 756 351 q 724 150 756 228 q 628 36 693 72 q 460 0 563 0 l 347 0 m 0 0 q -22 22 -17 0 q -28 81 -28 44 q -22 140 -28 118 q 0 161 -17 161 l 0 0 z "},"ش":{"ha":1782,"x_min":56,"x_max":1693,"o":"m 475 -344 q 259 -301 354 -344 q 110 -179 164 -257 q 56 -3 56 -101 q 60 71 56 25 q 72 174 64 117 q 88 290 79 231 q 106 404 97 349 l 289 379 q 263 209 274 286 q 247 78 253 132 q 242 -1 242 24 q 269 -97 242 -57 q 349 -160 297 -137 q 475 -183 401 -183 q 599 -161 551 -183 q 667 -100 646 -139 q 689 -12 689 -61 l 689 556 l 875 556 l 875 -12 q 823 -187 875 -112 q 681 -303 771 -262 q 475 -344 590 -344 m 872 0 l 875 161 l 988 161 q 1056 174 1032 161 q 1089 228 1079 188 q 1099 351 1099 269 l 1099 625 l 1285 625 l 1285 351 q 1253 150 1285 228 q 1156 36 1221 72 q 988 0 1090 0 l 872 0 m 1344 0 q 1232 22 1288 0 q 1128 86 1176 43 l 1242 204 q 1294 172 1268 182 q 1344 161 1319 161 l 1606 161 l 1508 74 l 1508 382 q 1503 449 1508 404 q 1489 552 1497 494 q 1469 669 1481 610 l 1651 697 q 1671 585 1661 647 q 1687 469 1681 524 q 1693 382 1693 414 l 1693 0 l 1344 0 m 1110 1038 l 1110 1176 l 1271 1176 l 1271 1038 l 1110 1038 m 975 825 l 975 983 l 1154 983 l 1154 825 l 975 825 m 1228 825 l 1228 983 l 1407 983 l 1407 825 l 1228 825 z "},"ﺶ":{"ha":1839,"x_min":56,"x_max":1867,"o":"m 1693 0 l 1693 161 l 1839 161 l 1839 0 l 1693 0 m 475 -344 q 259 -301 354 -344 q 110 -179 164 -257 q 56 -3 56 -101 q 60 71 56 25 q 72 174 64 117 q 88 290 79 231 q 106 404 97 349 l 289 379 q 263 209 274 286 q 247 78 253 132 q 242 -1 242 24 q 269 -97 242 -57 q 349 -160 297 -137 q 475 -183 401 -183 q 599 -161 551 -183 q 667 -100 646 -139 q 689 -12 689 -61 l 689 556 l 875 556 l 875 -12 q 823 -187 875 -112 q 681 -303 771 -262 q 475 -344 590 -344 m 872 0 l 875 161 l 988 161 q 1056 174 1032 161 q 1089 228 1079 188 q 1099 351 1099 269 l 1099 625 l 1285 625 l 1285 351 q 1253 150 1285 228 q 1156 36 1221 72 q 988 0 1090 0 l 872 0 m 1344 0 q 1232 22 1288 0 q 1128 86 1176 43 l 1242 204 q 1294 172 1268 182 q 1344 161 1319 161 l 1606 161 l 1508 74 l 1508 382 q 1503 449 1508 404 q 1489 552 1497 494 q 1469 669 1481 610 l 1651 697 q 1671 585 1661 647 q 1687 469 1681 524 q 1693 382 1693 414 l 1693 0 l 1344 0 m 1839 0 l 1839 161 q 1861 140 1856 161 q 1867 81 1867 118 q 1861 22 1867 44 q 1839 0 1856 0 m 1110 1038 l 1110 1176 l 1271 1176 l 1271 1038 l 1110 1038 m 975 825 l 975 983 l 1154 983 l 1154 825 l 975 825 m 1228 825 l 1228 983 l 1407 983 l 1407 825 l 1228 825 z "},"ﺸ":{"ha":1313,"x_min":-28,"x_max":1340,"o":"m 1165 0 l 1165 161 l 1313 161 l 1313 0 l 1165 0 m 817 0 q 703 22 760 0 q 600 86 647 43 l 714 204 q 766 172 742 182 q 817 161 790 161 l 1076 161 l 981 74 l 981 382 q 976 449 981 404 q 962 552 971 494 q 940 669 953 610 l 1124 697 q 1142 585 1133 647 q 1158 469 1151 524 q 1165 382 1165 414 l 1165 0 l 817 0 m 0 0 l 0 161 l 203 161 l 161 118 l 161 556 l 347 556 l 347 0 l 0 0 m 347 0 l 347 161 l 460 161 q 528 174 504 161 q 560 228 551 188 q 569 351 569 269 l 569 625 l 756 625 l 756 351 q 724 150 756 228 q 628 36 693 72 q 460 0 563 0 l 347 0 m 0 0 q -22 22 -17 0 q -28 81 -28 44 q -22 140 -28 118 q 0 161 -17 161 l 0 0 m 1313 0 l 1313 161 q 1335 140 1329 161 q 1340 81 1340 118 q 1335 22 1340 44 q 1313 0 1329 0 m 583 1038 l 583 1176 l 744 1176 l 744 1038 l 583 1038 m 449 825 l 449 983 l 628 983 l 628 825 l 449 825 m 701 825 l 701 983 l 881 983 l 881 825 l 701 825 z "},"ﺷ":{"ha":1263,"x_min":-28,"x_max":1165,"o":"m 817 0 q 703 22 760 0 q 600 86 647 43 l 714 204 q 766 172 742 182 q 817 161 790 161 l 1076 161 l 981 74 l 981 382 q 976 449 981 404 q 962 552 971 494 q 940 669 953 610 l 1124 697 q 1142 585 1133 647 q 1158 469 1151 524 q 1165 382 1165 414 l 1165 0 l 817 0 m 0 0 l 0 161 l 203 161 l 161 118 l 161 556 l 347 556 l 347 0 l 0 0 m 347 0 l 347 161 l 460 161 q 528 174 504 161 q 560 228 551 188 q 569 351 569 269 l 569 625 l 756 625 l 756 351 q 724 150 756 228 q 628 36 693 72 q 460 0 563 0 l 347 0 m 0 0 q -22 22 -17 0 q -28 81 -28 44 q -22 140 -28 118 q 0 161 -17 161 l 0 0 m 583 1038 l 583 1176 l 744 1176 l 744 1038 l 583 1038 m 449 825 l 449 983 l 628 983 l 628 825 l 449 825 m 701 825 l 701 983 l 881 983 l 881 825 l 701 825 z "},"ص":{"ha":1689,"x_min":56,"x_max":1592,"o":"m 475 -344 q 259 -301 354 -344 q 110 -179 164 -257 q 56 -3 56 -101 q 60 71 56 25 q 72 174 64 117 q 88 290 79 231 q 106 404 97 349 l 289 379 q 263 209 274 286 q 247 78 253 132 q 242 -1 242 24 q 269 -97 242 -57 q 349 -160 297 -137 q 475 -183 401 -183 q 599 -161 551 -183 q 667 -100 646 -139 q 689 -12 689 -61 l 689 697 l 875 697 l 875 -12 q 823 -187 875 -112 q 681 -303 771 -262 q 475 -344 590 -344 m 872 0 l 875 161 l 1564 161 l 1407 25 l 1407 317 q 1385 444 1407 396 q 1325 514 1364 492 q 1231 536 1286 536 q 1117 513 1171 536 q 1018 451 1064 489 q 933 371 972 414 q 864 288 894 328 q 811 221 833 249 l 768 356 q 866 475 822 421 q 949 571 910 529 q 1032 640 989 613 q 1128 683 1075 668 q 1250 697 1181 697 q 1407 666 1342 697 q 1513 581 1472 635 q 1573 458 1554 526 q 1592 317 1592 390 l 1592 0 l 872 0 z "},"ﺺ":{"ha":1739,"x_min":56,"x_max":1767,"o":"m 1592 0 l 1592 161 l 1739 161 l 1739 0 l 1592 0 m 475 -344 q 259 -301 354 -344 q 110 -179 164 -257 q 56 -3 56 -101 q 60 71 56 25 q 72 174 64 117 q 88 290 79 231 q 106 404 97 349 l 289 379 q 263 209 274 286 q 247 78 253 132 q 242 -1 242 24 q 269 -97 242 -57 q 349 -160 297 -137 q 475 -183 401 -183 q 599 -161 551 -183 q 667 -100 646 -139 q 689 -12 689 -61 l 689 697 l 875 697 l 875 -12 q 823 -187 875 -112 q 681 -303 771 -262 q 475 -344 590 -344 m 872 0 l 875 161 l 1564 161 l 1407 25 l 1407 317 q 1385 444 1407 396 q 1325 514 1364 492 q 1231 536 1286 536 q 1117 513 1171 536 q 1018 451 1064 489 q 933 371 972 414 q 864 288 894 328 q 811 221 833 249 l 768 356 q 866 475 822 421 q 949 571 910 529 q 1032 640 989 613 q 1128 683 1075 668 q 1250 697 1181 697 q 1407 666 1342 697 q 1513 581 1472 635 q 1573 458 1554 526 q 1592 317 1592 390 l 1592 0 l 872 0 m 1739 0 l 1739 161 q 1761 140 1756 161 q 1767 81 1767 118 q 1761 22 1767 44 q 1739 0 1756 0 z "},"ﺼ":{"ha":1225,"x_min":-28,"x_max":1253,"o":"m 1079 0 l 1079 161 l 1225 161 l 1225 0 l 1079 0 m 0 0 l 0 161 l 1050 161 l 893 25 l 893 317 q 872 444 893 396 q 812 514 851 492 q 717 536 772 536 q 603 513 657 536 q 504 451 550 489 q 419 371 458 414 q 350 288 381 328 q 297 221 319 249 l 256 356 q 353 475 310 421 q 435 571 396 529 q 519 640 475 613 q 615 683 563 668 q 736 697 667 697 q 894 666 829 697 q 1001 581 960 635 q 1060 458 1042 526 q 1079 317 1079 390 l 1079 0 l 0 0 m 175 161 l 175 697 l 361 697 l 361 161 l 175 161 m 0 0 q -22 22 -17 0 q -28 81 -28 44 q -22 140 -28 118 q 0 161 -17 161 l 0 0 m 1225 0 l 1225 161 q 1247 140 1242 161 q 1253 81 1253 118 q 1247 22 1253 44 q 1225 0 1242 0 z "},"ﺻ":{"ha":1175,"x_min":-28,"x_max":1079,"o":"m 0 0 l 0 161 l 1050 161 l 893 25 l 893 317 q 872 444 893 396 q 812 514 851 492 q 717 536 772 536 q 603 513 657 536 q 504 451 550 489 q 419 371 458 414 q 350 288 381 328 q 297 221 319 249 l 256 356 q 353 475 310 421 q 435 571 396 529 q 519 640 475 613 q 615 683 563 668 q 736 697 667 697 q 894 666 829 697 q 1001 581 960 635 q 1060 458 1042 526 q 1079 317 1079 390 l 1079 0 l 0 0 m 175 161 l 175 697 l 361 697 l 361 161 l 175 161 m 0 0 q -22 22 -17 0 q -28 81 -28 44 q -22 140 -28 118 q 0 161 -17 161 l 0 0 z "},"ض":{"ha":1689,"x_min":56,"x_max":1592,"o":"m 475 -344 q 259 -301 354 -344 q 110 -179 164 -257 q 56 -3 56 -101 q 60 71 56 25 q 72 174 64 117 q 88 290 79 231 q 106 404 97 349 l 289 379 q 263 209 274 286 q 247 78 253 132 q 242 -1 242 24 q 269 -97 242 -57 q 349 -160 297 -137 q 475 -183 401 -183 q 599 -161 551 -183 q 667 -100 646 -139 q 689 -12 689 -61 l 689 697 l 875 697 l 875 -12 q 823 -187 875 -112 q 681 -303 771 -262 q 475 -344 590 -344 m 872 0 l 875 161 l 1564 161 l 1407 25 l 1407 317 q 1385 444 1407 396 q 1325 514 1364 492 q 1231 536 1286 536 q 1117 513 1171 536 q 1018 451 1064 489 q 933 371 972 414 q 864 288 894 328 q 811 221 833 249 l 768 356 q 866 475 822 421 q 949 571 910 529 q 1032 640 989 613 q 1128 683 1075 668 q 1250 697 1181 697 q 1407 666 1342 697 q 1513 581 1472 635 q 1573 458 1554 526 q 1592 317 1592 390 l 1592 0 l 872 0 m 1064 824 l 1064 982 l 1250 982 l 1250 824 l 1064 824 z "},"ﺾ":{"ha":1739,"x_min":56,"x_max":1767,"o":"m 1592 0 l 1592 161 l 1739 161 l 1739 0 l 1592 0 m 475 -344 q 259 -301 354 -344 q 110 -179 164 -257 q 56 -3 56 -101 q 60 71 56 25 q 72 174 64 117 q 88 290 79 231 q 106 404 97 349 l 289 379 q 263 209 274 286 q 247 78 253 132 q 242 -1 242 24 q 269 -97 242 -57 q 349 -160 297 -137 q 475 -183 401 -183 q 599 -161 551 -183 q 667 -100 646 -139 q 689 -12 689 -61 l 689 697 l 875 697 l 875 -12 q 823 -187 875 -112 q 681 -303 771 -262 q 475 -344 590 -344 m 872 0 l 875 161 l 1564 161 l 1407 25 l 1407 317 q 1385 444 1407 396 q 1325 514 1364 492 q 1231 536 1286 536 q 1117 513 1171 536 q 1018 451 1064 489 q 933 371 972 414 q 864 288 894 328 q 811 221 833 249 l 768 356 q 866 475 822 421 q 949 571 910 529 q 1032 640 989 613 q 1128 683 1075 668 q 1250 697 1181 697 q 1407 666 1342 697 q 1513 581 1472 635 q 1573 458 1554 526 q 1592 317 1592 390 l 1592 0 l 872 0 m 1739 0 l 1739 161 q 1761 140 1756 161 q 1767 81 1767 118 q 1761 22 1767 44 q 1739 0 1756 0 m 1064 824 l 1064 982 l 1250 982 l 1250 824 l 1064 824 z "},"ﻀ":{"ha":1225,"x_min":-28,"x_max":1253,"o":"m 1079 0 l 1079 161 l 1225 161 l 1225 0 l 1079 0 m 0 0 l 0 161 l 1050 161 l 893 25 l 893 317 q 872 444 893 396 q 812 514 851 492 q 717 536 772 536 q 603 513 657 536 q 504 451 550 489 q 419 371 458 414 q 350 288 381 328 q 297 221 319 249 l 256 356 q 353 475 310 421 q 435 571 396 529 q 519 640 475 613 q 615 683 563 668 q 736 697 667 697 q 894 666 829 697 q 1001 581 960 635 q 1060 458 1042 526 q 1079 317 1079 390 l 1079 0 l 0 0 m 175 161 l 175 697 l 361 697 l 361 161 l 175 161 m 0 0 q -22 22 -17 0 q -28 81 -28 44 q -22 140 -28 118 q 0 161 -17 161 l 0 0 m 1225 0 l 1225 161 q 1247 140 1242 161 q 1253 81 1253 118 q 1247 22 1253 44 q 1225 0 1242 0 m 550 824 l 550 982 l 736 982 l 736 824 l 550 824 z "},"ﺿ":{"ha":1175,"x_min":-28,"x_max":1079,"o":"m 0 0 l 0 161 l 1050 161 l 893 25 l 893 317 q 872 444 893 396 q 812 514 851 492 q 717 536 772 536 q 603 513 657 536 q 504 451 550 489 q 419 371 458 414 q 350 288 381 328 q 297 221 319 249 l 256 356 q 353 475 310 421 q 435 571 396 529 q 519 640 475 613 q 615 683 563 668 q 736 697 667 697 q 894 666 829 697 q 1001 581 960 635 q 1060 458 1042 526 q 1079 317 1079 390 l 1079 0 l 0 0 m 175 161 l 175 697 l 361 697 l 361 161 l 175 161 m 0 0 q -22 22 -17 0 q -28 81 -28 44 q -22 140 -28 118 q 0 161 -17 161 l 0 0 m 550 824 l 550 982 l 736 982 l 736 824 l 550 824 z "},"ط":{"ha":1122,"x_min":28,"x_max":1025,"o":"m 28 0 l 28 161 l 997 161 l 840 25 l 840 317 q 819 444 840 396 q 759 514 799 492 q 664 536 719 536 q 551 513 604 536 q 452 451 499 489 q 367 371 406 414 q 297 288 328 328 q 244 221 267 249 l 203 356 q 309 490 260 428 q 413 599 358 553 q 532 672 467 646 q 683 697 597 697 q 841 666 776 697 q 947 581 906 635 q 1007 458 989 526 q 1025 317 1025 390 l 1025 0 l 28 0 m 124 161 l 124 982 l 308 982 l 308 161 l 124 161 z "},"ﻂ":{"ha":1172,"x_min":28,"x_max":1200,"o":"m 1025 0 l 1025 161 l 1172 161 l 1172 0 l 1025 0 m 28 0 l 28 161 l 997 161 l 840 25 l 840 317 q 819 444 840 396 q 759 514 799 492 q 664 536 719 536 q 551 513 604 536 q 452 451 499 489 q 367 371 406 414 q 297 288 328 328 q 244 221 267 249 l 203 356 q 309 490 260 428 q 413 599 358 553 q 532 672 467 646 q 683 697 597 697 q 841 666 776 697 q 947 581 906 635 q 1007 458 989 526 q 1025 317 1025 390 l 1025 0 l 28 0 m 124 161 l 124 982 l 308 982 l 308 161 l 124 161 m 1172 0 l 1172 161 q 1194 140 1189 161 q 1200 81 1200 118 q 1194 22 1200 44 q 1172 0 1189 0 z "},"ﻄ":{"ha":1114,"x_min":-28,"x_max":1142,"o":"m 968 0 l 968 161 l 1114 161 l 1114 0 l 968 0 m 0 0 l 0 161 l 969 161 l 813 25 l 813 317 q 792 444 813 396 q 731 514 771 492 q 636 536 692 536 q 524 513 576 536 q 424 451 471 489 q 339 371 378 414 q 269 288 300 328 q 217 221 239 249 l 175 356 q 281 490 232 428 q 385 599 331 553 q 504 672 439 646 q 656 697 569 697 q 813 666 749 697 q 919 581 878 635 q 979 458 961 526 q 997 317 997 390 l 997 0 l 0 0 m 96 161 l 96 982 l 281 982 l 281 161 l 96 161 m 0 0 q -22 22 -17 0 q -28 81 -28 44 q -22 140 -28 118 q 0 161 -17 161 l 0 0 m 1114 0 l 1114 161 q 1136 140 1131 161 q 1142 81 1142 118 q 1136 22 1142 44 q 1114 0 1131 0 z "},"ﻃ":{"ha":1094,"x_min":-28,"x_max":997,"o":"m 0 0 l 0 161 l 969 161 l 813 25 l 813 317 q 792 444 813 396 q 731 514 771 492 q 636 536 692 536 q 524 513 576 536 q 424 451 471 489 q 339 371 378 414 q 269 288 300 328 q 217 221 239 249 l 175 356 q 281 490 232 428 q 385 599 331 553 q 504 672 439 646 q 656 697 569 697 q 813 666 749 697 q 919 581 878 635 q 979 458 961 526 q 997 317 997 390 l 997 0 l 0 0 m 96 161 l 96 982 l 281 982 l 281 161 l 96 161 m 0 0 q -22 22 -17 0 q -28 81 -28 44 q -22 140 -28 118 q 0 161 -17 161 l 0 0 z "},"ظ":{"ha":1122,"x_min":28,"x_max":1025,"o":"m 28 0 l 28 161 l 997 161 l 840 25 l 840 317 q 819 444 840 396 q 759 514 799 492 q 664 536 719 536 q 551 513 604 536 q 452 451 499 489 q 367 371 406 414 q 297 288 328 328 q 244 221 267 249 l 203 356 q 309 490 260 428 q 413 599 358 553 q 532 672 467 646 q 683 697 597 697 q 841 666 776 697 q 947 581 906 635 q 1007 458 989 526 q 1025 317 1025 390 l 1025 0 l 28 0 m 124 161 l 124 982 l 308 982 l 308 161 l 124 161 m 525 825 l 525 983 l 711 983 l 711 825 l 525 825 z "},"ﻆ":{"ha":1172,"x_min":28,"x_max":1200,"o":"m 1025 0 l 1025 161 l 1172 161 l 1172 0 l 1025 0 m 28 0 l 28 161 l 997 161 l 840 25 l 840 317 q 819 444 840 396 q 759 514 799 492 q 664 536 719 536 q 551 513 604 536 q 452 451 499 489 q 367 371 406 414 q 297 288 328 328 q 244 221 267 249 l 203 356 q 309 490 260 428 q 413 599 358 553 q 532 672 467 646 q 683 697 597 697 q 841 666 776 697 q 947 581 906 635 q 1007 458 989 526 q 1025 317 1025 390 l 1025 0 l 28 0 m 124 161 l 124 982 l 308 982 l 308 161 l 124 161 m 1172 0 l 1172 161 q 1194 140 1189 161 q 1200 81 1200 118 q 1194 22 1200 44 q 1172 0 1189 0 m 525 825 l 525 983 l 711 983 l 711 825 l 525 825 z "},"ﻈ":{"ha":1114,"x_min":-28,"x_max":1142,"o":"m 968 0 l 968 161 l 1114 161 l 1114 0 l 968 0 m 0 0 l 0 161 l 969 161 l 813 25 l 813 317 q 792 444 813 396 q 731 514 771 492 q 636 536 692 536 q 524 513 576 536 q 424 451 471 489 q 339 371 378 414 q 269 288 300 328 q 217 221 239 249 l 175 356 q 281 490 232 428 q 385 599 331 553 q 504 672 439 646 q 656 697 569 697 q 813 666 749 697 q 919 581 878 635 q 979 458 961 526 q 997 317 997 390 l 997 0 l 0 0 m 96 161 l 96 982 l 281 982 l 281 161 l 96 161 m 0 0 q -22 22 -17 0 q -28 81 -28 44 q -22 140 -28 118 q 0 161 -17 161 l 0 0 m 1114 0 l 1114 161 q 1136 140 1131 161 q 1142 81 1142 118 q 1136 22 1142 44 q 1114 0 1131 0 m 497 825 l 497 983 l 683 983 l 683 825 l 497 825 z "},"ﻇ":{"ha":1094,"x_min":-28,"x_max":997,"o":"m 0 0 l 0 161 l 969 161 l 813 25 l 813 317 q 792 444 813 396 q 731 514 771 492 q 636 536 692 536 q 524 513 576 536 q 424 451 471 489 q 339 371 378 414 q 269 288 300 328 q 217 221 239 249 l 175 356 q 281 490 232 428 q 385 599 331 553 q 504 672 439 646 q 656 697 569 697 q 813 666 749 697 q 919 581 878 635 q 979 458 961 526 q 997 317 997 390 l 997 0 l 0 0 m 96 161 l 96 982 l 281 982 l 281 161 l 96 161 m 0 0 q -22 22 -17 0 q -28 81 -28 44 q -22 140 -28 118 q 0 161 -17 161 l 0 0 m 497 825 l 497 983 l 683 983 l 683 825 l 497 825 z "},"ع":{"ha":793,"x_min":56,"x_max":700,"o":"m 429 -449 q 233 -412 317 -449 q 102 -308 149 -376 q 56 -144 56 -239 q 102 19 56 -49 q 233 124 149 88 q 431 161 317 161 l 700 161 l 700 0 l 431 0 q 287 -36 332 0 q 242 -144 242 -72 q 287 -253 242 -217 q 429 -289 332 -289 q 513 -285 464 -289 q 631 -272 561 -281 l 657 -421 q 538 -441 594 -433 q 429 -449 482 -449 m 267 22 q 160 164 196 89 q 125 324 125 239 q 156 474 125 406 q 239 593 186 543 q 362 670 292 643 q 510 697 432 697 q 597 689 551 697 q 685 667 643 681 l 631 515 q 572 531 600 525 q 517 536 543 536 q 408 509 454 536 q 335 435 361 482 q 310 326 310 388 q 333 222 310 271 q 399 135 356 174 l 267 22 z "},"ﻊ":{"ha":919,"x_min":56,"x_max":947,"o":"m 631 -271 l 657 -421 q 538 -441 594 -433 q 429 -449 482 -449 q 233 -412 317 -449 q 102 -308 149 -376 q 56 -144 56 -239 q 92 6 56 -60 q 194 115 128 72 q 349 174 261 158 l 364 185 q 447 222 404 199 q 530 276 490 244 q 600 347 569 308 q 649 428 631 385 q 668 517 668 471 l 668 606 l 757 458 q 609 517 685 497 q 467 536 533 536 q 324 517 399 536 q 176 458 249 497 l 265 606 l 265 517 q 285 425 265 474 q 340 330 306 376 q 422 245 375 283 q 525 184 469 207 q 639 161 581 161 l 919 161 l 919 0 l 699 0 q 496 35 590 0 q 325 127 401 69 q 194 253 249 185 q 110 391 139 322 q 81 517 81 460 l 81 596 q 208 651 140 629 q 342 685 275 674 q 467 697 408 697 q 592 685 525 697 q 726 651 658 674 q 853 596 793 629 l 853 517 q 822 380 853 446 q 740 257 792 314 q 622 154 688 200 q 488 78 557 108 q 456 63 476 72 q 412 45 435 54 q 372 30 389 36 q 351 21 356 24 q 276 -37 310 1 q 242 -146 242 -75 q 288 -252 242 -215 q 429 -289 335 -289 q 512 -284 463 -289 q 631 -271 561 -279 m 919 0 l 919 161 q 942 140 936 161 q 947 81 947 118 q 942 22 947 44 q 919 0 936 0 z "},"ﻌ":{"ha":928,"x_min":-28,"x_max":956,"o":"m 0 0 l 0 161 l 294 161 q 410 184 354 161 q 512 245 465 207 q 594 330 558 283 q 649 425 629 376 q 669 517 669 474 l 669 606 l 758 458 q 611 517 686 497 q 468 536 536 536 q 326 517 401 536 q 179 458 250 497 l 268 606 l 268 517 q 288 425 268 474 q 343 330 308 376 q 425 245 378 283 q 528 184 472 207 q 642 161 583 161 l 928 161 l 928 0 l 700 0 q 497 35 592 0 q 326 127 403 69 q 195 253 250 185 q 111 391 140 322 q 82 517 82 460 l 82 596 q 209 651 142 629 q 344 685 276 674 q 468 697 411 697 q 593 685 526 697 q 727 651 660 674 q 854 596 794 629 l 854 517 q 825 391 854 460 q 741 253 796 322 q 610 127 686 185 q 439 35 533 69 q 236 0 344 0 l 0 0 m 0 0 q -22 22 -17 0 q -28 81 -28 44 q -22 140 -28 118 q 0 161 -17 161 l 0 0 m 928 0 l 928 161 q 950 140 944 161 q 956 81 956 118 q 950 22 956 44 q 928 0 944 0 z "},"ﻋ":{"ha":803,"x_min":-28,"x_max":692,"o":"m 261 22 q 155 164 190 89 q 119 324 119 239 q 150 474 119 406 q 233 593 181 543 q 356 670 286 643 q 504 697 426 697 q 592 689 546 697 q 679 667 638 681 l 624 515 q 566 531 594 525 q 511 536 538 536 q 403 509 450 536 q 330 435 356 482 q 304 326 304 388 q 393 135 304 213 l 261 22 m 0 0 l 0 161 l 692 161 l 692 0 l 0 0 m 0 0 q -22 22 -17 0 q -28 81 -28 44 q -22 140 -28 118 q 0 161 -17 161 l 0 0 z "},"غ":{"ha":793,"x_min":56,"x_max":700,"o":"m 429 -449 q 233 -412 317 -449 q 102 -308 149 -376 q 56 -144 56 -239 q 102 19 56 -49 q 233 124 149 88 q 431 161 317 161 l 700 161 l 700 0 l 431 0 q 287 -36 332 0 q 242 -144 242 -72 q 287 -253 242 -217 q 429 -289 332 -289 q 513 -285 464 -289 q 631 -272 561 -281 l 657 -421 q 538 -441 594 -433 q 429 -449 482 -449 m 267 22 q 160 164 196 89 q 125 324 125 239 q 156 474 125 406 q 239 593 186 543 q 362 670 292 643 q 510 697 432 697 q 597 689 551 697 q 685 667 643 681 l 631 515 q 572 531 600 525 q 517 536 543 536 q 408 509 454 536 q 335 435 361 482 q 310 326 310 388 q 333 222 310 271 q 399 135 356 174 l 267 22 m 360 825 l 360 983 l 546 983 l 546 825 l 360 825 z "},"ﻎ":{"ha":919,"x_min":56,"x_max":947,"o":"m 631 -271 l 657 -421 q 538 -441 594 -433 q 429 -449 482 -449 q 233 -412 317 -449 q 102 -308 149 -376 q 56 -144 56 -239 q 92 6 56 -60 q 194 115 128 72 q 349 174 261 158 l 364 185 q 447 222 404 199 q 530 276 490 244 q 600 347 569 308 q 649 428 631 385 q 668 517 668 471 l 668 606 l 757 458 q 609 517 685 497 q 467 536 533 536 q 324 517 399 536 q 176 458 249 497 l 265 606 l 265 517 q 285 425 265 474 q 340 330 306 376 q 422 245 375 283 q 525 184 469 207 q 639 161 581 161 l 919 161 l 919 0 l 699 0 q 496 35 590 0 q 325 127 401 69 q 194 253 249 185 q 110 391 139 322 q 81 517 81 460 l 81 596 q 208 651 140 629 q 342 685 275 674 q 467 697 408 697 q 592 685 525 697 q 726 651 658 674 q 853 596 793 629 l 853 517 q 822 380 853 446 q 740 257 792 314 q 622 154 688 200 q 488 78 557 108 q 456 63 476 72 q 412 45 435 54 q 372 30 389 36 q 351 21 356 24 q 276 -37 310 1 q 242 -146 242 -75 q 288 -252 242 -215 q 429 -289 335 -289 q 512 -284 463 -289 q 631 -271 561 -279 m 919 0 l 919 161 q 942 140 936 161 q 947 81 947 118 q 942 22 947 44 q 919 0 936 0 m 372 825 l 372 983 l 558 983 l 558 825 l 372 825 z "},"ﻐ":{"ha":928,"x_min":-28,"x_max":956,"o":"m 0 0 l 0 161 l 294 161 q 410 184 354 161 q 512 245 465 207 q 594 330 558 283 q 649 425 629 376 q 669 517 669 474 l 669 606 l 758 458 q 611 517 686 497 q 468 536 536 536 q 326 517 401 536 q 179 458 250 497 l 268 606 l 268 517 q 288 425 268 474 q 343 330 308 376 q 425 245 378 283 q 528 184 472 207 q 642 161 583 161 l 928 161 l 928 0 l 700 0 q 497 35 592 0 q 326 127 403 69 q 195 253 250 185 q 111 391 140 322 q 82 517 82 460 l 82 596 q 209 651 142 629 q 344 685 276 674 q 468 697 411 697 q 593 685 526 697 q 727 651 660 674 q 854 596 794 629 l 854 517 q 825 391 854 460 q 741 253 796 322 q 610 127 686 185 q 439 35 533 69 q 236 0 344 0 l 0 0 m 0 0 q -22 22 -17 0 q -28 81 -28 44 q -22 140 -28 118 q 0 161 -17 161 l 0 0 m 928 0 l 928 161 q 950 140 944 161 q 956 81 956 118 q 950 22 956 44 q 928 0 944 0 m 372 825 l 372 983 l 558 983 l 558 825 l 372 825 z "},"ﻏ":{"ha":803,"x_min":-28,"x_max":692,"o":"m 261 22 q 155 164 190 89 q 119 324 119 239 q 150 474 119 406 q 233 593 181 543 q 356 670 286 643 q 504 697 426 697 q 592 689 546 697 q 679 667 638 681 l 624 515 q 566 531 594 525 q 511 536 538 536 q 403 509 450 536 q 330 435 356 482 q 304 326 304 388 q 393 135 304 213 l 261 22 m 0 0 l 0 161 l 692 161 l 692 0 l 0 0 m 0 0 q -22 22 -17 0 q -28 81 -28 44 q -22 140 -28 118 q 0 161 -17 161 l 0 0 m 339 825 l 339 983 l 525 983 l 525 825 l 339 825 z "},"ف":{"ha":1460,"x_min":75,"x_max":1349,"o":"m 532 0 q 192 87 308 0 q 75 344 75 174 q 79 415 75 378 q 90 485 83 451 q 101 546 96 519 q 110 585 107 572 l 290 550 q 279 493 286 528 q 267 420 272 458 q 261 347 261 382 q 292 234 261 275 q 385 177 322 193 q 542 161 447 161 l 1218 161 l 1163 113 l 1163 576 l 1210 536 l 1035 536 q 938 521 972 536 q 890 465 904 506 q 875 349 875 424 q 890 227 875 267 q 938 174 904 188 q 1035 161 972 161 l 1035 17 q 840 50 915 17 q 727 156 764 83 q 690 349 690 229 q 727 540 690 463 q 840 658 764 618 q 1035 697 915 697 l 1349 697 l 1349 0 l 532 0 m 961 825 l 961 983 l 1147 983 l 1147 825 l 961 825 z "},"ﻒ":{"ha":1494,"x_min":75,"x_max":1522,"o":"m 1349 0 l 1349 161 l 1494 161 l 1494 0 l 1349 0 m 532 0 q 192 87 308 0 q 75 344 75 174 q 79 415 75 378 q 90 485 83 451 q 101 546 96 519 q 110 585 107 572 l 290 550 q 279 493 286 528 q 267 420 272 458 q 261 347 261 382 q 292 234 261 275 q 385 177 322 193 q 542 161 447 161 l 1218 161 l 1163 113 l 1163 576 l 1210 536 l 1035 536 q 938 521 972 536 q 890 465 904 506 q 875 349 875 424 q 890 227 875 267 q 938 174 904 188 q 1035 161 972 161 l 1035 17 q 840 50 915 17 q 727 156 764 83 q 690 349 690 229 q 727 540 690 463 q 840 658 764 618 q 1035 697 915 697 l 1349 697 l 1349 0 l 532 0 m 1494 0 l 1494 161 q 1517 140 1511 161 q 1522 81 1522 118 q 1517 22 1522 44 q 1494 0 1511 0 m 961 825 l 961 983 l 1147 983 l 1147 825 l 961 825 z "},"ﻔ":{"ha":924,"x_min":-28,"x_max":951,"o":"m 778 0 l 778 161 l 924 161 l 924 0 l 778 0 m 0 0 l 0 161 l 649 161 l 592 113 l 592 576 l 639 536 l 464 536 q 368 521 403 536 q 319 465 333 506 q 306 349 306 424 q 319 227 306 267 q 368 174 333 188 q 464 161 403 161 l 464 17 q 269 50 346 17 q 156 156 193 83 q 119 349 119 229 q 156 540 119 463 q 269 658 193 618 q 464 697 346 697 l 778 697 l 778 0 l 0 0 m 0 0 q -22 22 -17 0 q -28 81 -28 44 q -22 140 -28 118 q 0 161 -17 161 l 0 0 m 924 0 l 924 161 q 946 140 940 161 q 951 81 951 118 q 946 22 951 44 q 924 0 940 0 m 390 825 l 390 983 l 576 983 l 576 825 l 390 825 z "},"ﻓ":{"ha":875,"x_min":-28,"x_max":778,"o":"m 0 0 l 0 161 l 649 161 l 592 113 l 592 576 l 639 536 l 464 536 q 368 521 403 536 q 319 465 333 506 q 306 349 306 424 q 319 227 306 267 q 368 174 333 188 q 464 161 403 161 l 464 17 q 269 50 346 17 q 156 156 193 83 q 119 349 119 229 q 156 540 119 463 q 269 658 193 618 q 464 697 346 697 l 778 697 l 778 0 l 0 0 m 0 0 q -22 22 -17 0 q -28 81 -28 44 q -22 140 -28 118 q 0 161 -17 161 l 0 0 m 390 825 l 390 983 l 576 983 l 576 825 l 390 825 z "},"ڤ":{"ha":1460,"x_min":75,"x_max":1349,"o":"m 532 0 q 192 87 308 0 q 75 344 75 174 q 79 415 75 378 q 90 485 83 451 q 101 546 96 519 q 110 585 107 572 l 290 550 q 279 493 286 528 q 267 420 272 458 q 261 347 261 382 q 292 234 261 275 q 385 177 322 193 q 542 161 447 161 l 1218 161 l 1163 113 l 1163 576 l 1210 536 l 1035 536 q 938 521 972 536 q 890 465 904 506 q 875 349 875 424 q 890 227 875 267 q 938 174 904 188 q 1035 161 972 161 l 1035 17 q 840 50 915 17 q 727 156 764 83 q 690 349 690 229 q 727 540 690 463 q 840 658 764 618 q 1035 697 915 697 l 1349 697 l 1349 0 l 532 0 m 974 1038 l 974 1176 l 1135 1176 l 1135 1038 l 974 1038 m 839 825 l 839 983 l 1018 983 l 1018 825 l 839 825 m 1092 825 l 1092 983 l 1271 983 l 1271 825 l 1092 825 z "},"ﭫ":{"ha":1494,"x_min":75,"x_max":1522,"o":"m 1349 0 l 1349 161 l 1494 161 l 1494 0 l 1349 0 m 532 0 q 192 87 308 0 q 75 344 75 174 q 79 415 75 378 q 90 485 83 451 q 101 546 96 519 q 110 585 107 572 l 290 550 q 279 493 286 528 q 267 420 272 458 q 261 347 261 382 q 292 234 261 275 q 385 177 322 193 q 542 161 447 161 l 1218 161 l 1163 113 l 1163 576 l 1210 536 l 1035 536 q 938 521 972 536 q 890 465 904 506 q 875 349 875 424 q 890 227 875 267 q 938 174 904 188 q 1035 161 972 161 l 1035 17 q 840 50 915 17 q 727 156 764 83 q 690 349 690 229 q 727 540 690 463 q 840 658 764 618 q 1035 697 915 697 l 1349 697 l 1349 0 l 532 0 m 1494 0 l 1494 161 q 1517 140 1511 161 q 1522 81 1522 118 q 1517 22 1522 44 q 1494 0 1511 0 m 974 1038 l 974 1176 l 1135 1176 l 1135 1038 l 974 1038 m 839 825 l 839 983 l 1018 983 l 1018 825 l 839 825 m 1092 825 l 1092 983 l 1271 983 l 1271 825 l 1092 825 z "},"ﭭ":{"ha":924,"x_min":-28,"x_max":951,"o":"m 778 0 l 778 161 l 924 161 l 924 0 l 778 0 m 0 0 l 0 161 l 649 161 l 592 113 l 592 576 l 639 536 l 464 536 q 368 521 403 536 q 319 465 333 506 q 306 349 306 424 q 319 227 306 267 q 368 174 333 188 q 464 161 403 161 l 464 17 q 269 50 346 17 q 156 156 193 83 q 119 349 119 229 q 156 540 119 463 q 269 658 193 618 q 464 697 346 697 l 778 697 l 778 0 l 0 0 m 0 0 q -22 22 -17 0 q -28 81 -28 44 q -22 140 -28 118 q 0 161 -17 161 l 0 0 m 924 0 l 924 161 q 946 140 940 161 q 951 81 951 118 q 946 22 951 44 q 924 0 940 0 m 403 1038 l 403 1176 l 564 1176 l 564 1038 l 403 1038 m 268 825 l 268 983 l 447 983 l 447 825 l 268 825 m 521 825 l 521 983 l 700 983 l 700 825 l 521 825 z "},"ﭬ":{"ha":875,"x_min":-28,"x_max":778,"o":"m 0 0 l 0 161 l 649 161 l 592 113 l 592 576 l 639 536 l 464 536 q 368 521 403 536 q 319 465 333 506 q 306 349 306 424 q 319 227 306 267 q 368 174 333 188 q 464 161 403 161 l 464 17 q 269 50 346 17 q 156 156 193 83 q 119 349 119 229 q 156 540 119 463 q 269 658 193 618 q 464 697 346 697 l 778 697 l 778 0 l 0 0 m 0 0 q -22 22 -17 0 q -28 81 -28 44 q -22 140 -28 118 q 0 161 -17 161 l 0 0 m 403 1038 l 403 1176 l 564 1176 l 564 1038 l 403 1038 m 268 825 l 268 983 l 447 983 l 447 825 l 268 825 m 521 825 l 521 983 l 700 983 l 700 825 l 521 825 z "},"ڡ":{"ha":1460,"x_min":75,"x_max":1349,"o":"m 532 0 q 192 87 308 0 q 75 344 75 174 q 79 415 75 378 q 90 485 83 451 q 101 546 96 519 q 110 585 107 572 l 290 550 q 279 493 286 528 q 267 420 272 458 q 261 347 261 382 q 292 234 261 275 q 385 177 322 193 q 542 161 447 161 l 1218 161 l 1163 113 l 1163 576 l 1210 536 l 1035 536 q 938 521 972 536 q 890 465 904 506 q 875 349 875 424 q 890 227 875 267 q 938 174 904 188 q 1035 161 972 161 l 1035 17 q 840 50 915 17 q 727 156 764 83 q 690 349 690 229 q 727 540 690 463 q 840 658 764 618 q 1035 697 915 697 l 1349 697 l 1349 0 l 532 0 z "},"ٯ":{"ha":1267,"x_min":56,"x_max":1169,"o":"m 458 -369 q 253 -327 344 -369 q 108 -210 161 -285 q 56 -42 56 -136 q 60 35 56 -12 q 73 139 65 82 q 90 257 81 196 q 107 372 99 318 l 290 346 q 265 178 276 254 q 248 47 254 101 q 242 -36 242 -7 q 267 -130 242 -92 q 342 -188 293 -168 q 458 -208 390 -208 l 783 -208 q 935 -167 885 -208 q 985 -50 985 -126 l 985 576 l 1031 536 l 856 536 q 760 521 794 536 q 711 465 725 506 q 697 349 697 424 q 711 227 697 267 q 760 174 725 188 q 856 161 794 161 l 985 161 l 985 0 l 856 0 q 661 37 738 0 q 548 151 585 74 q 511 349 511 229 q 548 540 511 463 q 661 658 585 618 q 856 697 738 697 l 1169 697 l 1169 -50 q 1119 -220 1169 -149 q 981 -331 1068 -292 q 783 -369 894 -369 l 458 -369 z "},"ق":{"ha":1199,"x_min":56,"x_max":1169,"o":"m 458 -369 q 253 -327 344 -369 q 108 -210 161 -285 q 56 -42 56 -136 q 60 35 56 -12 q 73 139 65 82 q 90 257 81 196 q 107 372 99 318 l 290 346 q 265 178 276 254 q 248 47 254 101 q 242 -36 242 -7 q 267 -130 242 -92 q 342 -188 293 -168 q 458 -208 390 -208 l 783 -208 q 935 -167 885 -208 q 985 -50 985 -126 l 985 576 l 1031 536 l 856 536 q 760 521 794 536 q 711 465 725 506 q 697 349 697 424 q 711 227 697 267 q 760 174 725 188 q 856 161 794 161 l 985 161 l 985 0 l 856 0 q 661 37 738 0 q 548 151 585 74 q 511 349 511 229 q 548 540 511 463 q 661 658 585 618 q 856 697 738 697 l 1169 697 l 1169 -50 q 1119 -220 1169 -149 q 981 -331 1068 -292 q 783 -369 894 -369 l 458 -369 m 678 781 l 678 939 l 864 939 l 864 781 l 678 781 m 868 781 l 868 939 l 1054 939 l 1054 781 l 868 781 z "},"ﻖ":{"ha":1243,"x_min":56,"x_max":1344,"o":"m 1169 0 l 1169 161 l 1317 161 l 1317 0 l 1169 0 m 458 -369 q 253 -327 344 -369 q 108 -210 161 -285 q 56 -42 56 -136 q 60 35 56 -12 q 73 139 65 82 q 90 257 81 196 q 107 372 99 318 l 290 346 q 265 178 276 254 q 248 47 254 101 q 242 -36 242 -7 q 267 -130 242 -92 q 342 -188 293 -168 q 458 -208 390 -208 l 783 -208 q 935 -167 885 -208 q 985 -50 985 -126 l 985 576 l 1031 536 l 856 536 q 760 521 794 536 q 711 465 725 506 q 697 349 697 424 q 711 227 697 267 q 760 174 725 188 q 856 161 794 161 l 985 161 l 985 0 l 856 0 q 661 37 738 0 q 548 151 585 74 q 511 349 511 229 q 548 540 511 463 q 661 658 585 618 q 856 697 738 697 l 1169 697 l 1169 -50 q 1119 -220 1169 -149 q 981 -331 1068 -292 q 783 -369 894 -369 l 458 -369 m 1317 0 l 1317 161 q 1339 140 1333 161 q 1344 81 1344 118 q 1339 22 1344 44 q 1317 0 1333 0 m 678 781 l 678 939 l 864 939 l 864 781 l 678 781 m 868 781 l 868 939 l 1054 939 l 1054 781 l 868 781 z "},"ﻘ":{"ha":888,"x_min":-28,"x_max":951,"o":"m 778 0 l 778 161 l 924 161 l 924 0 l 778 0 m 0 0 l 0 161 l 649 161 l 592 113 l 592 576 l 639 536 l 464 536 q 368 521 403 536 q 319 465 333 506 q 306 349 306 424 q 319 227 306 267 q 368 174 333 188 q 464 161 403 161 l 464 17 q 269 50 346 17 q 156 156 193 83 q 119 349 119 229 q 156 540 119 463 q 269 658 193 618 q 464 697 346 697 l 778 697 l 778 0 l 0 0 m 0 0 q -22 22 -17 0 q -28 81 -28 44 q -22 140 -28 118 q 0 161 -17 161 l 0 0 m 924 0 l 924 161 q 946 140 940 161 q 951 81 951 118 q 946 22 951 44 q 924 0 940 0 m 322 781 l 322 939 l 508 939 l 508 781 l 322 781 m 513 781 l 513 939 l 699 939 l 699 781 l 513 781 z "},"ﻗ":{"ha":843,"x_min":-28,"x_max":778,"o":"m 0 0 l 0 161 l 649 161 l 592 113 l 592 576 l 639 536 l 464 536 q 368 521 403 536 q 319 465 333 506 q 306 349 306 424 q 319 227 306 267 q 368 174 333 188 q 464 161 403 161 l 464 17 q 269 50 346 17 q 156 156 193 83 q 119 349 119 229 q 156 540 119 463 q 269 658 193 618 q 464 697 346 697 l 778 697 l 778 0 l 0 0 m 0 0 q -22 22 -17 0 q -28 81 -28 44 q -22 140 -28 118 q 0 161 -17 161 l 0 0 m 322 781 l 322 939 l 508 939 l 508 781 l 322 781 m 513 781 l 513 939 l 699 939 l 699 781 l 513 781 z "},"ك":{"ha":1175,"x_min":56,"x_max":1079,"o":"m 513 0 q 172 87 289 0 q 56 344 56 174 q 60 415 56 378 q 70 485 64 451 q 82 546 76 519 q 90 585 88 572 l 271 550 q 260 493 267 528 q 247 420 253 458 q 242 347 242 382 q 272 234 242 275 q 365 177 303 193 q 522 161 428 161 l 1001 161 l 893 71 l 893 982 l 1079 982 l 1079 0 l 513 0 m 483 524 q 443 585 457 556 q 429 647 429 614 q 454 733 429 694 q 519 792 479 771 q 608 814 560 814 q 663 807 635 814 q 710 786 690 800 l 663 701 q 638 710 650 708 q 614 713 626 713 q 563 695 581 713 q 544 649 544 678 q 551 617 544 632 q 572 583 558 601 l 483 524 m 399 513 l 399 614 l 735 614 l 735 513 l 399 513 z "},"ﻚ":{"ha":1225,"x_min":56,"x_max":1253,"o":"m 1079 0 l 1079 161 l 1225 161 l 1225 0 l 1079 0 m 513 0 q 172 87 289 0 q 56 344 56 174 q 60 415 56 378 q 70 485 64 451 q 82 546 76 519 q 90 585 88 572 l 271 550 q 260 493 267 528 q 247 420 253 458 q 242 347 242 382 q 272 234 242 275 q 365 177 303 193 q 522 161 428 161 l 1001 161 l 893 71 l 893 982 l 1079 982 l 1079 0 l 513 0 m 1225 0 l 1225 161 q 1247 140 1242 161 q 1253 81 1253 118 q 1247 22 1253 44 q 1225 0 1242 0 m 483 524 q 443 585 457 556 q 429 647 429 614 q 454 733 429 694 q 519 792 479 771 q 608 814 560 814 q 663 807 635 814 q 710 786 690 800 l 663 701 q 638 710 650 708 q 614 713 626 713 q 563 695 581 713 q 544 649 544 678 q 551 617 544 632 q 572 583 558 601 l 483 524 m 399 513 l 399 614 l 735 614 l 735 513 l 399 513 z "},"ﻜ":{"ha":968,"x_min":-28,"x_max":996,"o":"m 822 0 l 822 161 l 968 161 l 968 0 l 822 0 m 0 0 l 0 161 l 697 161 l 636 111 l 636 300 q 621 415 636 372 q 574 478 606 458 q 496 497 543 497 l 192 497 l 76 664 l 147 797 q 175 849 160 821 q 215 915 190 876 q 279 1013 240 954 l 435 925 q 376 835 399 871 q 339 774 354 800 q 311 721 324 747 l 256 617 l 228 658 l 496 658 q 647 629 585 658 q 748 549 710 600 q 804 433 786 497 q 822 300 822 369 l 822 0 l 0 0 m 0 0 q -22 22 -17 0 q -28 81 -28 44 q -22 140 -28 118 q 0 161 -17 161 l 0 0 m 968 0 l 968 161 q 990 140 985 161 q 996 81 996 118 q 990 22 996 44 q 968 0 985 0 z "},"ﻛ":{"ha":918,"x_min":-28,"x_max":822,"o":"m 0 0 l 0 161 l 697 161 l 636 111 l 636 300 q 621 415 636 372 q 574 478 606 458 q 496 497 543 497 l 192 497 l 76 664 l 147 797 q 175 849 160 821 q 215 915 190 876 q 279 1013 240 954 l 435 925 q 376 835 399 871 q 339 774 354 800 q 311 721 324 747 l 256 617 l 228 658 l 496 658 q 647 629 585 658 q 748 549 710 600 q 804 433 786 497 q 822 300 822 369 l 822 0 l 0 0 m 0 0 q -22 22 -17 0 q -28 81 -28 44 q -22 140 -28 118 q 0 161 -17 161 l 0 0 z "},"ک":{"ha":1203,"x_min":56,"x_max":1106,"o":"m 513 0 q 172 87 289 0 q 56 344 56 174 q 60 406 56 372 q 69 474 64 440 q 80 536 74 507 q 90 585 86 565 l 271 550 q 261 501 267 528 q 251 447 256 475 q 244 393 247 419 q 242 347 242 367 q 272 234 242 275 q 365 177 303 193 q 522 161 428 161 l 921 161 l 921 300 q 905 415 921 372 q 858 478 889 458 q 781 497 826 497 l 474 497 l 360 664 l 431 797 q 459 849 443 821 q 499 915 475 876 q 563 1013 524 954 l 717 925 q 660 835 682 871 q 623 774 638 800 q 594 721 608 747 l 561 658 l 781 658 q 931 629 869 658 q 1032 549 993 600 q 1088 433 1071 497 q 1106 300 1106 369 l 1106 0 l 513 0 z "},"ﮏ":{"ha":1253,"x_min":56,"x_max":1281,"o":"m 1106 0 l 1106 161 l 1253 161 l 1253 0 l 1106 0 m 513 0 q 172 87 289 0 q 56 344 56 174 q 60 406 56 372 q 69 474 64 440 q 80 536 74 507 q 90 585 86 565 l 271 550 q 261 501 267 528 q 251 447 256 475 q 244 393 247 419 q 242 347 242 367 q 272 234 242 275 q 365 177 303 193 q 522 161 428 161 l 921 161 l 921 300 q 905 415 921 372 q 858 478 889 458 q 781 497 826 497 l 474 497 l 360 664 l 431 797 q 459 849 443 821 q 499 915 475 876 q 563 1013 524 954 l 717 925 q 660 835 682 871 q 623 774 638 800 q 594 721 608 747 l 561 658 l 781 658 q 931 629 869 658 q 1032 549 993 600 q 1088 433 1071 497 q 1106 300 1106 369 l 1106 0 l 513 0 m 1253 0 l 1253 161 q 1275 140 1269 161 q 1281 81 1281 118 q 1275 22 1281 44 q 1253 0 1269 0 z "},"ﮑ":{"ha":968,"x_min":-28,"x_max":996,"o":"m 822 0 l 822 161 l 968 161 l 968 0 l 822 0 m 0 0 l 0 161 l 697 161 l 636 111 l 636 300 q 621 415 636 372 q 574 478 606 458 q 496 497 543 497 l 192 497 l 76 664 l 147 797 q 175 849 160 821 q 215 915 190 876 q 279 1013 240 954 l 435 925 q 376 835 399 871 q 339 774 354 800 q 311 721 324 747 l 256 617 l 228 658 l 496 658 q 647 629 585 658 q 748 549 710 600 q 804 433 786 497 q 822 300 822 369 l 822 0 l 0 0 m 0 0 q -22 22 -17 0 q -28 81 -28 44 q -22 140 -28 118 q 0 161 -17 161 l 0 0 m 968 0 l 968 161 q 990 140 985 161 q 996 81 996 118 q 990 22 996 44 q 968 0 985 0 z "},"ﮐ":{"ha":918,"x_min":-28,"x_max":822,"o":"m 0 0 l 0 161 l 697 161 l 636 111 l 636 300 q 621 415 636 372 q 574 478 606 458 q 496 497 543 497 l 192 497 l 76 664 l 147 797 q 175 849 160 821 q 215 915 190 876 q 279 1013 240 954 l 435 925 q 376 835 399 871 q 339 774 354 800 q 311 721 324 747 l 256 617 l 228 658 l 496 658 q 647 629 585 658 q 748 549 710 600 q 804 433 786 497 q 822 300 822 369 l 822 0 l 0 0 m 0 0 q -22 22 -17 0 q -28 81 -28 44 q -22 140 -28 118 q 0 161 -17 161 l 0 0 z "},"گ":{"ha":1203,"x_min":56,"x_max":1106,"o":"m 326 713 l 260 810 q 314 913 290 867 q 364 1003 338 960 q 424 1096 390 1046 l 514 1042 q 463 961 486 997 q 419 889 440 925 q 376 811 399 853 q 326 713 353 769 m 513 0 q 172 87 289 0 q 56 344 56 174 q 60 406 56 372 q 69 474 64 440 q 80 536 74 507 q 90 585 86 565 l 271 550 q 261 501 267 528 q 251 447 256 475 q 244 393 247 419 q 242 347 242 367 q 272 234 242 275 q 365 177 303 193 q 522 161 428 161 l 921 161 l 921 300 q 905 415 921 372 q 858 478 889 458 q 781 497 826 497 l 474 497 l 360 664 l 431 797 q 459 849 443 821 q 499 915 475 876 q 563 1013 524 954 l 717 925 q 660 835 682 871 q 623 774 638 800 q 594 721 608 747 l 561 658 l 781 658 q 931 629 869 658 q 1032 549 993 600 q 1088 433 1071 497 q 1106 300 1106 369 l 1106 0 l 513 0 z "},"ﮓ":{"ha":1253,"x_min":56,"x_max":1281,"o":"m 326 713 l 260 810 q 314 913 290 867 q 364 1003 338 960 q 424 1096 390 1046 l 514 1042 q 463 961 486 997 q 419 889 440 925 q 376 811 399 853 q 326 713 353 769 m 513 0 q 172 87 289 0 q 56 344 56 174 q 60 406 56 372 q 69 474 64 440 q 80 536 74 507 q 90 585 86 565 l 271 550 q 261 501 267 528 q 251 447 256 475 q 244 393 247 419 q 242 347 242 367 q 272 234 242 275 q 365 177 303 193 q 522 161 428 161 l 921 161 l 921 300 q 905 415 921 372 q 858 478 889 458 q 781 497 826 497 l 474 497 l 360 664 l 431 797 q 459 849 443 821 q 499 915 475 876 q 563 1013 524 954 l 717 925 q 660 835 682 871 q 623 774 638 800 q 594 721 608 747 l 561 658 l 781 658 q 931 629 869 658 q 1032 549 993 600 q 1088 433 1071 497 q 1106 300 1106 369 l 1106 0 l 513 0 m 1253 0 l 1253 161 q 1275 140 1269 161 q 1281 81 1281 118 q 1275 22 1281 44 q 1253 0 1269 0 m 1106 0 l 1106 161 l 1253 161 l 1253 0 l 1106 0 z "},"ﮕ":{"ha":1058,"x_min":-28,"x_max":1086,"o":"m 911 0 l 911 161 l 1058 161 l 1058 0 l 911 0 m 1058 0 l 1058 161 q 1081 140 1075 161 q 1086 81 1086 118 q 1081 22 1086 44 q 1058 0 1075 0 m 121 713 l 56 808 q 109 913 85 867 q 159 1003 133 960 q 218 1096 185 1046 l 308 1040 q 258 960 281 997 q 214 888 235 924 q 170 810 193 851 q 121 713 147 768 m 0 0 l 0 161 l 788 161 l 728 111 l 728 300 q 712 415 728 372 q 665 478 696 458 q 586 497 633 497 l 282 497 l 167 664 l 238 797 q 265 849 250 821 q 306 915 281 876 q 369 1013 331 954 l 525 925 q 467 835 489 871 q 431 774 446 800 q 401 721 415 747 l 346 617 l 318 658 l 586 658 q 738 629 676 658 q 839 549 800 600 q 895 433 878 497 q 913 300 913 369 l 913 0 l 0 0 m 0 0 q -22 22 -17 0 q -28 81 -28 44 q -22 140 -28 118 q 0 161 -17 161 l 0 0 z "},"ﮔ":{"ha":1010,"x_min":-28,"x_max":913,"o":"m 121 713 l 56 808 q 109 913 85 867 q 159 1003 133 960 q 218 1096 185 1046 l 308 1040 q 258 960 281 997 q 214 888 235 924 q 170 810 193 851 q 121 713 147 768 m 0 0 l 0 161 l 788 161 l 728 111 l 728 300 q 712 415 728 372 q 665 478 696 458 q 586 497 633 497 l 282 497 l 167 664 l 238 797 q 265 849 250 821 q 306 915 281 876 q 369 1013 331 954 l 525 925 q 467 835 489 871 q 431 774 446 800 q 401 721 415 747 l 346 617 l 318 658 l 586 658 q 738 629 676 658 q 839 549 800 600 q 895 433 878 497 q 913 300 913 369 l 913 0 l 0 0 m 0 0 q -22 22 -17 0 q -28 81 -28 44 q -22 140 -28 118 q 0 161 -17 161 l 0 0 z "},"ل":{"ha":971,"x_min":56,"x_max":875,"o":"m 475 -344 q 259 -301 354 -344 q 110 -179 164 -257 q 56 -3 56 -101 q 60 71 56 25 q 72 174 64 117 q 88 290 79 231 q 106 404 97 349 l 289 379 q 263 209 274 286 q 247 78 253 132 q 242 -1 242 24 q 269 -97 242 -57 q 349 -160 297 -137 q 475 -183 401 -183 q 599 -161 551 -183 q 667 -100 646 -139 q 689 -12 689 -61 l 689 982 l 875 982 l 875 -12 q 823 -187 875 -112 q 681 -303 771 -262 q 475 -344 590 -344 z "},"ﻞ":{"ha":1021,"x_min":56,"x_max":1049,"o":"m 875 0 l 875 161 l 1021 161 l 1021 0 l 875 0 m 475 -344 q 259 -301 354 -344 q 110 -179 164 -257 q 56 -3 56 -101 q 60 71 56 25 q 72 174 64 117 q 88 290 79 231 q 106 404 97 349 l 289 379 q 263 209 274 286 q 247 78 253 132 q 242 -1 242 24 q 269 -97 242 -57 q 349 -160 297 -137 q 475 -183 401 -183 q 599 -161 551 -183 q 667 -100 646 -139 q 689 -12 689 -61 l 689 982 l 875 982 l 875 -12 q 823 -187 875 -112 q 681 -303 771 -262 q 475 -344 590 -344 m 1021 0 l 1021 161 q 1043 140 1038 161 q 1049 81 1049 118 q 1043 22 1049 44 q 1021 0 1038 0 z "},"ﻠ":{"ha":489,"x_min":-28,"x_max":517,"o":"m 343 0 l 343 161 l 489 161 l 489 0 l 343 0 m 157 0 l 157 982 l 343 982 l 343 0 l 157 0 m 0 0 l 0 161 l 157 161 l 157 0 l 0 0 m 0 0 q -22 22 -17 0 q -28 81 -28 44 q -22 140 -28 118 q 0 161 -17 161 l 0 0 m 489 0 l 489 161 q 511 140 506 161 q 517 81 517 118 q 511 22 517 44 q 489 0 506 0 z "},"ﻟ":{"ha":440,"x_min":-28,"x_max":343,"o":"m 157 0 l 157 982 l 343 982 l 343 0 l 157 0 m 0 0 l 0 161 l 157 161 l 157 0 l 0 0 m 0 0 q -22 22 -17 0 q -28 81 -28 44 q -22 140 -28 118 q 0 161 -17 161 l 0 0 z "},"م":{"ha":924,"x_min":56,"x_max":826,"o":"m 89 -461 q 66 -315 76 -386 q 56 -190 56 -244 q 97 -3 56 -82 q 215 118 139 75 q 396 161 292 161 q 448 161 417 161 q 521 161 479 161 q 614 161 563 161 q 726 161 665 161 l 642 81 l 642 343 q 626 458 642 415 q 569 518 610 500 q 450 536 528 536 q 342 528 397 536 q 256 508 288 521 l 372 617 q 355 533 363 583 q 343 430 347 483 q 339 329 339 376 q 343 226 339 278 q 353 133 347 174 q 364 78 360 93 l 188 29 q 173 93 181 49 q 159 198 165 138 q 153 326 153 258 q 159 459 153 394 q 175 576 165 524 q 193 660 185 628 q 300 685 229 674 q 453 697 371 697 q 608 680 543 697 q 715 631 672 663 q 782 555 757 599 q 817 457 807 511 q 826 342 826 403 l 826 0 q 699 0 765 0 q 572 0 633 0 q 463 0 510 0 q 396 0 417 0 q 347 -6 374 0 q 297 -31 321 -12 q 257 -88 272 -50 q 242 -190 242 -126 q 251 -307 242 -240 q 272 -461 260 -374 l 89 -461 z "},"ﻢ":{"ha":974,"x_min":56,"x_max":1001,"o":"m 826 0 l 826 161 l 974 161 l 974 0 l 826 0 m 89 -461 q 66 -315 76 -386 q 56 -190 56 -244 q 97 -3 56 -82 q 215 118 139 75 q 396 161 292 161 q 448 161 417 161 q 521 161 479 161 q 614 161 563 161 q 726 161 665 161 l 642 81 l 642 343 q 626 458 642 415 q 569 518 610 500 q 450 536 528 536 q 342 528 397 536 q 256 508 288 521 l 372 617 q 355 533 363 583 q 343 430 347 483 q 339 329 339 376 q 343 226 339 278 q 353 133 347 174 q 364 78 360 93 l 188 29 q 173 93 181 49 q 159 198 165 138 q 153 326 153 258 q 159 459 153 394 q 175 576 165 524 q 193 660 185 628 q 300 685 229 674 q 453 697 371 697 q 608 680 543 697 q 715 631 672 663 q 782 555 757 599 q 817 457 807 511 q 826 342 826 403 l 826 0 q 699 0 765 0 q 572 0 633 0 q 463 0 510 0 q 396 0 417 0 q 347 -6 374 0 q 297 -31 321 -12 q 257 -88 272 -50 q 242 -190 242 -126 q 251 -307 242 -240 q 272 -461 260 -374 l 89 -461 m 974 0 l 974 161 q 995 140 989 161 q 1001 81 1001 118 q 995 22 1001 44 q 974 0 989 0 z "},"ﻤ":{"ha":968,"x_min":-28,"x_max":996,"o":"m 821 0 l 821 161 l 968 161 l 968 0 l 821 0 m 0 0 l 0 161 l 721 161 l 636 89 l 636 344 q 619 462 636 419 q 562 522 603 504 q 449 539 521 539 q 337 531 392 539 q 251 511 282 524 l 367 619 q 351 539 358 588 q 338 435 343 490 q 332 328 332 381 q 337 226 332 279 q 348 133 342 174 q 358 78 354 93 l 182 29 q 168 93 176 49 q 153 199 160 138 q 147 328 147 260 q 154 462 147 397 q 170 578 161 526 q 188 663 179 631 q 292 688 221 675 q 449 700 363 700 q 656 665 574 700 q 780 553 739 631 q 821 343 821 475 l 821 0 l 0 0 m 0 0 q -22 22 -17 0 q -28 81 -28 44 q -22 140 -28 118 q 0 161 -17 161 l 0 0 m 968 0 l 968 161 q 990 140 985 161 q 996 81 996 118 q 990 22 996 44 q 968 0 985 0 z "}}}
